<svg class="reading-girl" width="376" height="270" viewBox="0 0 376 270" fill="none" xmlns="http://www.w3.org/2000/svg">
    <g clip-path="url(#clip0)">
        <path d="M184.61 270C237.214 270 279.857 264.649 279.857 258.048C279.857 251.447 237.214 246.096 184.61 246.096C132.007 246.096 89.3632 251.447 89.3632 258.048C89.3632 264.649 132.007 270 184.61 270Z" fill="#3F3D56"/>
        <path d="M345.73 155.855L308.909 173.282L341.497 148.914C336.201 140.647 330.251 132.817 323.704 125.5L164.016 165.192L308.26 110.168C301.668 104.352 294.668 99.0164 287.313 94.2021L43.9862 133.396C18.151 165.702 4.0675 205.833 4.04761 247.2H370.321C370.306 215.118 361.824 183.608 345.73 155.855Z" fill="#E1E8F6"/>
        <path d="M267.399 82.8875C242.417 70.7027 214.98 64.3889 187.184 64.4282C130.614 64.4282 80.0364 90.0797 46.4429 130.384C103.969 117.779 204.125 95.9602 267.399 82.8875Z" fill="#E1E8F6"/>
        <path opacity="0.4" d="M303.422 100.499C306.453 100.499 308.909 98.042 308.909 95.0117C308.909 91.9813 306.453 89.5248 303.422 89.5248C300.392 89.5248 297.935 91.9813 297.935 95.0117C297.935 98.042 300.392 100.499 303.422 100.499Z" fill="#1B998B"/>
        <path opacity="0.4" d="M293.268 101.481C295.393 101.481 297.117 99.758 297.117 97.6323C297.117 95.5065 295.393 93.7833 293.268 93.7833C291.142 93.7833 289.419 95.5065 289.419 97.6323C289.419 99.758 291.142 101.481 293.268 101.481Z" fill="#1B998B"/>
        <path opacity="0.4" d="M43.6708 121.043C50.0173 121.043 55.1622 115.898 55.1622 109.552C55.1622 103.205 50.0173 98.0603 43.6708 98.0603C37.3243 98.0603 32.1794 103.205 32.1794 109.552C32.1794 115.898 37.3243 121.043 43.6708 121.043Z" fill="#1B998B"/>
        <path opacity="0.4" d="M22.4032 123.101C26.8552 123.101 30.4643 119.492 30.4643 115.04C30.4643 110.588 26.8552 106.979 22.4032 106.979C17.9511 106.979 14.342 110.588 14.342 115.04C14.342 119.492 17.9511 123.101 22.4032 123.101Z" fill="#1B998B"/>
        <path d="M375.104 246.832H0V247.567H375.104V246.832Z" fill="#2F2E41"/>
        <path d="M332.607 246.832L303.393 203.437C303.393 203.437 347.636 218.883 342.615 246.832H332.607Z" fill="#3F3D56"/>
        <path d="M333.754 246.832L362.969 203.437C362.969 203.437 318.726 218.883 323.747 246.832H333.754Z" fill="#FCA95C"/>
        <path d="M76.4919 48.8264C76.4919 46.4372 73.0852 44.5003 68.8827 44.5003C68.7995 44.5003 68.7173 44.5024 68.6347 44.5039C67.367 40.6178 61.3742 37.6748 54.1716 37.6748C48.0434 37.6748 42.7913 39.8053 40.5796 42.8344C38.9455 42.4019 37.2616 42.1863 35.5713 42.1931C29.1275 42.1931 23.9038 45.1629 23.9038 48.8264C23.9038 52.1542 28.2145 54.9092 33.8343 55.3861C37.9181 56.1328 44.2969 56.6133 51.4661 56.6133C63.6373 56.6133 72.5432 54.2915 72.7666 52.5464C74.9968 51.7921 76.4919 50.4088 76.4919 48.8264Z" fill="#E1E8F6"/>
        <path d="M260.366 50.6651C260.366 48.2759 256.96 46.3391 252.757 46.3391C252.674 46.3391 252.592 46.3411 252.509 46.3426C251.241 42.4565 245.249 39.5135 238.046 39.5135C231.918 39.5135 226.666 41.644 224.454 44.6731C222.82 44.2406 221.136 44.0251 219.446 44.0319C213.002 44.0318 207.778 47.0017 207.778 50.6651C207.778 53.993 212.089 56.7479 217.709 57.2249C221.792 57.9715 228.171 58.452 235.34 58.452C247.512 58.452 256.418 56.1303 256.641 54.3851C258.871 53.6308 260.366 52.2475 260.366 50.6651Z" fill="#E1E8F6"/>
        <path d="M362.968 19.5738C362.968 15.3801 356.989 11.9805 349.612 11.9805C349.466 11.9805 349.322 11.9841 349.177 11.9867C346.952 5.16564 336.433 -1.52588e-05 323.791 -1.52588e-05C313.034 -1.52588e-05 303.816 3.73954 299.933 9.05629C297.065 8.29723 294.11 7.9188 291.143 7.93074C279.832 7.93074 270.663 13.1435 270.663 19.5738C270.663 25.4149 278.23 30.2505 288.094 31.0877C295.262 32.3983 306.458 33.2417 319.042 33.2417C340.406 33.2417 356.037 29.1664 356.43 26.1032C360.344 24.7793 362.968 22.3513 362.968 19.5738Z" fill="#E1E8F6"/>
        <path d="M209.679 106.613C202.073 93.7602 187.023 93.1612 187.023 93.1612C187.023 93.1612 172.359 91.2859 162.951 110.861C154.183 129.107 142.081 146.724 161.003 150.995L164.421 140.357L166.537 151.787C169.231 151.981 171.934 152.027 174.633 151.925C194.897 151.271 214.195 152.117 213.573 144.845C212.747 135.179 216.999 118.98 209.679 106.613Z" fill="#2F2E41"/>
        <path d="M159.923 219.173C159.699 220.587 159.375 221.983 158.952 223.35C158.476 224.689 157.742 225.927 157.306 227.279C155.919 231.59 157.842 236.396 160.914 239.723C163.578 242.597 167.016 244.638 170.814 245.602C173.585 246.299 176.467 246.399 179.322 246.496C187.23 246.764 195.341 247.004 202.834 244.462C205.201 243.64 207.488 242.601 209.665 241.359C210.352 241.032 210.957 240.555 211.437 239.964C212.009 239.15 212.082 238.095 212.077 237.101C212.06 233.748 211.38 230.413 211.542 227.065C211.631 225.21 211.978 223.357 211.807 221.508C211.571 219.408 210.691 217.433 209.289 215.852C207.886 214.271 206.03 213.162 203.973 212.678C201.847 212.221 199.642 212.47 197.478 212.678C191.861 213.218 186.22 213.47 180.577 213.434C174.811 213.397 169.081 212.517 163.344 212.425C161.647 212.398 161.682 212.921 161.141 214.563C160.644 216.074 160.237 217.614 159.923 219.173Z" fill="#2F2E41"/>
        <path d="M176.285 136.398C176.008 137.849 175.709 139.353 174.837 140.545C173.834 141.917 172.198 142.701 171.119 144.014C169.495 145.99 169.402 148.77 169.395 151.328C169.389 153.684 169.437 156.198 170.751 158.154C171.604 159.423 172.901 160.313 174.169 161.168C179.097 164.489 184.423 167.869 190.364 167.979C192.826 168.024 195.465 167.388 197.085 165.534C197.785 164.663 198.335 163.682 198.713 162.631C200.232 158.886 201.153 154.925 201.442 150.894C201.577 148.998 201.564 147.046 200.922 145.256C200.2 143.244 198.741 141.588 197.776 139.68C196.636 137.411 196.219 134.847 196.581 132.334C196.629 132.157 196.615 131.969 196.539 131.802C196.46 131.712 196.361 131.642 196.25 131.597C196.139 131.552 196.02 131.534 195.9 131.543L184.119 130.695C183.022 130.64 181.93 130.515 180.848 130.32C180.213 130.191 178.536 129.289 177.93 129.529C176.809 129.973 176.515 135.195 176.285 136.398Z" fill="#FFB8B8"/>
        <path opacity="0.1" d="M176.285 136.398C176.008 137.849 175.709 139.353 174.837 140.545C173.834 141.917 172.198 142.701 171.119 144.014C169.495 145.99 169.402 148.77 169.395 151.328C169.389 153.684 169.437 156.198 170.751 158.154C171.604 159.423 172.901 160.313 174.169 161.168C179.097 164.489 184.423 167.869 190.364 167.979C192.826 168.024 195.465 167.388 197.085 165.534C197.785 164.663 198.335 163.682 198.713 162.631C200.232 158.886 201.153 154.925 201.442 150.894C201.577 148.998 201.564 147.046 200.922 145.256C200.2 143.244 198.741 141.588 197.776 139.68C196.636 137.411 196.219 134.847 196.581 132.334C196.629 132.157 196.615 131.969 196.539 131.802C196.46 131.712 196.361 131.642 196.25 131.597C196.139 131.552 196.02 131.534 195.9 131.543L184.119 130.695C183.022 130.64 181.93 130.515 180.848 130.32C180.213 130.191 178.536 129.289 177.93 129.529C176.809 129.973 176.515 135.195 176.285 136.398Z" fill="black"/>
        <path d="M187.552 137.978C197.098 137.978 204.836 130.24 204.836 120.694C204.836 111.148 197.098 103.41 187.552 103.41C178.006 103.41 170.268 111.148 170.268 120.694C170.268 130.24 178.006 137.978 187.552 137.978Z" fill="#FFB8B8"/>
        <path d="M178.71 159.406C179.61 160.348 180.565 161.28 181.745 161.832C182.947 162.329 184.238 162.575 185.538 162.554C188.654 162.642 192.031 162.071 194.199 159.831C196.993 156.944 196.901 152.287 199.091 148.918C199.267 148.613 199.508 148.349 199.796 148.146C200.164 147.946 200.579 147.851 200.996 147.87C203.762 147.845 206.172 149.638 208.346 151.348C209.32 152.114 210.318 152.907 210.933 153.983C211.363 154.822 211.657 155.724 211.805 156.655C212.884 161.922 213.234 167.308 213.58 172.673C213.772 175.637 213.964 178.603 213.949 181.573C213.903 191.357 211.628 200.977 209.367 210.497C209.076 211.723 208.677 213.094 207.561 213.682C207.064 213.905 206.53 214.036 205.986 214.066C199.508 214.827 193.018 215.589 186.497 215.689C183.952 215.728 181.408 215.667 178.866 215.504C178.428 215.499 177.994 215.423 177.58 215.28C177.018 215.011 176.536 214.601 176.179 214.09C172.651 209.645 172.443 203.5 172.466 197.826C172.521 183.952 173.016 170.09 173.953 156.239C174.03 155.096 174.047 153.707 173.223 152.808C174.706 155.182 176.769 157.378 178.71 159.406Z" fill="#6A6EA4"/>
        <path d="M175.048 139.449C174.465 140.506 170.161 143.13 169.33 144.006C164.688 148.899 156.215 148.715 151.969 153.956C150.475 155.8 149.699 158.117 149.128 160.421C148.321 163.679 147.89 167.232 149.242 170.304C150.543 173.26 153.283 175.303 155.143 177.943C157.185 180.842 158.103 184.362 158.983 187.798C159.632 190.334 160.287 192.933 160.034 195.539C159.747 198.502 158.313 201.215 157.466 204.069C156.62 206.923 156.474 210.323 158.431 212.566C159.869 214.213 162.125 214.867 164.281 215.234C167.042 215.649 169.827 215.891 172.618 215.96C175.083 216.069 177.799 216.09 179.694 214.51C181.189 213.263 181.839 211.24 181.923 209.296C182.007 207.351 181.602 205.423 181.349 203.493C181.086 201.493 180.985 199.474 180.901 197.458C180.522 188.412 180.47 179.36 180.746 170.302C180.803 168.418 180.873 166.51 180.471 164.667C179.942 162.244 178.633 160.079 177.54 157.853C175.371 153.434 174.345 149.141 174.681 144.23C175.012 139.382 177.126 135.689 175.048 139.449Z" fill="#FCA95C"/>
        <path d="M199.32 139.817C200.209 140.731 203.231 141.032 204.362 141.621C205.426 142.112 206.536 142.496 207.676 142.768C211.802 143.958 215.726 145.759 219.319 148.112C220.065 148.548 220.725 149.118 221.266 149.793C221.899 150.674 222.128 151.772 222.343 152.835C222.897 155.578 223.453 158.355 223.329 161.151C223.197 164.119 222.303 166.993 221.416 169.829L218.102 180.423C215.628 188.331 213.139 196.317 212.443 204.574C212.058 209.15 212.229 213.756 212.953 218.291C213.026 218.747 213.087 219.269 212.786 219.619C212.567 219.835 212.28 219.967 211.974 219.993C210.375 220.243 208.827 219.427 207.378 218.706C202.949 216.501 198.222 214.955 193.346 214.114C195.251 211.361 196.721 208.331 197.704 205.13C198.263 203.098 198.702 201.035 199.021 198.952L200.563 190.036C201.19 186.777 201.632 183.485 201.885 180.176C202.002 178.934 201.929 177.682 201.671 176.462C201.315 175.301 200.844 174.178 200.263 173.112C197.722 167.827 196.53 161.797 197.53 156.019C197.967 153.49 198.817 150.958 198.463 148.417C198.122 145.973 198.476 144.074 197.849 141.656C195.275 131.726 197.647 138.098 199.32 139.817Z" fill="#FCA95C"/>
        <path d="M151.925 162.312C150.767 164.716 148.83 166.763 148.171 169.349C147.915 170.557 147.805 171.792 147.844 173.026C147.828 174.887 147.818 176.785 148.39 178.556C148.757 179.696 149.356 180.748 149.787 181.865C150.388 183.427 150.656 185.097 150.573 186.768C150.457 189.083 149.67 191.331 149.609 193.648C149.512 197.292 151.198 200.718 152.842 203.971C153.256 202.946 153.889 202.024 154.697 201.269C155.504 200.514 156.467 199.944 157.518 199.6C158.569 199.256 159.682 199.146 160.779 199.277C161.877 199.408 162.933 199.778 163.873 200.36C164.307 199.959 164.353 199.301 164.37 198.711C164.492 194.483 164.609 190.255 164.722 186.027C164.9 179.488 165.07 172.862 163.565 166.496C162.886 163.622 161.83 160.759 159.892 158.529C158.872 157.355 155.409 154.263 153.735 155.578C152.982 156.17 153.158 157.78 153.039 158.595C152.859 159.883 152.483 161.137 151.925 162.312Z" fill="#FCA95C"/>
        <path d="M223.667 155.386C224.215 157.092 224.248 158.914 224.259 160.706C224.281 164.361 224.233 168.015 224.114 171.669C224.053 173.539 223.969 175.436 223.401 177.219C223.027 178.395 222.45 179.498 222.064 180.671C220.906 184.184 221.539 187.994 221.638 191.692C221.708 192.889 221.606 194.089 221.335 195.257C220.724 197.549 219.082 199.401 217.936 201.478C216.848 203.451 216.191 205.662 214.891 207.502C213.591 209.343 211.341 210.801 209.16 210.236C207.508 209.808 206.333 208.345 205.521 206.844C203.749 203.542 203.143 199.74 203.801 196.051C204.616 191.563 207.252 187.582 208.203 183.121C209.509 176.994 207.524 170.673 207.583 164.409C207.557 163.427 207.69 162.448 207.978 161.509C208.476 160.078 209.547 158.936 210.537 157.788C211.773 156.354 212.922 154.847 213.976 153.274C214.685 152.218 215.647 149.501 216.902 149.275C219.706 148.771 222.972 153.22 223.667 155.386Z" fill="#FCA95C"/>
        <path d="M137.376 216.449C135.826 216.059 134.228 215.889 132.631 215.944C130.952 216.037 129.312 216.486 127.821 217.262C126.329 218.037 125.019 219.122 123.979 220.442C122.939 221.763 122.192 223.29 121.788 224.922C121.383 226.554 121.331 228.254 121.634 229.907C122.021 231.699 122.654 233.428 123.515 235.046C124.773 237.6 126.283 240.148 128.613 241.785C129.976 242.742 131.553 243.339 133.112 243.927L145.383 248.549C147.188 249.229 148.994 249.91 150.817 250.54C159.976 253.706 169.525 255.604 179.199 256.183C182.145 256.358 185.137 256.407 188.011 255.736C188.693 255.577 189.421 255.34 189.816 254.761C190.05 254.353 190.188 253.898 190.219 253.429L190.974 248.143C191.081 247.399 191.183 246.615 190.91 245.914C190.564 245.026 189.697 244.467 188.87 243.992C180.803 239.359 171.383 236.802 164.593 230.443C162.994 228.946 161.656 226.573 159.714 225.556C157.511 224.402 154.917 223.744 152.641 222.682C147.664 220.358 142.771 217.689 137.376 216.449Z" fill="#2F2E41"/>
        <path opacity="0.1" d="M149.628 223.575C153.965 224.935 172.277 234.351 175.416 237.638C174.995 237.79 160.721 229.79 160.292 229.661C156.399 228.493 152.483 227.316 148.786 225.606C148.042 225.262 143.954 223.645 144.139 222.707C144.348 221.648 148.858 223.334 149.628 223.575Z" fill="black"/>
        <path d="M203.739 258.924C203.986 258.942 204.23 258.87 204.427 258.722C204.514 258.611 204.577 258.484 204.614 258.348C204.651 258.212 204.66 258.07 204.642 257.931C204.635 255.53 204.629 253.129 204.622 250.729C202.551 249.742 200.234 249.426 197.961 249.122L187.351 247.704C187.595 247.736 185.693 252.273 185.984 252.879C186.499 253.946 190.428 254.893 191.537 255.397C195.392 257.149 199.398 259.075 203.739 258.924Z" fill="#FFB8B8"/>
        <path d="M170.453 250.704C168.45 251.023 166.215 251.305 164.917 252.864C163.272 254.842 163.973 257.789 164.757 260.239C164.874 260.734 165.108 261.195 165.44 261.581C165.975 262.109 166.796 262.187 167.547 262.234C169.374 262.35 171.318 262.44 172.914 261.544C173.637 261.067 174.333 260.549 174.999 259.995C176.176 259.211 177.469 258.62 178.832 258.242C181.336 257.454 183.914 256.923 186.526 256.657C187.555 256.61 188.574 256.43 189.557 256.122C190.52 255.759 191.412 255.04 191.692 254.05C192.062 252.741 191.301 251.407 190.572 250.259C189.663 248.829 188.7 247.324 187.345 246.271C185.368 244.735 184.39 245.914 182.399 246.897C178.63 248.757 174.603 250.04 170.453 250.704Z" fill="#FFB8B8"/>
        <path d="M165.219 252.508L152.5 248.749C150.953 248.292 149.38 247.831 147.767 247.832C146.154 247.833 144.466 248.362 143.42 249.59C142.434 250.747 142.152 252.329 141.906 253.83L141.38 257.04C141.113 258.671 140.845 260.334 141.085 261.97C141.326 263.605 142.161 265.239 143.612 266.031C145.372 266.991 147.529 266.522 149.494 266.121C153.461 265.31 157.497 264.877 161.547 264.828C163.069 264.81 164.666 264.829 166.011 264.116C167.61 263.269 168.567 261.477 168.731 259.674C168.981 256.932 168.067 253.35 165.219 252.508Z" fill="#2F2E41"/>
        <path d="M208.739 249.232C210.388 248.943 211.843 248.006 213.423 247.453C215.647 246.674 218.056 246.674 220.413 246.683C221.278 246.686 222.199 246.706 222.919 247.185C223.956 247.876 224.222 249.259 224.399 250.493L225.464 257.94C225.664 259.34 225.863 260.778 225.551 262.158C225.238 263.538 224.298 264.869 222.928 265.225C221.265 265.657 219.635 264.595 218.064 263.897C214.139 262.153 209.577 262.598 205.484 261.295C204.725 261.053 203.911 260.683 203.602 259.948C203.462 259.535 203.412 259.096 203.455 258.661C203.525 256.268 203.02 252.999 203.741 250.712C204.389 248.654 206.898 249.232 208.739 249.232Z" fill="#2F2E41"/>
        <path d="M235.655 213.451C238.196 212.814 240.831 212.634 243.435 212.92C245.515 213.149 247.658 213.728 249.177 215.168C251.025 216.92 251.619 219.63 251.669 222.176C251.75 227.248 250.068 232.191 246.91 236.161C246.138 237.165 245.221 238.048 244.188 238.78C243.075 239.477 241.887 240.049 240.648 240.486L213.167 251.326C205.937 254.177 198.682 257.037 191.141 258.917C190.935 259.016 190.711 259.074 190.483 259.085C190.254 259.097 190.025 259.063 189.81 258.985C189.595 258.907 189.397 258.786 189.229 258.631C189.061 258.476 188.926 258.288 188.831 258.079C186.424 254.64 184.404 250.945 182.808 247.062C182.733 246.969 182.681 246.86 182.656 246.743C182.632 246.627 182.636 246.506 182.668 246.391C182.7 246.276 182.76 246.171 182.841 246.084C182.923 245.997 183.024 245.931 183.137 245.891L202.574 234.723C203.966 233.923 205.374 233.111 206.53 231.997C207.37 231.183 208.058 230.225 208.562 229.169C208.964 228.328 209.002 226.342 209.517 225.72C210.021 225.111 211.744 225.062 212.54 224.822C213.663 224.478 214.763 224.063 215.832 223.578C220.18 221.633 224.052 218.807 228.22 216.529C230.558 215.192 233.056 214.158 235.655 213.451Z" fill="#2F2E41"/>
        <path opacity="0.1" d="M224.635 221.792C221.296 224.3 216.972 226.606 213.662 229.18C212.533 230.058 193.702 240.645 193.436 242.051C196.524 242.571 216.194 228.811 219.008 227.438C221.822 226.065 224.317 224.129 226.789 222.206C227.419 221.717 230.089 220.244 228.28 219.697C227.261 219.389 225.388 221.29 224.635 221.792Z" fill="black"/>
        <path d="M206.316 105.374L191.448 97.5863L170.917 100.772L166.668 119.534L177.243 119.128L180.197 112.234V119.014L185.076 118.826L187.908 107.852L189.678 119.534L207.024 119.18L206.316 105.374Z" fill="#2F2E41"/>
        <path d="M202.997 143.862H171.003V182.476H202.997V143.862Z" fill="#3F3D56"/>
        <path d="M155.815 211.021C156.549 212.118 157.41 213.191 158.59 213.782C159.342 214.126 160.163 214.293 160.99 214.271C161.817 214.249 162.628 214.038 163.361 213.654C164.825 212.87 166.023 211.668 166.804 210.203C168.42 207.349 168.754 203.935 168.553 200.662C168.351 197.389 167.652 194.166 167.343 190.902C167.118 188.529 167.1 186.141 167.082 183.758C167.026 183.256 167.131 182.75 167.382 182.313C167.74 181.824 168.395 181.69 168.976 181.517C172.237 180.548 174.402 177.491 175.954 174.464C176.99 172.442 177.891 170.233 177.691 167.97C177.491 165.707 175.865 163.427 173.605 163.196C171.742 163.006 170.021 164.189 168.677 165.494C165.287 168.805 163.108 173.159 162.491 177.858C162.196 180.158 162.28 182.522 161.655 184.755C160.318 189.525 156.138 192.449 154.054 196.74C151.758 201.469 153.026 206.837 155.815 211.021Z" fill="#FFB8B8"/>
        <path d="M217.337 192.801C216.861 193.907 216.169 194.907 215.301 195.741C214.433 196.575 213.406 197.227 212.282 197.658C210.885 198.219 209.344 198.313 207.888 197.927C207.167 197.726 206.501 197.363 205.942 196.863C205.384 196.364 204.949 195.743 204.669 195.048C204.447 194.348 204.325 193.619 204.307 192.885C204.098 189.669 204.179 186.355 205.347 183.351C205.797 182.192 206.405 181.094 206.761 179.902C207.11 178.527 207.289 177.113 207.293 175.694L207.677 166.918C207.74 166.281 207.696 165.638 207.547 165.016C207.163 163.746 205.977 162.921 204.888 162.164C202.258 160.335 199.66 158.201 198.385 155.262C197.948 154.378 197.791 153.38 197.936 152.404C198.295 150.661 200.054 149.533 201.792 149.153C202.929 148.904 204.105 148.888 205.249 149.106C206.392 149.324 207.48 149.771 208.446 150.421C209.412 151.07 210.237 151.908 210.87 152.885C211.504 153.862 211.933 154.956 212.132 156.103C212.304 157.094 212.302 158.105 212.403 159.105C212.616 161.227 213.29 163.272 213.711 165.362C214.749 170.51 214.211 175.832 215.237 180.98C216.095 185.283 219.331 188.092 217.337 192.801Z" fill="#FFB8B8"/>
        <path d="M19.3551 246.471L18.6196 246.457C18.9041 238.279 19.7766 230.132 21.2305 222.08C24.411 204.839 29.6995 193.517 36.9493 188.426L37.3716 189.028C20.4361 200.919 19.3637 246.017 19.3551 246.471Z" fill="#2F2E41"/>
        <path d="M28.5485 246.295L27.813 246.281C27.8288 245.466 28.2885 226.27 35.8456 220.964L36.268 221.566C29.0157 226.658 28.5521 246.1 28.5485 246.295Z" fill="#2F2E41"/>
        <path d="M41.5556 189.095C43.5866 189.095 45.2331 187.449 45.2331 185.418C45.2331 183.387 43.5866 181.74 41.5556 181.74C39.5246 181.74 37.8781 183.387 37.8781 185.418C37.8781 187.449 39.5246 189.095 41.5556 189.095Z" fill="#FCA95C"/>
        <path d="M39.7346 220.722C41.7656 220.722 43.4121 219.075 43.4121 217.044C43.4121 215.013 41.7656 213.367 39.7346 213.367C37.7035 213.367 36.0571 215.013 36.0571 217.044C36.0571 219.075 37.7035 220.722 39.7346 220.722Z" fill="#FCA95C"/>
        <path d="M26.8346 191.3C27.5257 195.714 25.7243 199.663 25.7243 199.663C25.7243 199.663 22.8025 196.454 22.1113 192.039C21.4202 187.625 23.2215 183.676 23.2215 183.676C23.2215 183.676 26.1434 186.885 26.8346 191.3Z" fill="#2F2E41"/>
        <path d="M38.8552 202.021C34.6286 203.471 30.4268 202.385 30.4268 202.385C30.4268 202.385 33.0775 198.949 37.3041 197.499C41.5306 196.049 45.7324 197.135 45.7324 197.135C45.7324 197.135 43.0817 200.571 38.8552 202.021Z" fill="#2F2E41"/>
        <path d="M38.9909 230.029C37.078 230.63 35.0409 230.718 33.0833 230.284C34.3263 228.702 36.0003 227.512 37.9037 226.86C39.8071 226.207 41.8587 226.118 43.8113 226.604C42.5321 228.148 40.8699 229.329 38.9909 230.029Z" fill="#2F2E41"/>
    </g>
    <defs>
        <clipPath id="clip0">
            <rect width="375.104" height="270" fill="white"/>
        </clipPath>
    </defs>
</svg>
