<svg class="reading-guy-and-girl" width="575" height="390" viewBox="0 0 575 390" fill="none" xmlns="http://www.w3.org/2000/svg">
    <path d="M512.528 360H202.528V361H512.528V360Z" fill="#2F2E41"/>
    <path opacity="0.1" d="M354.652 368.845C392.228 368.845 422.69 365.133 422.69 360.555C422.69 355.976 392.228 352.264 354.652 352.264C317.075 352.264 286.613 355.976 286.613 360.555C286.613 365.133 317.075 368.845 354.652 368.845Z" fill="black"/>
    <path d="M472.845 360.1H256.179L256.276 337.128C256.524 279.001 302.919 231.105 361.039 230.116C361.666 230.105 362.295 230.1 362.925 230.1H362.926C376.003 230.09 388.978 232.421 401.234 236.982C442.358 252.298 469.96 291.209 471.797 335.053L472.845 360.1Z" fill="#F8BD7A"/>
    <path d="M374.663 338.542H334.641V375.134H374.663V338.542Z" fill="#1B998B"/>
    <path d="M426.978 347.405L424.691 359.983L439.557 362.27L449.277 356.553L448.705 347.405H426.978Z" fill="#575A89"/>
    <path d="M352.078 111.271C352.078 111.271 350.935 124.421 348.076 124.993C345.217 125.565 354.365 148.435 354.365 148.435H368.087L378.95 145.576L373.805 132.997C373.805 132.997 366.944 123.849 372.089 116.417C377.235 108.984 352.078 111.271 352.078 111.271Z" fill="#FFBFC8"/>
    <path opacity="0.1" d="M352.078 111.271C352.078 111.271 350.935 124.421 348.076 124.993C345.217 125.565 354.365 148.435 354.365 148.435H368.087L378.95 145.576L373.805 132.997C373.805 132.997 366.944 123.849 372.089 116.417C377.235 108.984 352.078 111.271 352.078 111.271Z" fill="black"/>
    <path d="M323.491 211.899C323.491 211.899 308.626 240.487 320.632 246.204C332.639 251.922 335.498 251.35 335.498 253.065C335.498 254.781 333.211 254.209 334.355 257.068C335.498 259.926 332.067 271.361 335.498 278.222C338.929 285.083 337.785 290.229 337.785 290.229C337.785 290.229 337.785 290.801 338.929 293.088C340.072 295.375 340.644 297.09 340.072 298.234C339.5 299.377 336.07 306.81 339.5 308.525C342.931 310.241 360.655 311.384 362.37 308.525C364.086 305.666 360.655 303.951 362.37 302.236C364.086 300.521 365.229 299.949 364.086 298.805C362.942 297.662 361.799 283.368 361.799 283.368C361.799 283.368 364.657 266.787 363.514 264.5C362.37 262.213 360.655 259.926 361.799 258.211C362.942 256.496 364.086 257.068 364.657 254.781C365.229 252.494 366.373 247.348 366.373 247.348L372.662 246.776L387.527 249.635C387.527 249.635 404.108 267.931 422.404 273.648C422.404 273.648 427.55 278.794 429.265 278.794C430.981 278.794 430.981 278.794 430.409 279.938C429.837 281.081 428.122 281.081 429.265 282.225C430.409 283.368 432.124 281.653 430.981 283.368C429.837 285.083 428.694 285.083 429.837 286.227C430.981 287.37 429.265 293.66 429.265 294.231C429.265 294.803 424.12 348.548 425.835 349.691C427.55 350.835 451.564 354.265 453.279 349.691C454.994 345.117 452.135 339.4 452.135 339.4C452.135 339.4 460.712 270.79 458.425 266.216C456.138 261.642 448.133 241.058 405.252 227.908C405.252 227.908 393.245 225.621 393.245 223.906C393.245 222.191 392.101 211.327 389.814 210.756C387.527 210.184 374.377 209.612 374.377 209.612L357.796 214.758L334.926 210.756L323.491 211.899Z" fill="#2F2E41"/>
    <path d="M343.502 307.954L340.643 318.245C340.643 318.245 338.356 334.826 341.215 338.828C343.461 341.972 347.47 345.821 354.905 346.497C356.989 346.688 359.076 346.162 360.82 345.006C362.565 343.85 363.862 342.134 364.499 340.14C364.584 339.901 364.637 339.653 364.657 339.4C364.657 338.256 362.942 324.534 362.942 324.534L360.083 310.241L359.511 306.238L343.502 307.954Z" fill="#2F2E41"/>
    <path d="M426.978 357.124C426.978 357.124 424.119 354.265 423.548 357.124C422.976 359.983 420.689 371.99 424.691 372.562C428.693 373.133 467.001 378.851 471.003 376.564C475.005 374.277 482.438 370.846 477.864 369.131C473.29 367.416 460.14 362.27 460.14 362.27C460.14 362.27 452.707 352.55 451.563 351.978C450.42 351.407 444.131 352.55 441.272 354.837C438.413 357.124 426.978 357.124 426.978 357.124Z" fill="#2F2E41"/>
    <path d="M365.8 123.278C375.589 123.278 383.525 115.342 383.525 105.553C383.525 95.7643 375.589 87.8289 365.8 87.8289C356.012 87.8289 348.076 95.7643 348.076 105.553C348.076 115.342 356.012 123.278 365.8 123.278Z" fill="#FFBFC8"/>
    <path d="M364.085 145.576L357.224 138.143L349.619 123.278C349.619 123.278 344.074 121.562 342.93 124.421C341.787 127.28 321.203 136.428 321.203 136.428C321.203 136.428 326.349 184.455 324.062 189.029C321.775 193.603 317.773 211.899 321.203 213.614C324.634 215.33 340.643 213.614 345.789 215.901C350.935 218.188 365.8 218.188 369.802 215.33C373.805 212.471 374.948 210.184 378.95 211.899C382.358 213.359 390.323 163.437 392.616 148.56C392.809 147.31 392.649 146.032 392.153 144.869C391.657 143.706 390.846 142.705 389.81 141.979C384.68 138.381 375.44 132.18 373.805 132.997C371.518 134.141 364.085 145.576 364.085 145.576Z" fill="#575A89"/>
    <path d="M388.671 143.289C390.014 143.625 391.221 144.363 392.132 145.405C393.043 146.447 393.613 147.743 393.766 149.118L398.391 190.744C398.391 190.744 386.956 215.33 381.238 198.749C375.521 182.168 388.671 143.289 388.671 143.289Z" fill="#575A89"/>
    <path d="M387.527 194.747L400.106 191.316C400.106 191.316 402.393 207.325 404.68 207.325C406.967 207.325 396.675 216.473 391.529 215.33C386.384 214.186 378.951 210.184 378.379 207.325C377.807 204.466 383.525 192.46 383.525 192.46L387.527 194.747Z" fill="#575A89"/>
    <path d="M352.42 113.199C353.626 110.542 353.416 107.442 354.413 104.699C354.946 103.231 355.812 101.905 356.943 100.827C358.073 99.7482 359.438 98.9457 360.93 98.4817C362.422 98.0178 364.001 97.9051 365.544 98.1525C367.086 98.3998 368.551 99.0005 369.823 99.9076C371.105 100.821 372.39 102.105 373.955 101.931C375.639 101.743 377.142 99.8636 378.691 100.552C380.408 101.316 379.944 104.393 381.684 105.103C382.599 105.477 383.681 104.902 384.209 104.065C384.671 103.187 384.923 102.213 384.944 101.22C385.184 98.7816 385.401 96.2007 384.344 93.9904C383.899 93.2412 383.511 92.4595 383.184 91.6519C382.999 90.8978 382.925 90.1208 382.963 89.3453C382.954 86.479 382.745 83.4893 381.302 81.0124C379.701 78.264 376.743 76.5065 373.656 75.7396C370.569 74.9727 367.335 75.0903 364.166 75.3586C358.927 75.8021 353.463 76.7529 349.335 80.0098C348.774 80.4197 348.292 80.927 347.91 81.5075C347.548 82.1972 347.292 82.9377 347.151 83.7039C346.258 87.338 344.92 90.848 343.167 94.1539C342.323 95.5554 341.634 97.044 341.111 98.5938C340.673 100.169 340.703 101.963 341.619 103.317C342.365 104.419 343.558 105.006 344.495 105.907C345.423 106.8 345.858 108.517 346.886 109.193C347.784 109.783 348.859 109.367 349.775 109.992C350.951 110.795 351.036 112.556 352.42 113.199Z" fill="#2F2E41"/>
    <path d="M366.944 154.152L368.66 150.722C368.66 150.722 393.817 158.154 398.962 165.015C398.962 165.015 411.541 157.011 418.402 158.154L425.263 159.298L404.108 178.166L377.236 175.879L366.944 154.152Z" fill="#F2F2F2"/>
    <path d="M365.8 150.722L342.358 183.312L376.092 199.892C376.092 199.892 379.245 201.608 381.671 199.892L404.108 189.601L425.263 159.298L404.108 170.161C404.108 170.161 401.821 165.587 397.247 167.874L365.8 150.722Z" fill="#FCA95C"/>
    <path d="M401.821 208.469L406.395 196.462C406.395 196.462 416.686 183.312 410.969 177.022C405.251 170.733 398.962 195.318 398.962 195.318L401.821 208.469Z" fill="#FFBFC8"/>
    <path d="M349.047 206.553L359.028 198.461C359.028 198.461 374.528 192.249 372.737 183.94C370.947 175.631 353.172 193.743 353.172 193.743L349.047 206.553Z" fill="#FFBFC8"/>
    <path opacity="0.1" d="M324.348 148.721H323.777C323.777 148.721 314.914 138.143 313.199 152.437C311.484 166.731 305.766 214.186 320.632 215.901C335.498 217.617 346.075 208.755 346.075 208.755C346.075 208.755 356.938 192.174 352.936 192.174C350.999 192.174 345.733 191.304 340.929 191.602C335.805 191.92 331.2 193.363 331.495 191.888C332.067 189.029 340.357 152.723 324.348 148.721Z" fill="black"/>
    <path d="M323.491 137.571L321.204 136.428C321.204 136.428 312.056 138.143 310.341 152.437C308.626 166.731 302.908 214.186 317.774 215.901C332.639 217.617 352.65 213.614 352.65 213.614C352.65 213.614 356.653 191.888 352.65 191.888C348.648 191.888 328.065 194.747 328.637 191.888C329.209 189.029 339.5 141.574 323.491 137.571Z" fill="#575A89"/>
    <path d="M393.53 201.894L399.835 192.231L403.822 208.183L393.53 212.757V201.894Z" fill="#575A89"/>
    <path d="M264.013 64.1012C272.539 64.1012 279.451 57.1897 279.451 48.6639C279.451 40.1381 272.539 33.2266 264.013 33.2266C255.488 33.2266 248.576 40.1381 248.576 48.6639C248.576 57.1897 255.488 64.1012 264.013 64.1012Z" fill="#E1E8F6"/>
    <path d="M282.31 163.586H245.718V200.178H282.31V163.586Z" fill="#E1E8F6"/>
    <path d="M412.97 0L422.232 16.0417L431.493 32.0833H412.97H394.447L403.709 16.0417L412.97 0Z" fill="#E1E8F6"/>
    <path d="M519.531 94.5635C519.309 101.408 517.643 106.893 514.531 111.021C511.418 115.148 507.721 117.212 503.438 117.213C499.949 117.213 496.892 115.193 494.266 111.153C491.638 107.113 490.325 100.899 490.325 92.5105C490.325 90.6562 490.369 88.8902 490.458 87.2124C490.546 85.535 490.656 83.9456 490.789 82.4442L493.107 60.6558H477.808C475.159 88.2058 472.985 104.597 471.285 109.829C469.585 115.06 466.704 117.676 462.643 117.676C460.809 117.631 459.06 116.898 457.742 115.623C456.978 114.946 456.373 114.108 455.972 113.169C455.572 112.23 455.384 111.213 455.424 110.193C455.424 108.163 457.024 105.326 460.225 101.683C463.426 98.0403 465.203 94.718 465.556 91.7158L469.53 60.6558H463.106C461.295 60.6666 459.513 61.1093 457.908 61.9471C456.43 62.6259 455.144 63.6614 454.166 64.9604L451.318 69.1989H449C451.163 62.4884 453.823 57.4441 456.98 54.0663C460.136 50.6887 463.768 49 467.874 49H518.471V60.6558H501.385C500.855 65.9539 500.447 71.2519 500.16 76.5499C499.872 81.848 499.729 87.1682 499.729 92.5105C499.729 96.1312 500.568 99.0672 502.246 101.319C503.923 103.57 506.02 104.696 508.537 104.696C510.082 104.696 511.705 104.067 513.405 102.808C514.212 102.242 514.888 101.508 515.385 100.657C515.882 99.8051 516.189 98.8561 516.286 97.8748C516.418 96.9041 516.518 96.1425 516.584 95.59C516.65 95.0384 516.683 94.6963 516.683 94.5635L519.531 94.5635Z" fill="#FCA95C"/>
    <path d="M25.9649 339.277C30.7836 352.402 47.2888 360.531 47.2888 360.531C47.2888 360.531 55.9812 347.379 51.1625 334.254C46.3439 321.129 29.8387 313 29.8387 313C29.8387 313 21.1462 326.151 25.9649 339.277Z" fill="#8985A8"/>
    <path d="M33.0456 336.456C46.2682 345.94 47.8832 360.52 47.8832 360.52C47.8832 360.52 28.0602 359.722 14.8376 350.238C1.61504 340.754 0 326.174 0 326.174C0 326.174 19.823 326.972 33.0456 336.456Z" fill="#3F3D56"/>
    <path d="M231.357 360H17V361H231.357V360Z" fill="#3F3D56"/>
    <path d="M175.429 336.443L191.548 327.137L182.242 311.018L166.123 320.324L175.429 336.443Z" fill="#D0CDE1"/>
    <path d="M154.676 133.187L119.313 134.065L114.553 91.8984H154.676V133.187Z" fill="#2F2E41"/>
    <path d="M117.243 187.848L104.334 277.344C104.334 277.344 93.1474 309.184 92.2869 324.674L88.8447 347.048L104.334 350.49L120.685 287.671L143.059 230.875L140.477 296.276L135.314 349.63L150.804 352.211L160.269 284.229L170.596 234.317C170.596 234.317 178.341 191.291 166.293 186.988L117.243 187.848Z" fill="#2F2E41"/>
    <path d="M103.298 341.556L101.576 362.501C101.576 362.501 120.009 373.158 114.095 375.224C108.18 377.289 100.085 374.632 98.4293 374.162C96.6807 373.666 93.4162 372.876 90.946 372.291C89.8027 372.029 88.7733 371.408 88.0088 370.518C87.2443 369.629 86.7849 368.518 86.6979 367.348C86.6963 367.322 86.6947 367.297 86.6932 367.271C86.5443 364.694 92.3591 342.296 92.3591 342.296L103.298 341.556Z" fill="#2F2E41"/>
    <path d="M148.062 342.08L149.513 362.108C149.513 362.108 170.504 369.906 165.093 373.064C159.682 376.222 151.228 375.16 149.513 375.016C146.351 374.749 138.482 374.484 138.482 374.484C138.482 374.484 137.027 375.743 136.389 373.242C135.75 370.741 137.24 348.396 137.24 348.396L148.062 342.08Z" fill="#2F2E41"/>
    <path d="M135.314 115.563C144.344 115.563 151.664 108.243 151.664 99.213C151.664 90.183 144.344 82.8628 135.314 82.8628C126.284 82.8628 118.964 90.183 118.964 99.213C118.964 108.243 126.284 115.563 135.314 115.563Z" fill="#FFB8B8"/>
    <path d="M125.848 108.679L122.405 127.611L137.035 134.495L140.477 110.4L125.848 108.679Z" fill="#FFB8B8"/>
    <path d="M135.314 129.332L133.593 122.448L123.267 117.284L119.825 121.587L108.638 125.029L121.546 193.872C121.546 193.872 165.433 196.454 166.294 189.57C167.154 182.685 157.688 163.753 157.688 163.753C157.688 163.753 160.27 154.287 159.41 149.124L155.967 128.471L142.199 124.169L139.054 120.364L136.175 125.029L135.314 129.332Z" fill="#D0CDE1"/>
    <path d="M116.271 98.0481C128.506 93.1446 140.567 92.0986 152.314 98.0481V88.1644C152.314 87.319 152.147 86.482 151.824 85.7009C151.5 84.9199 151.026 84.2103 150.428 83.6125C149.831 83.0147 149.121 82.5406 148.34 82.2171C147.559 81.8936 146.722 81.7271 145.877 81.7271H121.357C120.008 81.7271 118.715 82.2629 117.761 83.2166C116.807 84.1703 116.271 85.4639 116.271 86.8126V98.0481Z" fill="#2F2E41"/>
    <path d="M153.666 260.154L188.242 240.191L168.279 205.615L133.703 225.577L153.666 260.154Z" fill="#F9A826"/>
    <path d="M124.127 198.175L142.198 211.083C142.198 211.083 149.943 230.875 155.967 227.433C161.991 223.991 149.083 206.78 149.083 206.78L134.453 192.151L124.127 198.175Z" fill="#FFB8B8"/>
    <path d="M175.759 192.151L177.48 202.478C177.48 202.478 173.177 223.991 168.014 219.688C162.851 215.386 169.735 201.617 169.735 201.617L168.875 193.012L175.759 192.151Z" fill="#FFB8B8"/>
    <path d="M111.218 126.75L108.637 125.029C108.637 125.029 103.473 125.89 101.752 132.774C100.031 139.658 101.752 170.638 106.055 176.661C110.358 182.685 122.405 200.757 122.405 200.757L138.755 193.012L121.545 173.219L117.242 148.264L111.218 126.75Z" fill="#D0CDE1"/>
    <path d="M149.082 130.192L155.966 128.471C155.966 128.471 160.269 130.192 161.99 136.216C163.711 142.24 173.177 172.359 172.317 174.94C171.456 177.522 180.061 194.733 180.061 194.733L168.014 195.593L161.13 177.522L154.245 159.451L149.082 130.192Z" fill="#D0CDE1"/>
    <path d="M106.976 114.74C110.424 112.847 112.029 108.597 112.143 104.665C112.258 100.732 111.304 96.8408 111.229 92.9077C111.191 92.103 111.259 91.2968 111.433 90.5102C111.719 89.5339 112.165 88.6115 112.752 87.7807C117.236 80.9099 125.03 76.0768 133.24 76.0008C134.426 75.9852 135.604 76.2017 136.707 76.6381C137.556 76.9781 137.834 76.9365 137.996 77.9787C139.941 77.3371 142.05 77.4042 143.95 78.168C145.832 78.9332 147.588 79.9787 149.157 81.269C150.09 81.9626 150.97 82.7244 151.79 83.5483C156.129 88.0431 157.128 94.9705 155.871 101.09C155.462 103.08 157.423 105 159.045 106.222C160.667 107.444 162.541 108.566 163.338 110.435C164.104 112.232 163.683 114.287 163.837 116.235C164.01 118.076 164.695 119.832 165.813 121.305C166.931 122.778 168.439 123.909 170.166 124.57C169.814 124.992 169.354 125.311 168.836 125.493C168.317 125.675 167.759 125.714 167.22 125.606C166.096 125.369 165.044 124.868 164.151 124.145C160.793 121.656 158.39 118.091 157.344 114.045C156.867 116.212 157.052 118.448 157.07 120.667C157.028 123.143 157.484 125.602 158.411 127.899C159.354 130.207 161.08 132.108 163.287 133.268C161.159 134.31 158.814 133.555 157.01 132.018C155.207 130.481 154.142 128.249 153.398 125.999C152.188 122.333 151.697 118.468 151.953 114.615C149.973 117.948 149.25 121.878 149.913 125.697C150.605 129.591 152.638 133.12 155.66 135.672C150.392 135.627 145.212 134.323 140.552 131.867C139.348 131.322 138.287 130.505 137.453 129.481C135.953 127.4 136.308 124.563 136.729 122.033C137.061 120.033 134.562 117.141 135.993 115.705C136.418 115.285 136.986 115.04 137.584 115.021C141.944 114.601 145.982 112.411 148.309 108.7C149.94 106.1 151.02 103.13 151.02 100.352C151.019 98.1653 150.545 96.0044 149.632 94.0172C148.719 92.03 147.388 90.2634 145.729 88.8381C144.07 87.4129 142.123 86.3626 140.021 85.7591C137.919 85.1555 135.712 85.013 133.549 85.3412C131.387 85.6694 129.321 86.4605 127.493 87.6606C125.665 88.8607 124.117 90.4414 122.956 92.2946C121.795 94.1479 121.048 96.23 120.765 98.3986C120.483 100.567 120.672 102.771 121.32 104.86C121.836 106.541 122.206 108.263 122.426 110.008C122.685 112.033 123.097 114.035 123.659 115.997C124.742 119.768 126.577 123.616 129.972 125.583C128.831 126.207 127.51 126.235 126.218 126.378C121.958 126.847 117.477 126.743 113.622 124.873C109.766 123.001 106.701 119.017 106.976 114.74Z" fill="#2F2E41"/>
    <path d="M120.078 104.169C121.074 104.169 121.881 102.877 121.881 101.283C121.881 99.69 121.074 98.3983 120.078 98.3983C119.082 98.3983 118.274 99.69 118.274 101.283C118.274 102.877 119.082 104.169 120.078 104.169Z" fill="#FFB8B8"/>
    <path d="M53.3068 244.425L69.4258 235.119L60.1195 219L44.0005 228.306L53.3068 244.425Z" fill="#1B998B" fill-opacity="0.4"/>
</svg>
