<svg class="standing-girl" width="458" height="455" viewBox="0 0 458 455" fill="none" xmlns="http://www.w3.org/2000/svg">
    <g clip-path="url(#clip0)">
        <path d="M310.375 122.313C315.866 125.211 321.234 128.178 326.479 131.211" stroke="#2F2E41" stroke-miterlimit="10"/>
        <path d="M208.181 104.352C232.134 109.531 258.285 118.472 284.63 131.091C303.711 140.17 321.969 150.886 339.2 163.119" stroke="#2F2E41" stroke-miterlimit="10"/>
        <path d="M128.452 453.87H374.056" stroke="#3F3D56" stroke-miterlimit="10"/>
        <path d="M185.768 100.518C192.966 101.403 200.459 102.682 208.181 104.352" stroke="#2F2E41" stroke-miterlimit="10"/>
        <path d="M115.327 175.62C102.029 156.159 97.4609 137.772 104.293 123.508C111.85 107.731 132.079 99.6606 159.499 99.0662" stroke="#2F2E41" stroke-miterlimit="10"/>
        <path d="M395.366 219.087C406.45 236.931 409.889 253.659 403.567 266.858C398.003 278.473 385.572 285.911 368.459 289.264" stroke="#2F2E41" stroke-miterlimit="10"/>
        <path d="M339.2 163.119C350.308 170.997 360.808 179.7 370.61 189.153" stroke="#2F2E41" stroke-miterlimit="10"/>
        <path d="M107.965 76.2589C130.038 71.5167 158.603 72.3597 190.55 78.6571" stroke="#2F2E41" stroke-miterlimit="10"/>
        <path d="M429.237 219.085C439.119 233.521 445.197 247.49 446.785 260.211" stroke="#2F2E41" stroke-miterlimit="10"/>
        <path d="M326.478 131.211C336.391 136.942 345.821 142.87 354.771 148.994" stroke="#2F2E41" stroke-miterlimit="10"/>
        <path d="M340.683 343.828C338.148 343.972 335.703 344.818 333.622 346.273C331.541 347.728 329.907 349.734 328.902 352.065C325.956 359.186 329.749 367.55 335.443 372.743C341.137 377.935 348.451 380.903 355.096 384.804C364.022 390.044 372.043 397.318 376.509 406.655C380.975 415.993 381.45 427.559 376.201 436.479C371.328 444.758 362.468 449.713 354.018 454.283" stroke="#3F3D56" stroke-miterlimit="10"/>
        <path d="M348.188 349.503C353.935 349.503 358.595 347.24 358.595 344.448C358.595 341.657 353.935 339.394 348.188 339.394C342.44 339.394 337.781 341.657 337.781 344.448C337.781 347.24 342.44 349.503 348.188 349.503Z" fill="#1B998B"/>
        <path d="M356.513 382.806C362.261 382.806 366.92 380.542 366.92 377.751C366.92 374.959 362.261 372.696 356.513 372.696C350.766 372.696 346.106 374.959 346.106 377.751C346.106 380.542 350.766 382.806 356.513 382.806Z" fill="#1B998B"/>
        <path d="M337.483 388.158C343.231 388.158 347.89 385.895 347.89 383.103C347.89 380.311 343.231 378.048 337.483 378.048C331.736 378.048 327.076 380.311 327.076 383.103C327.076 385.895 331.736 388.158 337.483 388.158Z" fill="#1B998B"/>
        <path d="M367.218 416.108C372.965 416.108 377.625 413.845 377.625 411.053C377.625 408.261 372.965 405.998 367.218 405.998C361.47 405.998 356.811 408.261 356.811 411.053C356.811 413.845 361.47 416.108 367.218 416.108Z" fill="#1B998B"/>
        <path d="M388.031 416.108C393.779 416.108 398.438 413.845 398.438 411.053C398.438 408.261 393.779 405.998 388.031 405.998C382.284 405.998 377.624 408.261 377.624 411.053C377.624 413.845 382.284 416.108 388.031 416.108Z" fill="#1B998B"/>
        <path d="M284.914 147.541H290.776C290.776 147.541 296.151 189.069 292.242 192.977C288.334 196.886 277.585 199.329 276.12 192.977C274.654 186.626 276.12 163.175 276.12 163.175L284.914 147.541Z" fill="#FCA95C"/>
        <path d="M246.562 153.16C266.259 153.16 282.227 134.458 282.227 111.387C282.227 88.3174 266.259 69.6154 246.562 69.6154C226.864 69.6154 210.897 88.3174 210.897 111.387C210.897 134.458 226.864 153.16 246.562 153.16Z" fill="#2F2E41"/>
        <path d="M238.5 119.205C238.5 119.205 240.454 135.327 234.592 138.747C228.729 142.167 241.432 161.71 241.432 161.71L256.577 165.618L266.837 151.45L264.883 136.793C264.883 136.793 253.157 125.067 258.531 114.319L238.5 119.205Z" fill="#FFC1C7"/>
        <path opacity="0.1" d="M238.5 119.205C238.5 119.205 240.454 135.327 234.592 138.747C228.729 142.167 241.432 161.71 241.432 161.71L256.577 165.618L266.837 151.45L264.883 136.793C264.883 136.793 253.157 125.067 258.531 114.319L238.5 119.205Z" fill="black"/>
        <path d="M216.515 294.218C216.515 294.218 210.652 347.471 216.515 360.174C222.378 372.876 238.012 408.541 238.012 408.541L233.126 418.801L246.317 415.87L251.691 405.61C251.691 405.61 245.34 380.693 244.363 371.899C243.386 363.105 236.057 346.982 236.057 346.982L249.737 288.843L216.515 294.218Z" fill="#FFC1C7"/>
        <path d="M262.928 285.316C262.928 285.316 263.417 339.058 266.837 347.394L264.883 420.19L275.631 421.625C275.631 421.625 291.265 360.555 288.822 345.898C286.379 331.241 289.311 278.476 289.311 278.476L262.928 285.316Z" fill="#FFC1C7"/>
        <path d="M246.561 125.8C256.815 125.8 265.127 117.488 265.127 107.235C265.127 96.9813 256.815 88.6693 246.561 88.6693C236.308 88.6693 227.996 96.9813 227.996 107.235C227.996 117.488 236.308 125.8 246.561 125.8Z" fill="#FFC1C7"/>
        <path d="M309.83 292.156C309.83 292.156 296.639 300.95 291.265 294.598C285.891 288.247 219.935 298.507 211.629 296.553C203.324 294.598 216.026 263.33 216.026 247.208C216.026 235.145 220.404 216.795 222.607 208.313C223.35 205.46 223.843 203.726 223.843 203.726C223.843 203.726 228.856 189.465 227.918 183.538C227.855 183.089 227.731 182.65 227.552 182.234C227.473 182.06 227.377 181.894 227.263 181.74C224.923 178.619 218.215 155.852 215.611 146.075C215.186 144.629 214.836 143.161 214.561 141.678C214.561 140.213 232.638 135.816 237.157 135.605C241.681 135.395 242.897 141.678 242.897 141.678C244.363 142.655 251.203 159.755 251.203 159.755L257.554 143.633C257.554 143.633 257.066 140.213 256.577 140.213C256.089 140.213 263.803 135.601 263.803 135.601C263.803 135.601 271.723 141.19 276.12 140.213C280.517 139.236 290.777 148.03 290.777 148.03C290.777 148.03 272.7 193.466 280.028 203.237C287.357 213.008 309.83 292.156 309.83 292.156Z" fill="#FCA95C"/>
        <path d="M250.226 403.656C250.226 403.656 241.92 411.961 241.92 412.939L235.08 410.007C235.08 410.007 232.149 420.756 231.66 422.221C231.172 423.687 222.866 436.878 214.56 442.741C206.255 448.604 214.56 455.932 221.889 454.466C229.217 453.001 247.783 436.39 247.783 436.39C247.783 436.39 260.485 436.39 264.882 426.618C264.882 426.618 253.157 402.679 250.226 403.656Z" fill="#2F2E41"/>
        <path d="M274.654 417.747C274.654 417.747 262.103 408.628 261.294 417.096C260.486 425.564 260.486 444.13 260.486 444.13C260.486 444.13 256.577 456.344 268.791 454.878C281.005 453.412 281.982 449.992 281.982 449.992L276.12 426.541V416.282L274.654 417.747Z" fill="#2F2E41"/>
        <path opacity="0.1" d="M227.264 181.741C224.923 178.619 218.215 155.852 215.611 146.075H217.981C217.981 146.075 223.932 169.365 227.552 182.234C227.474 182.06 227.377 181.894 227.264 181.741Z" fill="black"/>
        <path opacity="0.1" d="M259.508 213.986C259.508 213.986 252.668 214.474 227.752 209.589C226.015 209.255 224.298 208.83 222.607 208.313C223.35 205.46 223.843 203.726 223.843 203.726C223.843 203.726 228.856 189.465 227.918 183.538C229.086 187.642 229.955 190.413 230.195 190.535C231.172 191.023 262.44 196.397 266.837 198.352C271.234 200.306 259.508 213.986 259.508 213.986Z" fill="black"/>
        <path opacity="0.1" d="M268.303 150.043C268.303 150.043 281.778 148.38 282.613 150.565C283.448 152.75 286.868 173.867 288.334 176.574C289.799 179.281 290.288 196.066 284.425 196.607C278.562 197.149 270.745 191.193 272.211 186.32C273.677 181.447 268.303 150.043 268.303 150.043Z" fill="black"/>
        <path d="M261.463 194.932C261.463 194.932 281.982 197.374 285.402 194.932C288.822 192.489 302.99 192.489 300.059 199.329C297.128 206.169 271.722 206.657 271.722 206.657H257.065L261.463 194.932Z" fill="#FFC1C7"/>
        <path d="M217.98 142.656H214.561C214.561 142.656 207.721 144.121 208.698 165.618C209.675 187.115 202.835 201.283 227.752 206.169C252.668 211.054 259.508 210.566 259.508 210.566C259.508 210.566 271.234 196.886 266.837 194.932C262.44 192.977 231.172 187.603 230.194 187.115C229.217 186.626 217.98 142.656 217.98 142.656Z" fill="#FCA95C"/>
        <path d="M282.238 152.299C282.238 152.299 273.677 120.182 266.837 120.182C259.997 120.182 252.18 121.647 258.043 127.999C263.906 134.35 271.234 141.19 271.723 144.61C272.211 148.03 274.165 152.915 274.165 152.915L282.238 152.299Z" fill="#FFC1C7"/>
        <path d="M270.257 150.043C270.257 150.043 283.732 148.38 284.567 150.565C285.402 152.75 288.822 173.867 290.288 176.574C291.754 179.281 292.242 196.066 286.379 196.607C280.517 197.149 272.7 191.193 274.165 186.32C275.631 181.447 270.257 150.043 270.257 150.043Z" fill="#FCA95C"/>
        <path d="M241.676 107.235C251.39 107.235 259.264 99.3601 259.264 89.6464C259.264 79.9326 251.39 72.0581 241.676 72.0581C231.962 72.0581 224.088 79.9326 224.088 89.6464C224.088 99.3601 231.962 107.235 241.676 107.235Z" fill="#2F2E41"/>
        <path d="M312.55 288.471C285.256 283.973 254.379 274.194 223.231 259.274C187.766 242.287 157.714 221.395 136.3 200.281" stroke="#2F2E41" stroke-miterlimit="10"/>
        <path d="M201.886 268.463C177.468 255.813 155.361 241.748 136.299 227.105" stroke="#2F2E41" stroke-miterlimit="10"/>
        <path d="M29.2742 70.7476C45.4419 70.7476 58.5484 57.641 58.5484 41.4733C58.5484 25.3056 45.4419 12.1991 29.2742 12.1991C13.1065 12.1991 0 25.3056 0 41.4733C0 57.641 13.1065 70.7476 29.2742 70.7476Z" fill="#FCA95C"/>
        <path d="M36.1412 58.821C52.3089 58.821 65.4155 45.7145 65.4155 29.5468C65.4155 13.3791 52.3089 0.272583 36.1412 0.272583C19.9735 0.272583 6.867 13.3791 6.867 29.5468C6.867 45.7145 19.9735 58.821 36.1412 58.821Z" stroke="#2F2E41" stroke-miterlimit="10"/>
        <path d="M436.285 164.244C445.691 164.244 453.317 156.619 453.317 147.212C453.317 137.805 445.691 130.18 436.285 130.18C426.878 130.18 419.252 137.805 419.252 147.212C419.252 156.619 426.878 164.244 436.285 164.244Z" fill="#F2F2F2"/>
        <path d="M440.28 157.305C449.686 157.305 457.312 149.68 457.312 140.273C457.312 130.866 449.686 123.241 440.28 123.241C430.873 123.241 423.247 130.866 423.247 140.273C423.247 149.68 430.873 157.305 440.28 157.305Z" stroke="#2F2E41" stroke-miterlimit="10"/>
        <path d="M125.58 349.24C139.102 349.24 150.064 338.279 150.064 324.756C150.064 311.234 139.102 300.273 125.58 300.273C112.058 300.273 101.096 311.234 101.096 324.756C101.096 338.279 112.058 349.24 125.58 349.24Z" fill="#F2F2F2"/>
        <path d="M131.323 339.265C144.845 339.265 155.807 328.304 155.807 314.782C155.807 301.259 144.845 290.298 131.323 290.298C117.801 290.298 106.839 301.259 106.839 314.782C106.839 328.304 117.801 339.265 131.323 339.265Z" stroke="#2F2E41" stroke-miterlimit="10"/>
    </g>
    <defs>
        <clipPath id="clip0">
            <rect width="457.585" height="455" fill="white"/>
        </clipPath>
    </defs>
</svg>
