<svg xmlns="http://www.w3.org/2000/svg" viewBox="0 0 1920 1080" fill="none">
   <path class="primary" d="M600.87 872H156C154.944 872.057 153.953 872.53 153.245 873.315C152.536 874.1 152.168 875.134 152.22 876.19V876.19C152.168 877.246 152.536 878.28 153.245 879.065C153.953 879.85 154.944 880.323 156 880.38H600.87C601.926 880.323 602.916 879.85 603.624 879.065C604.333 878.28 604.701 877.246 604.65 876.19C604.701 875.134 604.333 874.1 603.624 873.315C602.916 872.53 601.926 872.057 600.87 872Z" fill="#FCA95C" />
   <path class="primary" d="M1190.1 871.98H685.099C682.785 871.98 680.909 873.856 680.909 876.17V876.18C680.909 878.494 682.785 880.37 685.099 880.37H1190.1C1192.41 880.37 1194.29 878.494 1194.29 876.18V876.17C1194.29 873.856 1192.41 871.98 1190.1 871.98Z" fill="#FCA95C" />
   <path class="primary" d="M1480 876.17C1480 878.49 1482.37 880.36 1485.3 880.36H1835.91C1838.84 880.36 1841.21 878.48 1841.21 876.17C1841.21 873.85 1838.84 871.98 1835.91 871.98H1485.26C1482.33 872 1480 873.86 1480 876.17Z" fill="#FCA95C" />
   <path class="primary" d="M737.82 920.64H496.4C494.086 920.64 492.21 922.516 492.21 924.83V924.84C492.21 927.154 494.086 929.03 496.4 929.03H737.82C740.134 929.03 742.01 927.154 742.01 924.84V924.83C742.01 922.516 740.134 920.64 737.82 920.64Z" fill="#FCA95C" />
   <path class="primary" d="M1549.14 924.84C1549.14 923.729 1548.7 922.663 1547.91 921.877C1547.13 921.091 1546.06 920.65 1544.95 920.65H1067.46C1067.69 921.704 1067.81 922.78 1067.81 923.86V924.86C1067.82 925.963 1068.27 927.016 1069.05 927.791C1069.84 928.566 1070.9 929 1072 929H1544.94C1546.05 929.003 1547.11 928.567 1547.9 927.787C1548.69 927.007 1549.13 925.948 1549.14 924.84V924.84Z" fill="#FCA95C" />
   <path class="primary" d="M865.5 924.84C865.5 925.951 865.941 927.017 866.727 927.803C867.513 928.589 868.579 929.03 869.69 929.03H952.06C951.942 928.37 951.879 927.701 951.87 927.03V924.86C951.87 924.31 951.762 923.765 951.551 923.256C951.34 922.748 951.032 922.286 950.643 921.897C950.254 921.508 949.792 921.199 949.283 920.989C948.775 920.778 948.23 920.67 947.68 920.67H869.68C868.574 920.673 867.514 921.112 866.731 921.894C865.948 922.675 865.505 923.734 865.5 924.84V924.84Z" fill="#FCA95C" />
   <path class="primary" d="M966.13 981.47H919.79C917.476 981.47 915.6 983.346 915.6 985.66V985.67C915.6 987.984 917.476 989.86 919.79 989.86H966.13C968.444 989.86 970.32 987.984 970.32 985.67V985.66C970.32 983.346 968.444 981.47 966.13 981.47Z" fill="#FCA95C" />
   <path class="primary" d="M730.33 985.67C730.33 987.99 734.56 989.86 739.77 989.86H844.07C849.29 989.86 853.51 987.98 853.51 985.67C853.51 983.35 849.28 981.48 844.07 981.48H739.78C734.56 981.47 730.33 983.35 730.33 985.67Z" fill="#FCA95C" />
   <path class="primary" d="M1070.98 981.47H1001.25C998.935 981.47 997.06 983.346 997.06 985.66V985.67C997.06 987.984 998.935 989.86 1001.25 989.86H1070.98C1073.29 989.86 1075.17 987.984 1075.17 985.67V985.66C1075.17 983.346 1073.29 981.47 1070.98 981.47Z" fill="#FCA95C" />
   <path class="primary-l" d="M536.41 155.14C532.895 155.14 529.459 156.182 526.537 158.135C523.615 160.087 521.337 162.863 519.992 166.11C518.647 169.357 518.295 172.93 518.981 176.377C519.667 179.824 521.359 182.99 523.844 185.475C526.33 187.96 529.496 189.653 532.943 190.339C536.39 191.024 539.963 190.672 543.21 189.327C546.457 187.982 549.232 185.705 551.185 182.783C553.137 179.86 554.18 176.425 554.18 172.91C554.18 168.197 552.307 163.677 548.975 160.345C545.642 157.012 541.123 155.14 536.41 155.14ZM536.41 183.82C534.254 183.82 532.146 183.181 530.354 181.983C528.561 180.785 527.164 179.083 526.339 177.091C525.514 175.1 525.298 172.908 525.719 170.794C526.14 168.679 527.178 166.737 528.702 165.213C530.227 163.688 532.169 162.65 534.283 162.229C536.398 161.809 538.589 162.025 540.581 162.85C542.573 163.675 544.275 165.072 545.473 166.864C546.67 168.657 547.31 170.764 547.31 172.92C547.307 175.809 546.157 178.579 544.114 180.621C542.07 182.663 539.299 183.81 536.41 183.81V183.82Z" fill="#1B998B" />
   <path class="primary-l" d="M1345.09 82.44C1341.57 82.44 1338.14 83.4822 1335.22 85.4348C1332.29 87.3874 1330.02 90.1627 1328.67 93.4097C1327.33 96.6568 1326.98 100.23 1327.66 103.677C1328.35 107.124 1330.04 110.29 1332.52 112.775C1335.01 115.26 1338.18 116.953 1341.62 117.639C1345.07 118.324 1348.64 117.972 1351.89 116.627C1355.14 115.282 1357.91 113.005 1359.86 110.082C1361.82 107.16 1362.86 103.725 1362.86 100.21C1362.86 95.4971 1360.99 90.9772 1357.65 87.6447C1354.32 84.3122 1349.8 82.44 1345.09 82.44ZM1345.09 111.12C1342.93 111.12 1340.83 110.481 1339.03 109.283C1337.24 108.085 1335.84 106.383 1335.02 104.391C1334.19 102.4 1333.98 100.208 1334.4 98.0935C1334.82 95.9791 1335.86 94.0369 1337.38 92.5125C1338.91 90.9881 1340.85 89.95 1342.96 89.5294C1345.08 89.1089 1347.27 89.3247 1349.26 90.1497C1351.25 90.9747 1352.95 92.3718 1354.15 94.1643C1355.35 95.9568 1355.99 98.0642 1355.99 100.22C1355.99 101.651 1355.71 103.069 1355.16 104.391C1354.61 105.714 1353.81 106.915 1352.8 107.927C1351.78 108.94 1350.58 109.743 1349.26 110.29C1347.94 110.838 1346.52 111.12 1345.09 111.12V111.12Z" fill="#1B998B" />
   <path class="primary-l" d="M70.1196 363C66.6063 363 63.1718 364.041 60.2502 365.993C57.3286 367.944 55.051 370.718 53.7051 373.963C52.3593 377.208 52.0056 380.78 52.6889 384.226C53.3721 387.672 55.0616 390.838 57.5437 393.325C60.0259 395.811 63.1894 397.506 66.6345 398.195C70.0796 398.884 73.6516 398.536 76.8991 397.196C80.1467 395.856 82.924 393.583 84.8802 390.664C86.8364 387.746 87.8837 384.313 87.8896 380.8C87.8935 378.464 87.4368 376.15 86.5456 373.991C85.6543 371.831 84.346 369.869 82.6955 368.215C81.045 366.562 79.0847 365.25 76.9268 364.356C74.7689 363.461 72.4557 363 70.1196 363V363ZM70.1196 391.68C67.9621 391.684 65.8519 391.048 64.0564 389.851C62.2608 388.655 60.8606 386.953 60.0332 384.961C59.2057 382.968 58.9881 380.775 59.4081 378.658C59.828 376.542 60.8666 374.598 62.3921 373.073C63.9177 371.547 65.8618 370.508 67.978 370.088C70.0943 369.669 72.2876 369.886 74.2801 370.714C76.2726 371.541 77.9748 372.941 79.1709 374.737C80.3671 376.532 81.0035 378.642 80.9996 380.8C80.9996 383.687 79.854 386.457 77.8141 388.5C75.7743 390.544 73.007 391.695 70.1196 391.7V391.68Z" fill="#1B998B" />
   <path class="primary-l" d="M170.469 751.82C166.955 751.82 163.519 752.862 160.597 754.815C157.674 756.767 155.397 759.543 154.052 762.79C152.707 766.037 152.355 769.61 153.041 773.057C153.726 776.504 155.419 779.67 157.904 782.155C160.389 784.641 163.555 786.333 167.002 787.019C170.45 787.704 174.022 787.352 177.27 786.007C180.517 784.662 183.292 782.385 185.244 779.463C187.197 776.54 188.239 773.105 188.239 769.59C188.239 764.877 186.367 760.357 183.035 757.025C179.702 753.692 175.182 751.82 170.469 751.82ZM170.469 780.5C168.313 780.5 166.206 779.861 164.414 778.663C162.621 777.465 161.224 775.763 160.399 773.771C159.574 771.78 159.358 769.588 159.779 767.474C160.199 765.359 161.237 763.417 162.762 761.893C164.286 760.368 166.228 759.33 168.343 758.909C170.457 758.489 172.649 758.705 174.64 759.53C176.632 760.355 178.335 761.752 179.532 763.544C180.73 765.337 181.369 767.444 181.369 769.6C181.369 771.031 181.087 772.449 180.54 773.771C179.992 775.094 179.189 776.295 178.177 777.307C177.165 778.32 175.963 779.123 174.64 779.67C173.318 780.218 171.901 780.5 170.469 780.5V780.5Z" fill="#1B998B" />
   <path class="primary-l" d="M1457.34 762.73C1453.82 762.73 1450.39 763.772 1447.47 765.725C1444.54 767.677 1442.27 770.453 1440.92 773.7C1439.58 776.947 1439.23 780.52 1439.91 783.967C1440.6 787.414 1442.29 790.58 1444.77 793.065C1447.26 795.55 1450.43 797.243 1453.87 797.929C1457.32 798.614 1460.89 798.262 1464.14 796.917C1467.39 795.572 1470.16 793.295 1472.11 790.372C1474.07 787.45 1475.11 784.015 1475.11 780.5C1475.11 775.787 1473.24 771.267 1469.9 767.935C1466.57 764.602 1462.05 762.73 1457.34 762.73ZM1457.34 791.41C1455.18 791.41 1453.08 790.771 1451.28 789.573C1449.49 788.375 1448.09 786.673 1447.27 784.681C1446.44 782.69 1446.23 780.498 1446.65 778.384C1447.07 776.269 1448.11 774.327 1449.63 772.803C1451.16 771.278 1453.1 770.24 1455.21 769.819C1457.33 769.399 1459.52 769.615 1461.51 770.44C1463.5 771.265 1465.2 772.662 1466.4 774.454C1467.6 776.247 1468.24 778.354 1468.24 780.51C1468.24 783.399 1467.09 786.169 1465.04 788.211C1463 790.253 1460.23 791.4 1457.34 791.4V791.41Z" fill="#1B998B" />
   <path class="primary-l" d="M1829.15 407.49C1825.64 407.49 1822.2 408.532 1819.28 410.485C1816.36 412.437 1814.08 415.213 1812.73 418.46C1811.39 421.707 1811.04 425.28 1811.72 428.727C1812.41 432.174 1814.1 435.34 1816.58 437.825C1819.07 440.31 1822.24 442.003 1825.68 442.689C1829.13 443.374 1832.7 443.022 1835.95 441.677C1839.2 440.332 1841.97 438.055 1843.93 435.132C1845.88 432.21 1846.92 428.775 1846.92 425.26C1846.92 420.547 1845.05 416.027 1841.72 412.695C1838.38 409.362 1833.86 407.49 1829.15 407.49V407.49ZM1829.15 436.17C1826.99 436.17 1824.89 435.531 1823.09 434.333C1821.3 433.135 1819.9 431.433 1819.08 429.441C1818.25 427.45 1818.04 425.258 1818.46 423.144C1818.88 421.029 1819.92 419.087 1821.44 417.563C1822.97 416.038 1824.91 415 1827.02 414.579C1829.14 414.159 1831.33 414.375 1833.32 415.2C1835.31 416.025 1837.02 417.422 1838.21 419.214C1839.41 421.007 1840.05 423.114 1840.05 425.27C1840.05 426.701 1839.77 428.119 1839.22 429.441C1838.67 430.764 1837.87 431.965 1836.86 432.977C1835.85 433.99 1834.64 434.793 1833.32 435.34C1832 435.888 1830.58 436.17 1829.15 436.17V436.17Z" fill="#1B998B" />
   <path class="primary" d="M530.25 628.54V622.03C530.25 590.494 504.685 564.93 473.15 564.93H121.06C89.5245 564.93 63.96 590.494 63.96 622.03V628.54C63.96 660.075 89.5245 685.64 121.06 685.64H473.15C504.685 685.64 530.25 660.075 530.25 628.54Z" fill="#1B998B" />
   <path class="primary-l" d="M457.54 536.46C457.54 503.124 430.518 476.1 397.185 476.1C363.852 476.1 336.83 503.124 336.83 536.46V812.62C336.83 845.956 363.852 872.98 397.185 872.98C430.518 872.98 457.54 845.956 457.54 812.62V536.46Z" fill="#FCA95C" />
   <path class="primary-l" d="M448.741 262.635C467.862 235.328 461.227 197.692 433.922 178.573C406.617 159.454 368.982 166.092 349.861 193.399L72.2331 589.893C53.1124 617.2 59.7471 654.836 87.052 673.955C114.357 693.074 151.992 686.437 171.113 659.129L448.741 262.635Z" fill="#FCA95C" />
   <path class="primary" d="M1855.35 629.31V622.8C1855.35 591.264 1829.79 565.7 1798.25 565.7H1446.16C1414.63 565.7 1389.06 591.264 1389.06 622.8V629.31C1389.06 660.845 1414.63 686.41 1446.16 686.41H1798.25C1829.79 686.41 1855.35 660.845 1855.35 629.31Z" fill="#1B998B" />
   <path class="primary-l" d="M1782.63 537.23C1782.63 503.894 1755.61 476.87 1722.27 476.87C1688.94 476.87 1661.92 503.894 1661.92 537.23V813.39C1661.92 846.726 1688.94 873.75 1722.27 873.75C1755.61 873.75 1782.63 846.726 1782.63 813.39V537.23Z" fill="#FCA95C" />
   <path class="primary-l" d="M1773.83 263.406C1792.95 236.099 1786.32 198.463 1759.01 179.344C1731.71 160.225 1694.07 166.863 1674.95 194.17L1397.32 590.664C1378.2 617.971 1384.84 655.607 1412.14 674.726C1439.45 693.845 1477.08 687.208 1496.2 659.9L1773.83 263.406Z" fill="#FCA95C" />
   <path class="primary" d="M959.54 169.2C765.2 169.2 607.65 326.75 607.65 521.09C607.65 715.43 765.19 873 959.54 873C1153.89 873 1311.43 715.45 1311.43 521.11C1311.43 326.77 1153.88 169.2 959.54 169.2ZM959.54 753.69C831.08 753.69 726.94 649.55 726.94 521.09C726.94 392.63 831.08 288.49 959.54 288.49C1088 288.49 1192.14 392.63 1192.14 521.09C1192.14 649.55 1088 753.69 959.54 753.69Z" fill="#FCA95C" />
</svg>
