<svg class="image404" width="920" height="500" viewBox="0 0 920 500" fill="none" xmlns="http://www.w3.org/2000/svg">
    <g clip-path="url(#clip0)">
        <path d="M462.697 500C712.025 500 914.145 486.619 914.145 470.113C914.145 453.607 712.025 440.226 462.697 440.226C213.369 440.226 11.249 453.607 11.249 470.113C11.249 486.619 213.369 500 462.697 500Z" fill="#E1E8F6"/>
        <path d="M445.394 142.931C371.841 142.931 319.03 190.121 319.03 300.23C319.03 425.021 371.841 458.054 445.394 458.054C518.947 458.054 574.903 421.875 574.903 300.23C574.903 170.196 518.947 142.931 445.394 142.931ZM445.877 416.632C394.933 416.632 368.317 386.744 368.317 300.311C368.317 224.047 396.022 183.829 446.967 183.829C497.912 183.829 525.616 210.246 525.616 300.311C525.616 384.565 496.822 416.632 445.877 416.632Z" fill="#2F2E41"/>
        <path d="M274.987 371.015H244.576V281.462C244.576 276.705 242.686 272.143 239.323 268.78C235.959 265.417 231.398 263.527 226.641 263.527H219.515C217.16 263.527 214.828 263.991 212.652 264.892C210.476 265.794 208.499 267.115 206.834 268.78C205.168 270.445 203.847 272.423 202.946 274.599C202.045 276.774 201.581 279.107 201.581 281.462V371.015H115.801C114.037 371.015 112.302 370.559 110.765 369.691C109.229 368.823 107.943 367.572 107.032 366.061C106.121 364.55 105.616 362.828 105.567 361.064C105.517 359.301 105.924 357.554 106.749 355.993L197.537 184.16C198.669 182.018 199.355 179.669 199.553 177.254C199.752 174.839 199.46 172.409 198.693 170.11C197.927 167.812 196.703 165.692 195.095 163.88C193.487 162.067 191.528 160.6 189.337 159.565L183.978 157.034C179.817 155.069 175.059 154.779 170.689 156.224C166.32 157.668 162.673 160.738 160.503 164.796L49.7753 371.934C47.8898 375.461 46.9033 379.399 46.9033 383.399C46.9033 386.592 47.5323 389.755 48.7545 392.705C49.9766 395.656 51.768 398.337 54.0262 400.595C56.2844 402.853 58.9653 404.645 61.9158 405.867C64.8664 407.089 68.0287 407.718 71.2223 407.718H201.581V464.346C201.581 467.169 202.137 469.964 203.217 472.572C204.297 475.18 205.881 477.55 207.877 479.547C209.873 481.543 212.243 483.126 214.851 484.207C217.46 485.287 220.255 485.843 223.078 485.843C225.901 485.843 228.697 485.287 231.305 484.207C233.913 483.126 236.283 481.543 238.279 479.547C240.275 477.55 241.859 475.18 242.939 472.572C244.02 469.964 244.576 467.169 244.576 464.346V407.718H274.987C279.854 407.718 284.522 405.784 287.963 402.343C291.405 398.901 293.338 394.233 293.338 389.366C293.338 384.499 291.405 379.831 287.963 376.39C284.522 372.948 279.854 371.015 274.987 371.015Z" fill="#FCA95C"/>
        <path d="M838.117 371.015H807.706V281.462C807.706 276.705 805.816 272.143 802.453 268.78C799.089 265.417 794.528 263.527 789.771 263.527H782.645C780.29 263.527 777.958 263.991 775.782 264.892C773.606 265.794 771.629 267.115 769.963 268.78C768.298 270.445 766.977 272.423 766.076 274.599C765.174 276.774 764.711 279.107 764.711 281.462V371.015H678.931C677.166 371.015 675.432 370.559 673.895 369.691C672.359 368.823 671.073 367.572 670.162 366.061C669.251 364.55 668.746 362.828 668.697 361.064C668.647 359.3 669.054 357.554 669.878 355.993L760.666 184.16C761.798 182.018 762.484 179.669 762.683 177.254C762.882 174.839 762.589 172.409 761.823 170.11C761.057 167.812 759.833 165.692 758.225 163.88C756.617 162.067 754.658 160.6 752.467 159.565L747.108 157.034C742.946 155.069 738.189 154.779 733.819 156.224C729.45 157.668 725.803 160.738 723.633 164.796L612.905 371.934C611.02 375.461 610.033 379.399 610.033 383.399V383.399C610.033 389.849 612.595 396.034 617.156 400.595C621.717 405.156 627.902 407.718 634.352 407.718H764.711V464.346C764.711 470.047 766.975 475.515 771.007 479.547C775.039 483.578 780.507 485.843 786.208 485.843V485.843C791.909 485.843 797.377 483.578 801.409 479.547C805.441 475.515 807.706 470.047 807.706 464.346V407.718H838.117C842.984 407.718 847.652 405.784 851.093 402.343C854.535 398.901 856.468 394.233 856.468 389.366V389.366C856.468 384.499 854.535 379.831 851.093 376.39C847.652 372.948 842.984 371.015 838.117 371.015Z" fill="#FCA95C"/>
        <path d="M283.376 360.528H252.964V270.975C252.964 268.62 252.501 266.288 251.599 264.112C250.698 261.936 249.377 259.959 247.711 258.293C246.046 256.628 244.069 255.307 241.893 254.406C239.717 253.504 237.385 253.041 235.03 253.041H227.904C223.147 253.041 218.586 254.93 215.222 258.293C211.859 261.657 209.969 266.219 209.969 270.975V360.528H124.19C122.425 360.528 120.69 360.072 119.154 359.204C117.618 358.336 116.332 357.086 115.421 355.574C114.51 354.063 114.005 352.342 113.955 350.578C113.906 348.814 114.313 347.067 115.137 345.507L205.925 173.674C207.057 171.531 207.743 169.182 207.942 166.767C208.141 164.352 207.848 161.922 207.082 159.624C206.316 157.325 205.092 155.206 203.484 153.393C201.876 151.581 199.917 150.113 197.726 149.078L192.367 146.547C188.205 144.582 183.447 144.292 179.078 145.737C174.708 147.182 171.062 150.251 168.892 154.31L58.164 361.448C56.2785 364.975 55.292 368.913 55.292 372.912V372.912C55.292 379.362 57.8542 385.548 62.4149 390.108C66.9756 394.669 73.1612 397.231 79.611 397.231H209.969V453.859C209.969 456.682 210.525 459.477 211.606 462.086C212.686 464.694 214.27 467.064 216.266 469.06C218.262 471.056 220.632 472.64 223.24 473.72C225.848 474.8 228.644 475.356 231.467 475.356H231.467C237.168 475.356 242.636 473.092 246.668 469.06C250.699 465.028 252.964 459.56 252.964 453.859V397.231H283.375C285.785 397.231 288.172 396.757 290.398 395.834C292.625 394.912 294.648 393.56 296.352 391.856C298.056 390.152 299.408 388.129 300.33 385.903C301.252 383.676 301.727 381.29 301.727 378.88V378.88C301.727 376.47 301.252 374.083 300.33 371.857C299.408 369.63 298.056 367.607 296.352 365.903C294.648 364.199 292.625 362.847 290.398 361.925C288.172 361.003 285.786 360.528 283.376 360.528V360.528Z" stroke="#3F3D56" stroke-miterlimit="10"/>
        <path d="M853.847 360.528H823.436V270.975C823.436 266.219 821.547 261.657 818.183 258.293C814.82 254.93 810.258 253.041 805.502 253.041H798.376C796.02 253.041 793.688 253.504 791.512 254.406C789.336 255.307 787.359 256.628 785.694 258.293C784.029 259.959 782.707 261.936 781.806 264.112C780.905 266.288 780.441 268.62 780.441 270.975V360.528H694.662C692.897 360.528 691.162 360.072 689.626 359.204C688.089 358.336 686.803 357.086 685.892 355.574C684.981 354.063 684.477 352.342 684.427 350.578C684.377 348.814 684.785 347.067 685.609 345.507L776.397 173.674C777.529 171.531 778.215 169.182 778.414 166.767C778.613 164.352 778.32 161.922 777.554 159.624C776.787 157.325 775.563 155.206 773.955 153.393C772.347 151.581 770.389 150.113 768.198 149.078L762.838 146.547C758.677 144.582 753.919 144.292 749.55 145.737C745.18 147.182 741.533 150.251 739.364 154.31L628.636 361.448C626.75 364.975 625.764 368.913 625.764 372.912C625.764 379.362 628.326 385.548 632.887 390.108C637.447 394.669 643.633 397.231 650.083 397.231H780.441V453.859C780.441 459.56 782.706 465.028 786.737 469.06C790.769 473.092 796.237 475.356 801.939 475.356V475.356C807.64 475.356 813.108 473.092 817.14 469.06C821.171 465.028 823.436 459.56 823.436 453.859V397.231H853.847C856.257 397.231 858.643 396.757 860.87 395.834C863.096 394.912 865.12 393.56 866.824 391.856C868.528 390.152 869.88 388.129 870.802 385.903C871.724 383.676 872.199 381.29 872.199 378.88V378.88C872.199 374.013 870.265 369.345 866.824 365.903C863.382 362.462 858.714 360.528 853.847 360.528V360.528Z" stroke="#3F3D56" stroke-miterlimit="10"/>
        <path d="M462.172 133.493C388.619 133.493 335.809 180.683 335.809 290.792C335.809 415.583 388.619 448.616 462.172 448.616C535.725 448.616 591.682 412.437 591.682 290.792C591.682 160.758 535.725 133.493 462.172 133.493ZM462.656 407.194C411.711 407.194 385.096 377.306 385.096 290.873C385.096 214.609 412.801 174.391 463.745 174.391C514.69 174.391 542.395 200.808 542.395 290.873C542.395 375.127 513.6 407.194 462.656 407.194V407.194Z" stroke="#3F3D56" stroke-miterlimit="10"/>
        <path d="M403.215 26.6604C409.313 26.6604 414.256 21.7171 414.256 15.6192C414.256 9.52136 409.313 4.57806 403.215 4.57806C397.117 4.57806 392.174 9.52136 392.174 15.6192C392.174 21.7171 397.117 26.6604 403.215 26.6604Z" fill="#2F2E41"/>
        <path d="M430.145 80.2504C447.249 80.2504 461.114 62.2857 461.114 40.1252C461.114 17.9647 447.249 0 430.145 0C413.041 0 399.176 17.9647 399.176 40.1252C399.176 62.2857 413.041 80.2504 430.145 80.2504Z" fill="#2F2E41"/>
        <path opacity="0.1" d="M430.144 68.1321C414.63 68.1321 401.781 53.3515 399.526 34.066C399.292 36.0772 399.174 38.1004 399.175 40.1252C399.175 62.2857 413.04 80.2504 430.144 80.2504C447.248 80.2504 461.113 62.2858 461.113 40.1252C461.113 38.1004 460.996 36.0772 460.762 34.066C458.507 53.3515 445.658 68.1321 430.144 68.1321Z" fill="black"/>
        <path d="M493.163 157.634C492.498 160.367 489.63 162.555 486.454 164.085C479.777 167.3 471.541 168.259 463.553 168.581C461.515 168.705 459.47 168.667 457.438 168.468C453.501 168.087 449.807 166.389 446.954 163.649C446.75 163.516 446.583 163.334 446.469 163.119C446.355 162.905 446.297 162.665 446.301 162.422C446.305 162.179 446.37 161.94 446.491 161.729C446.611 161.518 446.784 161.341 446.991 161.215C451.244 156.543 458.341 153.679 465.491 151.616C470.912 150.052 480.366 146.001 486.279 146.548C492.006 147.077 494.003 154.183 493.163 157.634Z" fill="#3F3D56"/>
        <path opacity="0.1" d="M493.163 157.634C492.498 160.367 489.63 162.555 486.454 164.085C479.777 167.3 471.541 168.259 463.553 168.581C461.515 168.705 459.47 168.667 457.438 168.468C453.501 168.087 449.807 166.389 446.954 163.649C446.75 163.516 446.583 163.334 446.469 163.119C446.355 162.905 446.297 162.665 446.301 162.422C446.305 162.179 446.37 161.94 446.491 161.729C446.611 161.518 446.784 161.341 446.991 161.215C451.244 156.543 458.341 153.679 465.491 151.616C470.912 150.052 480.366 146.001 486.279 146.548C492.006 147.077 494.003 154.183 493.163 157.634Z" fill="black"/>
        <path d="M408.266 137.207C406.228 141.202 405.859 145.842 407.241 150.109C408.646 154.343 411.275 158.065 414.797 160.804C423.436 167.729 435.326 168.682 446.398 168.586C456.101 168.501 465.791 167.837 475.415 166.597C478.64 166.311 481.809 165.575 484.83 164.411C488.444 162.847 491.619 159.979 492.906 156.258C494.192 152.537 493.279 147.98 490.224 145.497C487.539 143.315 483.837 143.015 480.384 142.807L460.625 141.62C462.577 139.644 465.176 138.527 467.553 137.09C470.707 135.185 472.803 131.986 475.096 129.102C478.629 124.879 482.474 120.926 486.597 117.277C487.24 120.966 489.574 123.995 492.32 126.54C495.067 129.085 498.233 131.135 501.087 133.558C508.001 139.428 512.98 147.394 520.251 152.814C525.253 151.5 529.929 149.166 533.986 145.957L531.16 140.838C530.924 140.312 530.558 139.854 530.095 139.509C529.295 139.017 528.263 139.271 527.335 139.132C524.852 138.759 523.768 135.893 522.794 133.58C520.119 127.228 514.999 122.3 510.626 116.973C507.398 113.041 504.535 108.824 502.071 104.373C500.602 101.719 499.257 98.9548 497.263 96.6679C495.27 94.381 492.476 92.583 489.442 92.5766C486.762 92.571 484.289 93.9319 481.985 95.3008C474.965 99.4704 468.211 104.072 461.761 109.079C458.386 111.699 455.032 114.467 451.073 116.074C449.406 116.751 447.649 117.213 446.05 118.036C443.248 119.477 441.122 121.917 438.834 124.082C430.671 131.804 419.496 136.807 408.266 137.207Z" fill="#3F3D56"/>
        <path d="M449.583 82.2431C449.491 84.6036 448.989 86.9301 448.099 89.1183C447.648 90.2097 446.977 91.1964 446.127 92.0169C445.278 92.8375 444.269 93.4743 443.163 93.8876C441.592 94.3084 439.945 94.3618 438.35 94.0437C436.96 93.8985 435.62 93.4419 434.429 92.708C432.577 91.4342 431.653 89.1614 431.316 86.937C430.98 84.7152 431.131 82.4451 430.915 80.2073C430.705 78.3997 430.361 76.6103 429.886 74.8537C429.741 74.2693 429.593 73.6876 429.447 73.1059C429.305 72.5242 429.165 71.9426 429.035 71.3609C428.917 70.8142 428.807 70.2648 428.712 69.7128C428.634 69.2469 428.564 68.7783 428.513 68.3071C428.466 66.9099 428.233 65.5253 427.821 64.1895C427.434 63.3232 426.95 62.5038 426.377 61.747C426.132 61.3969 425.895 61.0468 425.677 60.6833C425.046 59.7385 424.753 58.6083 424.845 57.4759C424.871 57.3009 424.914 57.1287 424.972 56.9616C424.993 56.897 425.018 56.8324 425.044 56.7704C425.287 56.7046 425.509 56.5807 425.693 56.4094C425.876 56.2381 426.015 56.0246 426.097 55.7874C426.19 55.278 426.146 54.7531 425.971 54.2659C425.77 53.5852 425.494 52.9286 425.15 52.3081C424.923 51.8988 424.156 51.1609 424.15 50.6923C424.14 49.7498 425.982 48.9904 426.728 48.6187C429.005 47.4785 431.544 46.9637 434.085 47.1268C435.714 47.2372 437.481 47.7381 438.38 49.1035C439.188 50.3341 439.08 51.9284 439.425 53.3584C439.461 53.5662 439.549 53.7616 439.681 53.9266C439.857 54.0867 440.078 54.1883 440.314 54.2174C440.713 54.2967 441.121 54.3131 441.525 54.2659H441.528C441.635 54.2574 441.741 54.2421 441.846 54.2201C442.475 54.104 443.07 53.8472 443.586 53.4688C443.92 53.3799 444.256 53.3072 444.595 53.2506C444.609 53.2492 444.623 53.2465 444.636 53.2425C445.985 57.5001 446.16 62.0647 447.264 66.4004C447.811 68.5574 448.595 70.6876 448.705 72.9066C448.713 73.0035 448.716 73.1032 448.718 73.2028C448.735 73.9164 448.678 74.6355 448.708 75.3464C448.718 75.6665 448.754 75.9853 448.815 76.2997C448.936 76.8053 449.086 77.3035 449.265 77.7916L449.273 77.8158C449.324 77.972 449.373 78.1309 449.413 78.2898C449.443 78.4056 449.47 78.5187 449.491 78.6345L449.494 78.6426C449.693 79.8326 449.723 81.0448 449.583 82.2431V82.2431Z" fill="#FBBEBE"/>
        <path d="M430.683 54.3979C439.458 54.3979 446.572 47.2844 446.572 38.5094C446.572 29.7344 439.458 22.6209 430.683 22.6209C421.908 22.6209 414.795 29.7344 414.795 38.5094C414.795 47.2844 421.908 54.3979 430.683 54.3979Z" fill="#FBBEBE"/>
        <path d="M531.556 125.077C531.095 120.743 529.555 116.593 527.075 113.008C527.487 115.458 527.9 117.908 528.314 120.357C527.799 120.506 527.253 120.501 526.741 120.344C526.229 120.186 525.774 119.883 525.432 119.471C524.763 118.635 524.251 117.686 523.921 116.667C522.116 112.186 519.756 107.949 516.896 104.056C506.781 103.213 496.782 99.0204 487.887 94.1326C478.989 89.2476 470.663 83.3904 461.884 78.298C460.362 77.378 458.776 76.568 457.138 75.8743C454.392 74.7728 451.308 74.2019 448.704 72.9066C448.529 72.8204 448.354 72.7289 448.182 72.6346C447.593 72.3147 447.036 71.9405 446.517 71.5171C446.237 71.2894 445.971 71.0448 445.72 70.7846C444.421 69.273 443.391 67.5496 442.675 65.6895C441.277 62.598 440.779 58.8682 439.384 55.7767C440.025 55.1775 440.745 54.6692 441.525 54.2659H441.527C441.64 54.2067 441.754 54.1501 441.869 54.0963C442.421 53.8363 442.995 53.6263 443.585 53.4688C443.919 53.3799 444.255 53.3072 444.595 53.2507C444.608 53.2493 444.622 53.2466 444.635 53.2426C446.209 52.9862 447.821 53.1137 449.334 53.6142C451.548 54.3629 453.414 55.8575 455.275 57.2713C458.298 59.4011 461.198 61.701 463.96 64.1599C465.495 65.6302 466.895 67.246 468.546 68.5817C469.918 69.6404 471.364 70.5989 472.873 71.4497C481.806 76.771 490.74 82.0914 499.674 87.4109C502.698 89.2125 505.725 91.0141 508.682 92.9208C513.174 95.8184 517.504 98.9584 521.832 102.096C524.382 103.943 526.931 105.791 529.48 107.641C530.316 108.174 531.05 108.852 531.648 109.644C532.175 110.543 532.503 111.545 532.609 112.582C533.249 116.772 532.888 121.054 531.556 125.077V125.077Z" fill="#FBBEBE"/>
        <path d="M453.522 94.1918C452.45 98.9988 447.592 101.905 445.052 106.127C441.896 111.368 443.183 117.459 444.368 123.462C442.203 125.328 440.037 127.194 437.87 129.06C436.674 130.086 435.479 131.118 434.191 132.025C432.315 133.283 430.353 134.41 428.321 135.397C426.403 136.383 424.486 137.369 422.569 138.356C420.786 139.359 418.898 140.159 416.938 140.742C413.159 141.712 409.147 141.033 405.409 139.91C404.968 139.795 404.545 139.622 404.149 139.396C403.916 139.257 403.712 139.073 403.551 138.855C403.182 138.194 403.049 137.428 403.171 136.681C403.551 130.391 405.089 124.232 406.621 118.119C407.44 114.451 408.541 110.853 409.914 107.355C411.261 104.358 412.81 101.455 414.549 98.6676C416.468 95.1598 418.742 91.858 421.335 88.814C422.598 87.6424 423.66 86.2725 424.481 84.7584C425.437 82.5771 425.068 80.0753 425.262 77.7001C425.41 75.9156 425.884 74.1733 426.659 72.5593V72.5566C427.074 71.6872 427.574 70.8609 428.151 70.0898C428.412 70.6984 428.674 71.3061 428.935 71.9129C429.107 72.3115 429.278 72.7092 429.446 73.106C429.667 73.6176 429.886 74.1275 430.104 74.6356C430.731 76.0952 431.358 77.5539 431.983 79.0116C432.659 80.8478 433.623 82.5648 434.838 84.0987C435.393 84.8841 436.143 85.5121 437.013 85.9213C437.884 86.3305 438.845 86.5069 439.805 86.4334C440.764 86.3599 441.687 86.0389 442.485 85.5017C443.283 84.9646 443.928 84.2297 444.357 83.3689C445.263 81.7619 445.918 80.0267 446.302 78.2226C446.834 76.026 446.907 73.7434 446.517 71.5171C445.868 67.2299 444.045 62.8512 442.72 58.8683C442.181 57.5403 441.869 56.1311 441.796 54.6995C441.799 54.5387 441.815 54.3783 441.845 54.2202C441.853 54.1798 441.861 54.1367 441.869 54.0963C442.421 53.8364 442.995 53.6264 443.585 53.4689C443.918 53.38 444.255 53.3073 444.594 53.2507C445.76 59.563 446.928 65.8754 448.098 72.1877C448.125 72.3358 448.155 72.4839 448.181 72.6347C448.348 73.5395 448.518 74.4444 448.707 75.3465C448.876 76.1652 449.059 76.9811 449.264 77.7917L449.272 77.816C449.342 78.0907 449.415 78.3626 449.49 78.6346L449.493 78.6427C449.7 79.386 449.932 80.1238 450.193 80.8509C451.777 85.2324 454.537 89.6434 453.522 94.1918Z" fill="#FCA95C"/>
        <path d="M518.003 161.745C517.953 162.671 518.133 163.595 518.525 164.435C519.52 166.252 521.906 166.665 523.97 166.835C536.031 167.827 548.165 167.457 560.142 165.733C560.792 165.689 561.423 165.493 561.984 165.162C563.687 163.968 562.637 161.058 560.777 160.126C558.918 159.195 556.711 159.419 554.671 159.016C552.644 158.506 550.713 157.669 548.956 156.537C544.818 154.16 540.74 151.682 536.723 149.102C534.332 147.566 531.509 145.927 528.816 146.838C521.52 149.306 517.955 153.874 518.003 161.745Z" fill="#3F3D56"/>
        <path d="M429.097 71.0243V71.027C429.078 71.1401 429.059 71.2505 429.035 71.3609C429.006 71.544 428.971 71.7298 428.936 71.9129C428.602 73.623 428.192 75.3249 427.721 77.0161C426.428 81.6884 424.697 86.2853 422.979 90.8149C418.368 102.96 413.757 115.106 409.145 127.253C407.982 130.313 406.821 133.374 405.499 136.372C405.057 137.371 404.602 138.378 404.15 139.396C402.528 143.039 400.972 146.802 400.455 150.679C399.973 153.232 399.917 155.846 400.291 158.416C400.808 160.959 402.351 163.441 404.766 164.381C405.946 164.842 407.634 165.458 407.311 166.684C407.136 167.357 406.371 167.686 405.685 167.799C404.778 167.943 403.85 167.886 402.968 167.632C402.085 167.378 401.27 166.933 400.579 166.328C399.289 165.184 398.298 163.404 396.582 163.213C395.395 163.083 394.301 163.794 393.213 164.292C388.775 166.32 383.605 164.901 378.943 163.46C379.31 161.573 381.205 160.328 383.088 159.951C384.97 159.572 386.917 159.841 388.837 159.79C389.452 159.823 390.062 159.666 390.585 159.34C391.054 158.91 391.382 158.349 391.528 157.73C392.764 154.065 393.684 150.301 394.277 146.478C394.896 142.485 395.155 138.429 396.038 134.484C396.725 131.406 397.786 128.425 398.696 125.403C400.456 119.182 401.902 112.876 403.027 106.509C403.595 103.864 404.003 101.187 404.246 98.4925C404.4 96.2573 404.327 94.0114 404.543 91.7843C404.904 88.8869 405.509 86.025 406.35 83.2288C407.174 80.1776 407.997 77.1283 408.819 74.0808C410.039 69.57 411.348 64.8843 414.439 61.378C415.513 60.1437 416.829 59.143 418.305 58.438C419.782 57.7329 421.387 57.3386 423.022 57.2794C423.635 57.2786 424.246 57.3445 424.845 57.4759C424.945 57.5002 425.044 57.5244 425.144 57.5513C425.796 57.7219 426.423 57.9811 427.005 58.3215C427.958 57.7156 428.443 57.9284 429.076 58.8628C429.63 59.8518 429.892 60.9783 429.83 62.1105C429.883 65.0988 429.638 68.0848 429.097 71.0243Z" fill="#FBBEBE"/>
        <path d="M430.144 74.5952L430.104 74.6356L429.886 74.8537L427.721 77.0162L426.66 72.5593L423.021 57.2794C423.635 57.2786 424.246 57.3445 424.845 57.476C424.871 57.3009 424.913 57.1287 424.971 56.9616L425.143 57.5514L426.377 61.747L428.712 69.7128L429.097 71.0243V71.027L430.144 74.5952Z" fill="#FCA95C"/>
        <path d="M443.884 25.8483C443.882 27.2631 443.601 28.6638 443.058 29.9701C442.515 31.2764 441.719 32.4629 440.717 33.4616C440.354 33.8251 439.965 34.1616 439.553 34.4683C437.695 35.8692 435.431 36.6275 433.104 36.6286H420.184C417.329 36.6242 414.593 35.487 412.576 33.4668C410.559 31.4465 409.426 28.7084 409.426 25.8536C409.426 22.9987 410.559 20.2606 412.576 18.2404C414.593 16.2201 417.329 15.083 420.184 15.0786H433.104C435.959 15.086 438.695 16.2227 440.715 18.2405C442.734 20.2583 443.874 22.9933 443.884 25.8483V25.8483Z" fill="#2F2E41"/>
        <path d="M455.997 26.6604C462.095 26.6604 467.038 21.7171 467.038 15.6192C467.038 9.52136 462.095 4.57806 455.997 4.57806C449.899 4.57806 444.956 9.52136 444.956 15.6192C444.956 21.7171 449.899 26.6604 455.997 26.6604Z" fill="#2F2E41"/>
        <path opacity="0.1" d="M455.727 4.57806C455.592 4.57806 455.458 4.58344 455.323 4.58828C458.179 4.69211 460.884 5.89975 462.868 7.95711C464.852 10.0145 465.96 12.7611 465.96 15.6192C465.96 18.4773 464.852 21.224 462.868 23.2813C460.884 25.3387 458.179 26.5463 455.323 26.6502C455.458 26.655 455.592 26.6604 455.727 26.6604C458.655 26.6604 461.464 25.4971 463.534 23.4265C465.605 21.3559 466.768 18.5475 466.768 15.6192C466.768 12.6909 465.605 9.88257 463.534 7.81195C461.464 5.74133 458.655 4.57806 455.727 4.57806V4.57806Z" fill="black"/>
        <path opacity="0.1" d="M403.214 4.57806C403.35 4.57806 403.484 4.58344 403.618 4.58828C400.762 4.69211 398.057 5.89975 396.073 7.95711C394.089 10.0145 392.981 12.7611 392.981 15.6192C392.981 18.4773 394.089 21.224 396.073 23.2813C398.057 25.3387 400.762 26.5463 403.618 26.6502C403.484 26.655 403.35 26.6604 403.214 26.6604C400.287 26.6578 397.482 25.4934 395.413 23.4231C393.345 21.3527 392.183 18.5458 392.183 15.6192C392.183 12.6926 393.345 9.88572 395.413 7.81538C397.482 5.74504 400.287 4.58064 403.214 4.57806Z" fill="black"/>
        <path opacity="0.1" d="M439.552 34.4684C437.694 35.8693 435.43 36.6275 433.103 36.6286H420.184C417.856 36.6275 415.593 35.8693 413.734 34.4684H439.552Z" fill="black"/>
        <path d="M522.983 114.472C522.983 114.472 525.767 122.492 528.314 120.357L526.284 109.873L522.983 114.472Z" fill="#FBBEBE"/>
        <path d="M861.7 359.061C864.293 360.004 867.068 360.331 869.809 360.018C872.55 359.705 875.18 358.759 877.493 357.256C879.806 355.752 881.738 353.732 883.137 351.355C884.536 348.977 885.364 346.307 885.555 343.555C885.746 340.803 885.295 338.045 884.238 335.497C883.181 332.949 881.547 330.681 879.464 328.872C877.381 327.064 874.907 325.763 872.236 325.074C869.565 324.385 866.77 324.326 864.072 324.901L864.518 334.069L860.18 326.212C855.923 328.212 852.635 331.821 851.037 336.244C850.469 337.794 850.125 339.416 850.012 341.063C849.739 344.925 850.731 348.772 852.84 352.02C854.95 355.268 858.06 357.74 861.7 359.061V359.061Z" fill="#1B998B"/>
        <path d="M883.162 465.392C881.631 457.595 888.266 450.683 894.819 446.19C901.373 441.698 909.03 437.283 911.266 429.659C914.48 418.701 904.908 408.665 897.457 400.011C891.929 393.589 887.183 386.534 883.316 378.994C881.766 375.971 880.341 372.811 879.933 369.438C879.346 364.581 880.906 359.747 882.478 355.114C887.716 339.68 893.315 324.375 899.277 309.199" stroke="#3F3D56" stroke-miterlimit="10"/>
        <path d="M862.433 356.701C865.026 357.644 867.802 357.971 870.542 357.658C873.283 357.344 875.914 356.399 878.226 354.895C880.539 353.392 882.471 351.372 883.87 348.994C885.269 346.617 886.097 343.947 886.288 341.195C886.479 338.443 886.028 335.684 884.971 333.136C883.914 330.588 882.28 328.321 880.197 326.512C878.114 324.703 875.64 323.403 872.969 322.714C870.298 322.025 867.503 321.966 864.805 322.541L865.251 331.708L860.914 323.852C856.657 325.852 853.368 329.46 851.77 333.884C851.203 335.434 850.858 337.056 850.746 338.702C850.472 342.565 851.465 346.412 853.574 349.66C855.683 352.908 858.793 355.38 862.433 356.701V356.701Z" stroke="#3F3D56" stroke-miterlimit="10"/>
        <path d="M880.985 306.033C882.003 303.226 883.71 300.72 885.951 298.746C888.191 296.772 890.892 295.394 893.805 294.738L895.272 303.454L897.991 294.3C901.766 294.356 905.426 295.61 908.442 297.882C911.457 300.153 913.673 303.325 914.769 306.938C915.865 310.55 915.785 314.418 914.54 317.983C913.294 321.547 910.948 324.623 907.841 326.767C904.733 328.911 901.024 330.012 897.25 329.911C893.476 329.81 889.831 328.512 886.843 326.205C883.854 323.898 881.676 320.701 880.624 317.075C879.571 313.449 879.697 309.582 880.985 306.033H880.985Z" fill="#1B998B"/>
        <path d="M881.963 302.886C882.98 300.079 884.688 297.573 886.928 295.599C889.169 293.625 891.87 292.247 894.783 291.591L896.249 300.307L898.968 291.153C902.743 291.209 906.403 292.463 909.419 294.735C912.435 297.006 914.651 300.177 915.747 303.79C916.843 307.403 916.763 311.271 915.517 314.835C914.272 318.4 911.926 321.476 908.818 323.62C905.711 325.764 902.002 326.865 898.228 326.764C894.453 326.663 890.809 325.365 887.82 323.058C884.832 320.751 882.654 317.553 881.601 313.928C880.548 310.302 880.675 306.435 881.963 302.886H881.963Z" stroke="#3F3D56" stroke-miterlimit="10"/>
        <path d="M894.33 400.188C898.442 401.679 902.958 401.606 907.019 399.981C911.079 398.356 914.4 395.294 916.348 391.379C918.297 387.463 918.736 382.967 917.582 378.748C916.429 374.529 913.763 370.883 910.093 368.503L908.004 375.537L906.523 366.719C906.508 366.712 906.493 366.706 906.477 366.702C904.278 365.902 901.943 365.544 899.606 365.648C897.268 365.751 894.974 366.315 892.854 367.305C890.734 368.296 888.83 369.694 887.251 371.421C885.672 373.147 884.449 375.168 883.651 377.367C882.853 379.567 882.496 381.902 882.601 384.24C882.706 386.577 883.27 388.871 884.262 390.99C885.254 393.11 886.653 395.013 888.381 396.591C890.108 398.169 892.13 399.391 894.33 400.188H894.33Z" fill="#1B998B"/>
        <path d="M895.178 397C899.289 398.492 903.806 398.418 907.866 396.793C911.927 395.169 915.248 392.107 917.196 388.191C919.144 384.275 919.583 379.779 918.43 375.561C917.276 371.342 914.611 367.695 910.941 365.315L908.852 372.349L907.37 363.531C907.356 363.524 907.341 363.519 907.325 363.514C905.126 362.715 902.791 362.357 900.453 362.46C898.116 362.564 895.822 363.127 893.702 364.117C891.582 365.108 889.678 366.506 888.099 368.233C886.52 369.959 885.296 371.98 884.498 374.18C883.7 376.379 883.344 378.715 883.449 381.052C883.553 383.39 884.118 385.683 885.11 387.803C886.101 389.922 887.501 391.825 889.229 393.403C890.956 394.981 892.978 396.204 895.178 397H895.178Z" stroke="#3F3D56" stroke-miterlimit="10"/>
        <path d="M875.787 429.767C876.494 433.79 878.563 437.447 881.646 440.126C884.729 442.804 888.64 444.341 892.722 444.478C896.804 444.616 900.809 443.346 904.065 440.881C907.322 438.416 909.632 434.906 910.607 430.94C911.583 426.974 911.166 422.793 909.425 419.099C907.685 415.404 904.727 412.42 901.047 410.648C897.368 408.875 893.19 408.422 889.216 409.363C885.242 410.305 881.713 412.585 879.22 415.82L887.155 427.764L876.312 421.424C875.471 424.123 875.291 426.985 875.787 429.767V429.767Z" fill="#1B998B"/>
        <path d="M876.521 427.407C877.228 431.43 879.296 435.087 882.379 437.765C885.463 440.444 889.373 441.981 893.455 442.118C897.537 442.255 901.542 440.985 904.798 438.52C908.055 436.055 910.365 432.546 911.341 428.58C912.317 424.614 911.899 420.433 910.159 416.738C908.418 413.044 905.46 410.06 901.78 408.287C898.101 406.515 893.924 406.061 889.95 407.003C885.975 407.945 882.446 410.224 879.953 413.459L887.889 425.404L877.046 419.064C876.205 421.763 876.025 424.624 876.521 427.407V427.407Z" stroke="#3F3D56" stroke-miterlimit="10"/>
        <path d="M7.70819 402.451C9.41153 403.07 11.2354 403.285 13.0361 403.08C14.8368 402.874 16.565 402.252 18.0846 401.265C19.6042 400.277 20.8736 398.95 21.7928 397.388C22.7119 395.825 23.2557 394.071 23.3813 392.263C23.5068 390.455 23.2107 388.643 22.5162 386.969C21.8218 385.294 20.748 383.805 19.3795 382.616C18.011 381.428 16.3852 380.574 14.6303 380.121C12.8754 379.668 11.0392 379.629 9.26664 380.007L9.55957 386.03L6.70978 380.868C3.91287 382.182 1.75215 384.553 0.702429 387.46C0.32963 388.478 0.102995 389.544 0.0292869 390.626C-0.150593 393.163 0.501725 395.691 1.88739 397.825C3.27305 399.959 5.31653 401.583 7.70819 402.451V402.451Z" fill="#1B998B"/>
        <path d="M21.8091 472.312C20.8031 467.19 25.1622 462.648 29.468 459.696C33.7738 456.744 38.8049 453.844 40.274 448.835C42.3855 441.635 36.0962 435.042 31.2011 429.356C27.5694 425.136 24.4506 420.501 21.91 415.547C20.8054 413.602 20.0531 411.476 19.6877 409.269C19.3017 406.077 20.327 402.902 21.3599 399.858C24.8008 389.717 28.4798 379.661 32.3968 369.691" stroke="#3F3D56" stroke-miterlimit="10"/>
        <path d="M8.19062 400.9C9.89396 401.519 11.7179 401.735 13.5185 401.529C15.3192 401.323 17.0475 400.702 18.567 399.714C20.0866 398.726 21.356 397.399 22.2752 395.837C23.1943 394.275 23.7381 392.52 23.8637 390.712C23.9892 388.904 23.6931 387.092 22.9986 385.418C22.3042 383.744 21.2304 382.254 19.8619 381.065C18.4934 379.877 16.8677 379.023 15.1127 378.57C13.3578 378.117 11.5217 378.078 9.74908 378.456L10.042 384.48L7.1922 379.317C4.3953 380.632 2.23457 383.003 1.18485 385.909C0.812056 386.927 0.585425 387.993 0.511712 389.075C0.33182 391.613 0.984134 394.14 2.3698 396.274C3.75546 398.408 5.79896 400.032 8.19062 400.9V400.9Z" stroke="#3F3D56" stroke-miterlimit="10"/>
        <path d="M20.3795 367.611C21.0479 365.766 22.1699 364.12 23.6419 362.823C25.1139 361.526 26.8886 360.62 28.8026 360.19L29.7661 365.916L31.5526 359.902C34.0329 359.939 36.4374 360.763 38.4188 362.255C40.4003 363.747 41.8562 365.831 42.5764 368.205C43.2965 370.578 43.2437 373.12 42.4254 375.461C41.6072 377.803 40.0659 379.824 38.0241 381.233C35.9823 382.642 33.5456 383.365 31.0659 383.299C28.5862 383.232 26.1917 382.38 24.2282 380.864C22.2647 379.348 20.8338 377.247 20.142 374.865C19.4502 372.483 19.5333 369.942 20.3795 367.611V367.611Z" fill="#1B998B"/>
        <path d="M21.022 365.543C21.6905 363.698 22.8124 362.052 24.2845 360.755C25.7565 359.458 27.5312 358.553 29.4452 358.122L30.4087 363.848L32.1951 357.834C34.6755 357.871 37.08 358.695 39.0614 360.187C41.0429 361.68 42.4988 363.763 43.2189 366.137C43.9391 368.511 43.8862 371.052 43.068 373.394C42.2498 375.736 40.7085 377.757 38.6667 379.165C36.6249 380.574 34.1882 381.298 31.7085 381.231C29.2288 381.165 26.8343 380.312 24.8708 378.796C22.9073 377.28 21.4763 375.179 20.7845 372.797C20.0928 370.415 20.1759 367.875 21.022 365.543V365.543Z" stroke="#3F3D56" stroke-miterlimit="10"/>
        <path d="M29.1477 429.472C31.849 430.452 34.8165 430.403 37.4844 429.336C40.1524 428.269 42.3343 426.257 43.6142 423.684C44.8942 421.111 45.1827 418.157 44.4248 415.386C43.6669 412.614 41.9156 410.218 39.5046 408.654L38.1319 413.276L37.1585 407.482C37.1489 407.478 37.139 407.474 37.1288 407.471C35.6838 406.945 34.1496 406.71 32.6136 406.778C31.0776 406.845 29.57 407.215 28.177 407.866C26.784 408.517 25.5329 409.436 24.4952 410.57C23.4575 411.705 22.6535 413.032 22.1292 414.478C21.6049 415.923 21.3705 417.458 21.4395 418.993C21.5085 420.529 21.8795 422.037 22.5313 423.429C23.1831 424.822 24.103 426.072 25.2382 427.109C26.3735 428.146 27.702 428.949 29.1477 429.472V429.472Z" fill="#1B998B"/>
        <path d="M29.7036 427.377C32.4049 428.357 35.3724 428.309 38.0403 427.242C40.7083 426.174 42.8902 424.162 44.1702 421.59C45.4501 419.017 45.7387 416.063 44.9807 413.291C44.2228 410.519 42.4715 408.123 40.0605 406.56L38.6878 411.182L37.7145 405.388C37.7049 405.383 37.6949 405.379 37.6847 405.376C36.2401 404.852 34.7064 404.618 33.1712 404.687C31.636 404.755 30.1294 405.126 28.7373 405.777C25.926 407.091 23.752 409.469 22.6936 412.386C21.6353 415.304 21.7792 418.522 23.0939 421.334C24.4085 424.145 26.7861 426.319 29.7036 427.377V427.377Z" stroke="#3F3D56" stroke-miterlimit="10"/>
        <path d="M16.964 448.906C17.4284 451.549 18.7875 453.952 20.8133 455.712C22.8391 457.471 25.4083 458.481 28.0902 458.571C30.7721 458.662 33.4034 457.827 35.543 456.208C37.6826 454.588 39.2002 452.282 39.8414 449.677C40.4826 447.071 40.2084 444.324 39.0648 441.897C37.9211 439.469 35.9775 437.509 33.56 436.344C31.1425 435.18 28.3981 434.882 25.787 435.5C23.1759 436.119 20.857 437.617 19.2191 439.742L24.433 447.59L17.3088 443.425C16.7564 445.198 16.6381 447.078 16.964 448.906V448.906Z" fill="#1B998B"/>
        <path d="M17.4464 447.355C17.9109 449.998 19.2699 452.401 21.2957 454.161C23.3215 455.921 25.8908 456.93 28.5726 457.021C31.2545 457.111 33.8859 456.276 36.0254 454.657C38.165 453.037 39.6826 450.731 40.3239 448.126C40.9651 445.52 40.6908 442.773 39.5472 440.346C38.4035 437.918 36.4599 435.958 34.0424 434.793C31.6249 433.629 28.8805 433.331 26.2694 433.95C23.6583 434.568 21.3394 436.066 19.7015 438.192L24.9154 446.039L17.7912 441.874C17.2388 443.647 17.1206 445.527 17.4464 447.355V447.355Z" stroke="#3F3D56" stroke-miterlimit="10"/>
        <path d="M462.956 316.07C462.963 317.146 462.559 318.184 461.826 318.973C461.48 319.35 461.06 319.652 460.591 319.86C460.123 320.067 459.617 320.175 459.105 320.178H450.546C449.492 320.141 448.495 319.688 447.773 318.918C447.051 318.149 446.664 317.124 446.695 316.07C446.691 315.235 446.935 314.419 447.397 313.724C449.291 313.457 451.201 313.326 453.114 313.331C456.321 313.321 459.518 313.688 462.639 314.427C462.85 314.949 462.958 315.507 462.956 316.07V316.07Z" fill="white"/>
    </g>
    <defs>
        <clipPath id="clip0">
            <rect width="919.492" height="500" fill="white"/>
        </clipPath>
    </defs>
</svg>
