<svg class="bell-icon-f" width="22" height="25" viewBox="0 0 22 25" xmlns="http://www.w3.org/2000/svg">
    <path d="M10.9369 25C11.7657 25 12.5605 24.6708 13.1465 24.0848C13.7325 23.4987 14.0617 22.7039 14.0617 21.8752H7.81207C7.81207 22.7039 8.14129 23.4987 8.72731 24.0848C9.31333 24.6708 10.1081 25 10.9369 25ZM12.4915 1.71846C12.5133 1.50121 12.4893 1.28181 12.4211 1.07439C12.3529 0.866976 12.242 0.676158 12.0956 0.514242C11.9491 0.352327 11.7703 0.222909 11.5707 0.134336C11.3712 0.0457623 11.1552 0 10.9369 0C10.7186 0 10.5026 0.0457623 10.3031 0.134336C10.1035 0.222909 9.92473 0.352327 9.77825 0.514242C9.63177 0.676158 9.52086 0.866976 9.45266 1.07439C9.38446 1.28181 9.36049 1.50121 9.3823 1.71846C7.61633 2.07766 6.02877 3.03614 4.88843 4.43159C3.74809 5.82705 3.12506 7.57373 3.12483 9.37585C3.12483 11.0914 2.34362 18.7503 0 20.3128H21.8738C19.5302 18.7503 18.749 11.0914 18.749 9.37585C18.749 5.59481 16.0616 2.43873 12.4915 1.71846Z"/>
</svg>
