<svg class="clocks-fill-up-icon" width="11" height="12" viewBox="0 0 11 12" fill="none" xmlns="http://www.w3.org/2000/svg">
    <path fill-rule="evenodd" clip-rule="evenodd" d="M0 11.5714C0 11.6851 0.045153 11.7941 0.125526 11.8745C0.205898 11.9548 0.314907 12 0.428571 12H9.85714C9.97081 12 10.0798 11.9548 10.1602 11.8745C10.2406 11.7941 10.2857 11.6851 10.2857 11.5714C10.2857 11.4578 10.2406 11.3488 10.1602 11.2684C10.0798 11.188 9.97081 11.1429 9.85714 11.1429H9V10.2857C9.00018 9.55797 8.79447 8.84503 8.40664 8.22924C8.01882 7.61345 7.46469 7.11994 6.80829 6.80571C6.55971 6.68657 6.42857 6.48257 6.42857 6.3V5.7C6.42857 5.51743 6.56057 5.31343 6.80829 5.19429C7.46469 4.88006 8.01882 4.38655 8.40664 3.77076C8.79447 3.15497 9.00018 2.44203 9 1.71429V0.857143H9.85714C9.97081 0.857143 10.0798 0.81199 10.1602 0.731617C10.2406 0.651245 10.2857 0.542236 10.2857 0.428571C10.2857 0.314907 10.2406 0.205898 10.1602 0.125526C10.0798 0.0451529 9.97081 0 9.85714 0H0.428571C0.314907 0 0.205898 0.0451529 0.125526 0.125526C0.045153 0.205898 0 0.314907 0 0.428571C0 0.542236 0.045153 0.651245 0.125526 0.731617C0.205898 0.81199 0.314907 0.857143 0.428571 0.857143H1.28571V1.71429C1.28554 2.44203 1.49124 3.15497 1.87907 3.77076C2.2669 4.38655 2.82102 4.88006 3.47743 5.19429C3.726 5.31343 3.85714 5.51743 3.85714 5.7V6.3C3.85714 6.48257 3.72514 6.68657 3.47743 6.80571C2.82102 7.11994 2.2669 7.61345 1.87907 8.22924C1.49124 8.84503 1.28554 9.55797 1.28571 10.2857V11.1429H0.428571C0.314907 11.1429 0.205898 11.188 0.125526 11.2684C0.045153 11.3488 0 11.4578 0 11.5714ZM2.14286 11.1429V10.2857C2.1427 9.71964 2.30271 9.16507 2.60439 8.68609C2.90607 8.2071 3.33711 7.82324 3.84771 7.57886C4.30457 7.35943 4.71429 6.90171 4.71429 6.30086V5.69914C4.71429 5.69914 4.86857 5.78571 5.14286 5.78571C5.41714 5.78571 5.57143 5.7 5.57143 5.7V6.3C5.57143 6.90086 5.98114 7.35943 6.438 7.57886C6.9486 7.82324 7.37965 8.2071 7.68133 8.68609C7.98301 9.16507 8.14301 9.71964 8.14286 10.2857V11.1429H2.14286Z" fill="#1C2540"/>
</svg>
