<svg class="decks-icon-f" width="26" height="25" viewBox="0 0 26 25" xmlns="http://www.w3.org/2000/svg">
    <path d="M22.9179 16.4959L25.7023 17.8881C26.0599 18.0669 26.0599 18.5772 25.7023 18.756L13.4192 24.8976C13.1461 25.0341 12.8245 25.0341 12.5513 24.8976L0.268309 18.756C-0.0892879 18.5772 -0.0892887 18.0669 0.268309 17.8881L3.05273 16.4959L11.6834 20.8113C12.503 21.221 13.4676 21.221 14.2872 20.8113L22.9179 16.4959Z"/>
    <path d="M12.5512 0.102443C12.8244 -0.0341474 13.146 -0.0341476 13.4191 0.102442L25.7022 6.24396C26.0598 6.42275 26.0598 6.93306 25.7022 7.11186L13.4191 13.2534C13.146 13.39 12.8244 13.39 12.5512 13.2534L0.268198 7.11186C-0.0893989 6.93306 -0.0893997 6.42275 0.268198 6.24396L12.5512 0.102443Z"/>
    <path d="M22.9179 10.6738L25.7023 12.066C26.0599 12.2448 26.0599 12.7552 25.7023 12.9339L13.4192 19.0755C13.1461 19.2121 12.8245 19.2121 12.5513 19.0755L0.268309 12.9339C-0.0892879 12.7552 -0.0892887 12.2448 0.268309 12.066L3.05273 10.6738L11.6834 14.9892C12.503 15.399 13.4676 15.399 14.2872 14.9892L22.9179 10.6738Z"/>
</svg>
