<svg class="help-icon-f" width="25" height="25" viewBox="0 0 25 25" xmlns="http://www.w3.org/2000/svg">
    <path fill-rule="evenodd" clip-rule="evenodd" d="M25 12.5C25 15.8152 23.683 18.9946 21.3388 21.3388C18.9946 23.683 15.8152 25 12.5 25C9.18479 25 6.00537 23.683 3.66117 21.3388C1.31696 18.9946 0 15.8152 0 12.5C0 9.18479 1.31696 6.00537 3.66117 3.66117C6.00537 1.31696 9.18479 0 12.5 0C15.8152 0 18.9946 1.31696 21.3388 3.66117C23.683 6.00537 25 9.18479 25 12.5ZM8.5875 9.42656C8.53713 9.42725 8.48716 9.41765 8.44063 9.39835C8.3941 9.37906 8.352 9.35047 8.31689 9.31434C8.28179 9.27822 8.25443 9.23531 8.23648 9.18825C8.21853 9.14118 8.21037 9.09095 8.2125 9.04062C8.35938 6.39219 10.5266 5.46875 12.5078 5.46875C14.6891 5.46875 16.6828 6.60937 16.6828 8.96875C16.6828 10.6562 15.6906 11.4594 14.7391 12.1828C13.5875 13.0562 13.1609 13.3828 13.1609 14.5047V14.6687C13.1609 14.7723 13.1198 14.8717 13.0465 14.945C12.9733 15.0182 12.8739 15.0594 12.7703 15.0594H11.5047C11.4022 15.0594 11.3037 15.0191 11.2307 14.9472C11.1576 14.8753 11.1157 14.7775 11.1141 14.675L11.1078 14.3359C11.0484 12.8875 11.8813 11.9953 12.9328 11.2313C13.8547 10.5375 14.4406 10.0813 14.4406 9.08906C14.4406 7.8 13.4594 7.26406 12.3875 7.26406C11.1328 7.26406 10.4297 8.01094 10.2906 9.03594C10.2625 9.25 10.0906 9.42656 9.875 9.42656H8.58594H8.5875ZM12.2203 19.4937C11.3078 19.4937 10.6437 18.8781 10.6437 18.0453C10.6437 17.1828 11.3078 16.5766 12.2219 16.5766C13.1734 16.5766 13.8281 17.1828 13.8281 18.0453C13.8281 18.8781 13.1719 19.4937 12.2203 19.4937Z"/>
</svg>
