<svg class="overview-icon" width="17" height="17" viewBox="0 0 17 17" fill="none" xmlns="http://www.w3.org/2000/svg">
    <g clip-path="url(#clip0)">
        <path fill-rule="evenodd" clip-rule="evenodd" d="M8.5 15.9375C10.4725 15.9375 12.3643 15.1539 13.7591 13.7591C15.1539 12.3643 15.9375 10.4725 15.9375 8.5C15.9375 6.52745 15.1539 4.63569 13.7591 3.24089C12.3643 1.84609 10.4725 1.0625 8.5 1.0625C6.52745 1.0625 4.63569 1.84609 3.24089 3.24089C1.84609 4.63569 1.0625 6.52745 1.0625 8.5C1.0625 10.4725 1.84609 12.3643 3.24089 13.7591C4.63569 15.1539 6.52745 15.9375 8.5 15.9375ZM8.5 17C10.7543 17 12.9163 16.1045 14.5104 14.5104C16.1045 12.9163 17 10.7543 17 8.5C17 6.24566 16.1045 4.08365 14.5104 2.48959C12.9163 0.895533 10.7543 0 8.5 0C6.24566 0 4.08365 0.895533 2.48959 2.48959C0.895533 4.08365 0 6.24566 0 8.5C0 10.7543 0.895533 12.9163 2.48959 14.5104C4.08365 16.1045 6.24566 17 8.5 17Z" fill="#1C2540"/>
        <path fill-rule="evenodd" clip-rule="evenodd" d="M7.96725 8.28006V1.0625H9.02975V7.96875H15.936V9.03125H8.71844L3.56213 14.1886L2.80988 13.4364L7.96725 8.28006Z" fill="#1C2540"/>
    </g>
    <defs>
        <clipPath id="clip0">
            <rect width="17" height="17" fill="white"/>
        </clipPath>
    </defs>
</svg>
