<svg class="schedule-icon-f" width="25" height="25" viewBox="0 0 25 25" xmlns="http://www.w3.org/2000/svg">
    <path d="M5.46875 0C5.90022 0 6.25 0.349778 6.25 0.78125V1.5625H18.75V0.78125C18.75 0.349778 19.0998 0 19.5312 0C19.9627 0 20.3125 0.349778 20.3125 0.78125V1.5625H21.875C23.6009 1.5625 25 2.96161 25 4.6875V6.25V7.8125V21.875C25 23.6009 23.6009 25 21.875 25H3.125C1.39911 25 0 23.6009 0 21.875V7.8125H25V6.25H0V4.6875C0 2.96161 1.39911 1.5625 3.125 1.5625H4.6875V0.78125C4.6875 0.349778 5.03728 0 5.46875 0Z"/>
</svg>
