<svg class="settings-icon" width="17" height="17" viewBox="0 0 17 17" fill="none" xmlns="http://www.w3.org/2000/svg">
    <g clip-path="url(#clip0)">
        <path fill-rule="evenodd" clip-rule="evenodd" d="M9.4005 1.73918C9.13912 0.851991 7.88325 0.851991 7.62187 1.73918L7.522 2.07812C7.438 2.36281 7.29138 2.62511 7.09289 2.84579C6.89439 3.06648 6.64904 3.23997 6.3748 3.35356C6.10057 3.46714 5.8044 3.51794 5.508 3.50224C5.21159 3.48654 4.92244 3.40473 4.66175 3.2628L4.3515 3.0928C3.53975 2.65187 2.6515 3.53905 3.0935 4.35187L3.26244 4.66212C3.40436 4.92281 3.48617 5.21196 3.50187 5.50836C3.51758 5.80477 3.46678 6.10094 3.35319 6.37517C3.23961 6.64941 3.06612 6.89476 2.84543 7.09326C2.62474 7.29175 2.36244 7.43837 2.07775 7.52237L1.73881 7.62224C0.851625 7.88362 0.851625 9.13949 1.73881 9.40087L2.07775 9.50074C2.36259 9.5847 2.62503 9.73134 2.84583 9.92991C3.06663 10.1285 3.24019 10.374 3.35379 10.6483C3.46739 10.9227 3.51814 11.219 3.50234 11.5155C3.48653 11.8121 3.40456 12.1013 3.26244 12.3621L3.09244 12.6712C2.6515 13.483 3.53869 14.3712 4.3515 13.9292L4.66175 13.7603C4.92251 13.6184 5.21173 13.5366 5.50819 13.521C5.80466 13.5054 6.10087 13.5562 6.37512 13.6699C6.64936 13.7836 6.8947 13.9572 7.09315 14.1781C7.29159 14.3989 7.43812 14.6613 7.522 14.9461L7.62187 15.2839C7.88325 16.1711 9.13912 16.1711 9.4005 15.2839L9.50037 14.945C9.58433 14.6602 9.73097 14.3977 9.92954 14.1769C10.1281 13.9561 10.3736 13.7826 10.648 13.669C10.9223 13.5554 11.2186 13.5046 11.5152 13.5204C11.8117 13.5362 12.1009 13.6182 12.3617 13.7603L12.6709 13.9303C13.4826 14.3712 14.3709 13.4841 13.9289 12.6712L13.7599 12.3621C13.6178 12.1012 13.5359 11.8119 13.5202 11.5153C13.5044 11.2188 13.5553 10.9224 13.669 10.648C13.7827 10.3736 13.9564 10.1282 14.1773 9.92965C14.3982 9.73113 14.6607 9.58458 14.9457 9.50074L15.2836 9.40087C16.1707 9.13949 16.1707 7.88362 15.2836 7.62224L14.9446 7.52237C14.6599 7.43837 14.3976 7.29175 14.1769 7.09326C13.9563 6.89476 13.7828 6.64941 13.6692 6.37517C13.5556 6.10094 13.5048 5.80477 13.5205 5.50836C13.5362 5.21196 13.618 4.92281 13.7599 4.66212L13.9299 4.35187C14.3709 3.54012 13.4837 2.65187 12.6709 3.09387L12.3617 3.2628C12.1009 3.40513 11.8116 3.48726 11.5149 3.50317C11.2182 3.51908 10.9218 3.46837 10.6473 3.35476C10.3728 3.24114 10.1272 3.06751 9.92854 2.8466C9.72989 2.62569 9.58323 2.36311 9.49931 2.07812L9.39943 1.73918H9.4005ZM6.60293 1.43849C7.16287 -0.463384 9.8595 -0.463384 10.4194 1.43849L10.5193 1.77743C10.5584 1.91019 10.6267 2.03252 10.7193 2.13545C10.8118 2.23838 10.9262 2.31929 11.054 2.37227C11.1819 2.42525 11.32 2.44894 11.4582 2.44162C11.5964 2.43429 11.7312 2.39613 11.8527 2.32993L12.163 2.15993C13.9055 1.21218 15.8116 3.11724 14.8617 4.85974L14.6928 5.16999C14.6266 5.29153 14.5884 5.42635 14.5811 5.56456C14.5738 5.70276 14.5975 5.84086 14.6505 5.96872C14.7034 6.09658 14.7844 6.21096 14.8873 6.30348C14.9902 6.39601 15.1125 6.46433 15.2453 6.50343L15.5842 6.6033C17.4861 7.16324 17.4861 9.85987 15.5842 10.4198L15.2453 10.5197C15.1125 10.5588 14.9902 10.6271 14.8873 10.7196C14.7844 10.8121 14.7034 10.9265 14.6505 11.0544C14.5975 11.1823 14.5738 11.3203 14.5811 11.4586C14.5884 11.5968 14.6266 11.7316 14.6928 11.8531L14.8628 12.1634C15.8116 13.9059 13.9044 15.812 12.163 14.8621L11.8527 14.6932C11.7312 14.627 11.5964 14.5888 11.4582 14.5815C11.32 14.5742 11.1819 14.5979 11.054 14.6508C10.9262 14.7038 10.8118 14.7847 10.7193 14.8877C10.6267 14.9906 10.5584 15.1129 10.5193 15.2457L10.4194 15.5846C9.8595 17.4865 7.16287 17.4865 6.60293 15.5846L6.50306 15.2457C6.46396 15.1129 6.39564 14.9906 6.30311 14.8877C6.21059 14.7847 6.09621 14.7038 5.96835 14.6508C5.84049 14.5979 5.70239 14.5742 5.56419 14.5815C5.42598 14.5888 5.29116 14.627 5.16962 14.6932L4.85937 14.8632C3.11687 15.812 1.21181 13.9048 2.16062 12.1634L2.32956 11.8531C2.39576 11.7316 2.43392 11.5968 2.44125 11.4586C2.44858 11.3203 2.42488 11.1823 2.3719 11.0544C2.31893 10.9265 2.23801 10.8121 2.13508 10.7196C2.03215 10.6271 1.90982 10.5588 1.77706 10.5197L1.43812 10.4198C-0.46375 9.85987 -0.46375 7.16324 1.43812 6.6033L1.77706 6.50343C1.90982 6.46433 2.03215 6.39601 2.13508 6.30348C2.23801 6.21096 2.31893 6.09658 2.3719 5.96872C2.42488 5.84086 2.44858 5.70276 2.44125 5.56456C2.43392 5.42635 2.39576 5.29153 2.32956 5.16999L2.15956 4.85974C1.21181 3.11724 3.11794 1.21218 4.85937 2.16099L5.16962 2.32993C5.29116 2.39613 5.42598 2.43429 5.56419 2.44162C5.70239 2.44894 5.84049 2.42525 5.96835 2.37227C6.09621 2.31929 6.21059 2.23838 6.30311 2.13545C6.39564 2.03252 6.46396 1.91019 6.50306 1.77743L6.60293 1.43849Z" fill="#1C2540"/>
        <path fill-rule="evenodd" clip-rule="evenodd" d="M8.49966 6.11353C7.86675 6.11353 7.25977 6.36495 6.81223 6.81248C6.3647 7.26001 6.11328 7.86699 6.11328 8.4999C6.11328 9.13281 6.3647 9.73979 6.81223 10.1873C7.25977 10.6349 7.86675 10.8863 8.49966 10.8863C9.13256 10.8863 9.73955 10.6349 10.1871 10.1873C10.6346 9.73979 10.886 9.13281 10.886 8.4999C10.886 7.86699 10.6346 7.26001 10.1871 6.81248C9.73955 6.36495 9.13256 6.11353 8.49966 6.11353ZM5.05078 8.4999C5.05078 8.04699 5.13999 7.59851 5.31331 7.18007C5.48663 6.76164 5.74068 6.38144 6.06093 6.06118C6.38119 5.74092 6.76139 5.48688 7.17983 5.31356C7.59827 5.14023 8.04674 5.05103 8.49966 5.05103C8.95257 5.05103 9.40105 5.14023 9.81948 5.31356C10.2379 5.48688 10.6181 5.74092 10.9384 6.06118C11.2586 6.38144 11.5127 6.76164 11.686 7.18007C11.8593 7.59851 11.9485 8.04699 11.9485 8.4999C11.9485 9.4146 11.5852 10.2918 10.9384 10.9386C10.2916 11.5854 9.41435 11.9488 8.49966 11.9488C7.58496 11.9488 6.70772 11.5854 6.06093 10.9386C5.41414 10.2918 5.05078 9.4146 5.05078 8.4999Z" fill="#1C2540"/>
    </g>
    <defs>
        <clipPath id="clip0">
            <rect width="17" height="17" fill="white"/>
        </clipPath>
    </defs>
</svg>
