<svg class="study-icon" width="20" height="16" viewBox="0 0 20 16" fill="none" xmlns="http://www.w3.org/2000/svg">
    <path fill-rule="evenodd" clip-rule="evenodd" d="M1.19506 2.309V14.1675C2.29212 13.7493 3.71304 13.3406 5.1232 13.1995C6.43059 13.0669 7.84554 13.1529 8.96292 13.7875V2.1405C8.18135 1.31711 6.83333 1.08168 5.2439 1.24182C3.76921 1.39 2.25268 1.86683 1.19506 2.309ZM10.158 2.1405V13.7875C11.2753 13.1541 12.6915 13.0669 13.9977 13.1983C15.4079 13.3418 16.83 13.7493 17.9258 14.1675V2.309C16.8682 1.86683 15.3517 1.39 13.877 1.24182C12.2876 1.08168 10.9395 1.31711 10.158 2.1405ZM9.56044 1.06017C8.38332 0.0479562 6.67678 -0.102621 5.1232 0.0527364C3.31389 0.23558 1.48784 0.855814 0.350151 1.37327C0.245762 1.42075 0.15724 1.49726 0.0951515 1.59368C0.0330632 1.6901 3.17543e-05 1.80234 0 1.91702L0 15.0626C2.76799e-05 15.1626 0.0251406 15.261 0.0730383 15.3487C0.120936 15.4365 0.190088 15.5108 0.274159 15.5649C0.35823 15.619 0.454533 15.6512 0.554247 15.6584C0.653961 15.6657 0.753898 15.6478 0.844904 15.6064C1.89894 15.1284 3.59712 14.5535 5.24271 14.3874C6.92654 14.2177 8.3379 14.4914 9.09437 15.4355C9.15036 15.5053 9.22131 15.5616 9.30198 15.6003C9.38264 15.639 9.47097 15.6591 9.56044 15.6591C9.64992 15.6591 9.73825 15.639 9.81891 15.6003C9.89958 15.5616 9.97053 15.5053 10.0265 15.4355C10.783 14.4914 12.1943 14.2177 13.877 14.3874C15.5238 14.5535 17.2231 15.1284 18.276 15.6064C18.367 15.6478 18.4669 15.6657 18.5666 15.6584C18.6664 15.6512 18.7627 15.619 18.8467 15.5649C18.9308 15.5108 19 15.4365 19.0479 15.3487C19.0957 15.261 19.1209 15.1626 19.1209 15.0626V1.91702C19.1209 1.80234 19.0878 1.6901 19.0257 1.59368C18.9636 1.49726 18.8751 1.42075 18.7707 1.37327C17.633 0.855814 15.807 0.23558 13.9977 0.0527364C12.4441 -0.103816 10.7376 0.0479562 9.56044 1.06017Z" fill="#1C2540"/>
</svg>
