<svg class="study-icon-f" width="25" height="20" viewBox="0 0 25 20" xmlns="http://www.w3.org/2000/svg">
    <path fill-rule="evenodd" clip-rule="evenodd" d="M12.5 1.35398C10.9609 0.0612467 8.72969 -0.131061 6.69844 0.0673518C4.33281 0.300868 1.94531 1.09299 0.457813 1.75386C0.321327 1.8145 0.205586 1.91221 0.124408 2.03535C0.0432292 2.15849 4.15178e-05 2.30185 0 2.44831L0 19.2371C3.61906e-05 19.3648 0.0328705 19.4904 0.0954955 19.6025C0.15812 19.7146 0.248534 19.8095 0.358454 19.8786C0.468375 19.9477 0.594288 19.9887 0.724661 19.998C0.855034 20.0072 0.985699 19.9844 1.10469 19.9315C2.48281 19.321 4.70312 18.5869 6.85469 18.3748C9.05625 18.158 10.9016 18.5075 11.8906 19.7133C11.9638 19.8024 12.0566 19.8743 12.1621 19.9238C12.2675 19.9732 12.383 19.9989 12.5 19.9989C12.617 19.9989 12.7325 19.9732 12.8379 19.9238C12.9434 19.8743 13.0362 19.8024 13.1094 19.7133C14.0984 18.5075 15.9438 18.158 18.1438 18.3748C20.2969 18.5869 22.5188 19.321 23.8953 19.9315C24.0143 19.9844 24.145 20.0072 24.2753 19.998C24.4057 19.9887 24.5316 19.9477 24.6415 19.8786C24.7515 19.8095 24.8419 19.7146 24.9045 19.6025C24.9671 19.4904 25 19.3648 25 19.2371V2.44831C25 2.30185 24.9568 2.15849 24.8756 2.03535C24.7944 1.91221 24.6787 1.8145 24.5422 1.75386C23.0547 1.09299 20.6672 0.300868 18.3016 0.0673518C16.2703 -0.132587 14.0391 0.0612467 12.5 1.35398Z"/>
</svg>
