<svg class="uni-icon" width="70" height="70" viewBox="0 0 70 70" fill="none" xmlns="http://www.w3.org/2000/svg">
    <path d="M35 70C54.33 70 70 54.33 70 35C70 15.67 54.33 0 35 0C15.67 0 0 15.67 0 35C0 54.33 15.67 70 35 70Z" fill="#1C2540"/>
    <path d="M16.66 18.326C16.66 18.718 16.674 18.732 17.654 18.816C22.148 19.264 26.544 23.03 29.554 28.994C30.282 30.464 31.136 33.026 31.458 34.72C31.682 35.882 31.71 36.89 31.71 42.56C31.71 49.882 31.696 50.064 30.786 50.974C30.128 51.632 29.162 51.94 27.762 51.94H26.74V52.36V52.78H34.23H41.72V52.374V51.982L40.432 51.912C38.346 51.8 37.422 51.24 36.988 49.84C36.778 49.168 36.75 48.342 36.75 42.98C36.75 37.212 36.764 36.82 37.058 35.49C38.374 29.568 42.21 22.736 45.248 20.888C46.088 20.384 47.334 20.062 47.908 20.202C48.762 20.426 49 21.084 48.65 22.26C48.342 23.268 48.44 23.912 49.014 24.57C50.246 25.97 52.528 25.662 53.354 23.982C53.816 23.058 53.83 21.336 53.382 20.496C51.982 17.878 47.824 17.136 44.674 18.942C43.736 19.474 42.602 20.426 41.72 21.378C39.158 24.164 36.666 29.218 35.868 33.18L35.63 34.37L35.518 33.74C34.202 26.656 31.374 22.442 26.25 19.908C23.842 18.718 20.258 17.92 17.346 17.92C16.688 17.92 16.66 17.934 16.66 18.326Z" fill="#FCA95C"/>
</svg>
