<svg viewBox="0 0 33 41" fill="none" xmlns="http://www.w3.org/2000/svg">
<path class="bg" d="M1.2 37.9L0 4.89998C0 3.79998 0.8 2.89997 1.9 2.79997L29.9 0.999975C30.1707 0.972489 30.4442 1.00054 30.7037 1.08241C30.9632 1.16427 31.2033 1.29824 31.4093 1.4761C31.6152 1.65396 31.7827 1.87198 31.9015 2.11681C32.0202 2.36164 32.0878 2.62813 32.1 2.89997C32.1008 2.9333 32.1008 2.96665 32.1 2.99997V39C32.1 39.5304 31.8893 40.0391 31.5142 40.4142C31.1391 40.7893 30.6304 41 30.1 41C30.0667 41.0008 30.0333 41.0008 30 41L3.2 39.8C2.66957 39.8 2.16086 39.5893 1.78579 39.2142C1.41071 38.8391 1.2 38.3304 1.2 37.8V37.9Z" fill="#FF4785"/>
<path class="s" d="M23.7003 5.99996L24.0003 1.19996L27.9003 0.899963L28.0003 5.69996C27.996 5.75587 27.9762 5.80946 27.943 5.85466C27.9098 5.89986 27.8646 5.93486 27.8126 5.95568C27.7605 5.9765 27.7037 5.98232 27.6485 5.97247C27.5933 5.96263 27.5419 5.93751 27.5003 5.89996L26.0003 4.79996L24.3003 6.19996C24.2531 6.24786 24.1911 6.2785 24.1244 6.28695C24.0576 6.2954 23.99 6.28119 23.9323 6.24658C23.8746 6.21197 23.8303 6.15898 23.8063 6.09612C23.7824 6.03326 23.7803 5.96418 23.8003 5.89996L23.7003 5.99996ZM18.7003 16C18.7003 16.9 24.0003 16.5 24.7003 16C24.7003 10.6 21.9003 7.79996 16.7003 7.79996C11.4003 7.79996 8.5003 10.6 8.5003 14.9C8.5003 22.3 18.5003 22.5 18.5003 26.5C18.5003 27.7 18.0003 28.4 16.7003 28.4C15.1003 28.4 14.5003 27.5 14.6003 24.8C14.6003 24.2 8.5003 24 8.3003 24.8C7.8003 31.5 12.0003 33.4 16.8003 33.4C21.4003 33.4 25.1003 30.9 25.1003 26.4C25.1003 18.5 14.9003 18.7 14.9003 14.8C14.9003 13.2 16.1003 13 16.9003 13C17.5003 13 18.9003 13 18.8003 16H18.7003Z" fill="white"/>
</svg>
