<svg width="25" height="25" viewBox="0 0 25 25" fill="none" xmlns="http://www.w3.org/2000/svg">
    <path fill-rule="evenodd" clip-rule="evenodd" d="M7.25943 7.25943C7.332 7.18667 7.41821 7.12895 7.51313 7.08956C7.60804 7.05018 7.70979 7.02991 7.81255 7.02991C7.91531 7.02991 8.01707 7.05018 8.11198 7.08956C8.2069 7.12895 8.29311 7.18667 8.36568 7.25943L12.5001 11.3954L16.6344 7.25943C16.7071 7.18679 16.7933 7.12917 16.8882 7.08986C16.9831 7.05055 17.0848 7.03032 17.1876 7.03032C17.2903 7.03032 17.392 7.05055 17.4869 7.08986C17.5818 7.12917 17.668 7.18679 17.7407 7.25943C17.8133 7.33207 17.8709 7.4183 17.9102 7.5132C17.9496 7.60811 17.9698 7.70983 17.9698 7.81255C17.9698 7.91528 17.9496 8.017 17.9102 8.1119C17.8709 8.20681 17.8133 8.29304 17.7407 8.36568L13.6047 12.5001L17.7407 16.6344C17.8133 16.7071 17.8709 16.7933 17.9102 16.8882C17.9496 16.9831 17.9698 17.0848 17.9698 17.1876C17.9698 17.2903 17.9496 17.392 17.9102 17.4869C17.8709 17.5818 17.8133 17.668 17.7407 17.7407C17.668 17.8133 17.5818 17.8709 17.4869 17.9102C17.392 17.9496 17.2903 17.9698 17.1876 17.9698C17.0848 17.9698 16.9831 17.9496 16.8882 17.9102C16.7933 17.8709 16.7071 17.8133 16.6344 17.7407L12.5001 13.6047L8.36568 17.7407C8.29304 17.8133 8.20681 17.8709 8.1119 17.9102C8.017 17.9496 7.91528 17.9698 7.81255 17.9698C7.70983 17.9698 7.60811 17.9496 7.5132 17.9102C7.4183 17.8709 7.33207 17.8133 7.25943 17.7407C7.18679 17.668 7.12917 17.5818 7.08986 17.4869C7.05055 17.392 7.03032 17.2903 7.03032 17.1876C7.03032 17.0848 7.05055 16.9831 7.08986 16.8882C7.12917 16.7933 7.18679 16.7071 7.25943 16.6344L11.3954 12.5001L7.25943 8.36568C7.18667 8.29311 7.12895 8.2069 7.08956 8.11198C7.05018 8.01707 7.02991 7.91531 7.02991 7.81255C7.02991 7.70979 7.05018 7.60804 7.08956 7.51313C7.12895 7.41821 7.18667 7.332 7.25943 7.25943Z" fill="#1C2540"/>
</svg>
