<svg width="24" height="24" viewBox="0 0 24 24" fill="none" xmlns="http://www.w3.org/2000/svg">
<path d="M16.8184 15.8028C16.8742 15.9236 16.902 16.0444 16.902 16.1652C16.902 16.3788 16.8138 16.56 16.6373 16.7086C16.47 16.8573 16.2749 16.9316 16.052 16.9316C15.9033 16.9316 15.764 16.8945 15.6339 16.8201C15.5038 16.7365 15.4016 16.6111 15.3273 16.4439L14.4912 14.5765H9.58591L8.74978 16.4439C8.67545 16.6111 8.57326 16.7365 8.4432 16.8201C8.31313 16.8945 8.16913 16.9316 8.0112 16.9316C7.79752 16.9316 7.60242 16.8573 7.42591 16.7086C7.24939 16.56 7.16113 16.3788 7.16113 16.1652C7.16113 16.0444 7.189 15.9236 7.24475 15.8028L11.0909 7.5391C11.1746 7.35329 11.3 7.21394 11.4672 7.12103C11.6437 7.01884 11.8295 6.96774 12.0246 6.96774C12.2197 6.96774 12.4009 7.01884 12.5681 7.12103C12.7446 7.21394 12.8747 7.35329 12.9583 7.5391L16.8184 15.8028ZM10.1991 13.183H13.878L12.0386 9.04413L10.1991 13.183Z" />
</svg>
