<svg width="124" height="124" viewBox="0 0 124 124" fill="none" xmlns="http://www.w3.org/2000/svg">
<path d="M98.1667 15.5H25.8333C20.15 15.5 15.5 20.15 15.5 25.8333V98.1667C15.5 103.85 20.15 108.5 25.8333 108.5H98.1667C103.85 108.5 108.5 103.85 108.5 98.1667V25.8333C108.5 20.15 103.85 15.5 98.1667 15.5Z"/>
<path class="A" d="M86.896 81.648C87.184 82.272 87.328 82.896 87.328 83.52C87.328 84.624 86.872 85.56 85.96 86.328C85.096 87.096 84.088 87.48 82.936 87.48C82.168 87.48 81.448 87.288 80.776 86.904C80.104 86.472 79.576 85.824 79.192 84.96L74.872 75.312H49.528L45.208 84.96C44.824 85.824 44.296 86.472 43.624 86.904C42.952 87.288 42.208 87.48 41.392 87.48C40.288 87.48 39.28 87.096 38.368 86.328C37.456 85.56 37 84.624 37 83.52C37 82.896 37.144 82.272 37.432 81.648L57.304 38.952C57.736 37.992 58.384 37.272 59.248 36.792C60.16 36.264 61.12 36 62.128 36C63.136 36 64.072 36.264 64.936 36.792C65.848 37.272 66.52 37.992 66.952 38.952L86.896 81.648ZM52.696 68.112H71.704L62.2 46.728L52.696 68.112Z"/>
</svg>
