<svg width="24" height="24" viewBox="0 0 24 24" fill="none" xmlns="http://www.w3.org/2000/svg">
<path d="M10.8711 5.56451C10.8711 4.74451 11.5511 4.06451 12.3711 4.06451C13.1911 4.06451 13.8711 4.74451 13.8711 5.56451V14.5645C13.8711 15.3845 13.1911 16.0645 12.3711 16.0645C11.5511 16.0645 10.8711 15.3845 10.8711 14.5645V11.0645H6.87109V14.5645C6.87109 15.3845 6.19109 16.0645 5.37109 16.0645C4.55109 16.0645 3.87109 15.3845 3.87109 14.5645V5.56451C3.87109 4.74451 4.55109 4.06451 5.37109 4.06451C6.19109 4.06451 6.87109 4.74451 6.87109 5.56451V8.06451H10.8711V5.56451Z"/>
<path d="M21.9679 16.4677V17.9677C21.9679 19.0677 21.0679 19.9677 19.9679 19.9677H16.9679C16.4179 19.9677 15.9679 19.5177 15.9679 18.9677C15.9679 18.4177 16.4179 17.9677 16.9679 17.9677H19.9679V15.9677H18.9679C18.4179 15.9677 17.9679 15.5177 17.9679 14.9677C17.9679 14.4177 18.4179 13.9677 18.9679 13.9677H19.9679V11.9677H16.9679C16.4179 11.9677 15.9679 11.5177 15.9679 10.9677C15.9679 10.4177 16.4179 9.96774 16.9679 9.96774H19.9679C21.0679 9.96774 21.9679 10.8677 21.9679 11.9677V13.4677C21.9679 14.2977 21.2979 14.9677 20.4679 14.9677C21.2979 14.9677 21.9679 15.6377 21.9679 16.4677Z"/>
</svg>
