<svg width="24" height="24" viewBox="0 0 24 24" fill="none" xmlns="http://www.w3.org/2000/svg">
<path d="M10.4518 8.70968H21.4559C22.343 8.70968 23.0688 7.98388 23.0688 7.09678C23.0688 6.20968 22.343 5.48387 21.4559 5.48387H10.4518C9.56474 5.48387 8.83893 6.20968 8.83893 7.09678C8.83893 7.98388 9.56474 8.70968 10.4518 8.70968ZM21.4559 15.1613H10.4518C9.56474 15.1613 8.83893 15.8871 8.83893 16.7742C8.83893 17.6613 9.56474 18.3871 10.4518 18.3871H21.4559C22.343 18.3871 23.0688 17.6613 23.0688 16.7742C23.0688 15.8871 22.343 15.1613 21.4559 15.1613ZM1.58087 5.48387H2.38732V9.51613C2.38732 9.96775 2.74216 10.3226 3.19377 10.3226C3.64538 10.3226 4.00022 9.96775 4.00022 9.51613V4.67742C4.00022 4.22581 3.64538 3.87097 3.19377 3.87097H1.58087C1.12925 3.87097 0.774414 4.22581 0.774414 4.67742C0.774414 5.12904 1.12925 5.48387 1.58087 5.48387ZM4.80667 13.5484H1.58087C1.12925 13.5484 0.774414 13.9032 0.774414 14.3548C0.774414 14.8065 1.12925 15.1613 1.58087 15.1613H3.67764L0.967962 18.3226C0.83893 18.4677 0.774414 18.6613 0.774414 18.8387V19.1936C0.774414 19.6452 1.12925 20 1.58087 20H4.80667C5.25828 20 5.61312 19.6452 5.61312 19.1936C5.61312 18.7419 5.25828 18.3871 4.80667 18.3871H2.7099L5.41958 15.2258C5.54861 15.0806 5.61312 14.8871 5.61312 14.7097V14.3548C5.61312 13.9032 5.25828 13.5484 4.80667 13.5484Z"/>
</svg>
