<svg width="24" height="24" viewBox="0 0 24 24" fill="none" xmlns="http://www.w3.org/2000/svg">
<path fill-rule="evenodd" clip-rule="evenodd" d="M8.24946 5.84973C8.31747 5.59587 8.54751 5.41936 8.81032 5.41936H21.5C21.8207 5.41936 22.0806 5.67932 22.0806 6C22.0806 6.32068 21.8207 6.58065 21.5 6.58065H9.25587L6.19292 18.0121C6.1249 18.266 5.89486 18.4425 5.63205 18.4425C5.36924 18.4425 5.1392 18.2659 5.07119 18.0121L3.30996 11.4382C3.22698 11.1284 3.41081 10.81 3.72057 10.727C4.03032 10.644 4.34871 10.8279 4.43169 11.1376L5.63209 15.6182L8.24946 5.84973Z"/>
<path d="M19.6478 15.7992C19.8707 16.0222 19.9822 16.2761 19.9822 16.561C19.9822 16.8336 19.8769 17.0813 19.6663 17.3043C19.4558 17.5148 19.208 17.6201 18.9231 17.6201C18.6134 17.6201 18.3471 17.4901 18.1241 17.2299L15.5043 14.3314L12.8844 17.2299C12.6491 17.4777 12.3827 17.6016 12.0854 17.6016C11.8129 17.6016 11.5714 17.4963 11.3608 17.2857C11.1502 17.0751 11.0449 16.8336 11.0449 16.561C11.0449 16.2761 11.1564 16.0222 11.3794 15.7992L14.0921 12.8449L11.528 10.0578C11.3051 9.83484 11.1936 9.58091 11.1936 9.296C11.1936 9.0111 11.2989 8.76955 11.5094 8.57136C11.72 8.36078 11.9616 8.25549 12.2341 8.25549C12.5314 8.25549 12.7977 8.37936 13.0331 8.6271L15.5043 11.3399L17.9755 8.6271C18.2109 8.37936 18.4772 8.25549 18.7745 8.25549C19.0594 8.25549 19.3009 8.36078 19.4991 8.57136C19.7097 8.76955 19.815 9.0111 19.815 9.296C19.815 9.58091 19.7035 9.83484 19.4805 10.0578L16.9164 12.8449L19.6478 15.7992Z"/>
</svg>
