<svg width="24" height="24" viewBox="0 0 24 24" fill="none" xmlns="http://www.w3.org/2000/svg">
<path d="M0.386719 16.9355C0.386719 15.5968 1.46736 14.5161 2.80607 14.5161C4.14478 14.5161 5.22543 15.5968 5.22543 16.9355C5.22543 18.2742 4.14478 19.3548 2.80607 19.3548C1.46736 19.3548 0.386719 18.2742 0.386719 16.9355Z"/>
<path d="M0.386719 7.25807C0.386719 5.91936 1.46736 4.83871 2.80607 4.83871C4.14478 4.83871 5.22543 5.91936 5.22543 7.25807C5.22543 8.59678 4.14478 9.67742 2.80607 9.67742C1.46736 9.67742 0.386719 8.59678 0.386719 7.25807Z"/>
<path d="M21.9352 18.5484H10.6771C9.79001 18.5484 9.0642 17.8226 9.0642 16.9355C9.0642 16.0484 9.79001 15.3226 10.6771 15.3226H21.9352C22.8223 15.3226 23.5481 16.0484 23.5481 16.9355C23.5481 17.8226 22.8223 18.5484 21.9352 18.5484Z"/>
<path d="M10.6771 8.87097C9.79001 8.87097 9.0642 8.14517 9.0642 7.25807C9.0642 6.37097 9.79001 5.64517 10.6771 5.64517H21.9352C22.8223 5.64517 23.5481 6.37097 23.5481 7.25807C23.5481 8.14517 22.8223 8.87097 21.9352 8.87097H10.6771Z"/>
</svg>
