<svg width="64" height="64" viewBox="0 0 64 64" fill="none" xmlns="http://www.w3.org/2000/svg">
<circle cx="32" cy="32" r="32" fill="#1C2540"/>
<path d="M30.375 52.2188C29.5625 52.2188 28.7604 52.1354 27.9688 51.9688C27.1979 51.8229 26.4479 51.5625 25.7188 51.1875C25.0104 50.8333 24.3542 50.3646 23.75 49.7812C23.1458 49.1979 22.6146 48.4688 22.1562 47.5938C21.5521 46.4062 21.1458 45.1771 20.9375 43.9062C20.75 42.6146 20.6562 41.3125 20.6562 40C20.6562 39.2292 20.7188 38.3333 20.8438 37.3125C20.9896 36.2917 21.1354 35.2812 21.2812 34.2812C21.4479 33.2604 21.5938 32.3125 21.7188 31.4375C21.8438 30.5417 21.9062 29.8438 21.9062 29.3438C21.9062 28.7396 21.8021 28.2083 21.5938 27.75C21.4062 27.2708 21.0833 27.0312 20.625 27.0312C20.0417 27.0312 19.4792 27.1458 18.9375 27.375C18.3958 27.6042 17.8542 27.8542 17.3125 28.125C17.0833 28.25 16.8333 28.3854 16.5625 28.5312C16.3125 28.6771 16.0625 28.8125 15.8125 28.9375C15.5625 29.0625 15.3229 29.1771 15.0938 29.2812C14.8854 29.3646 14.6875 29.4062 14.5 29.4062C14.125 29.4062 13.7604 29.3333 13.4062 29.1875C13.0521 29.0208 12.7396 28.8021 12.4688 28.5312C12.1979 28.2396 11.9792 27.9167 11.8125 27.5625C11.6667 27.1875 11.5938 26.7812 11.5938 26.3438C11.5938 26.0312 11.7812 25.6875 12.1562 25.3125C12.5521 24.9167 13.0729 24.5208 13.7188 24.125C14.3646 23.7083 15.1042 23.3125 15.9375 22.9375C16.7917 22.5625 17.6667 22.2292 18.5625 21.9375C19.4792 21.625 20.3958 21.3854 21.3125 21.2188C22.25 21.0312 23.1146 20.9375 23.9062 20.9375C24.9896 20.9375 25.8854 21.0625 26.5938 21.3125C27.3229 21.5625 27.8958 21.9479 28.3125 22.4688C28.75 22.9688 29.0521 23.6042 29.2188 24.375C29.4062 25.1458 29.5 26.0521 29.5 27.0938C29.5 27.7188 29.4167 28.5833 29.25 29.6875C29.0833 30.7708 28.8958 31.9271 28.6875 33.1562C28.5 34.3854 28.3229 35.5833 28.1562 36.75C27.9896 37.9167 27.9062 38.8854 27.9062 39.6562C27.9062 41.8438 28.2812 43.4583 29.0312 44.5C29.8021 45.5208 30.75 46.0312 31.875 46.0312C33.0833 46.0312 34.3021 45.7708 35.5312 45.25C36.7812 44.7292 37.9062 43.9688 38.9062 42.9688C39.6146 42.2812 40.2188 41.5208 40.7188 40.6875C41.2396 39.8542 41.6667 38.9896 42 38.0938C42.3333 37.1979 42.5833 36.2812 42.75 35.3438C42.9167 34.4062 43 33.4792 43 32.5625C43 30.6458 42.7292 29.0729 42.1875 27.8438C41.6458 26.6146 40.8958 25.5938 39.9375 24.7812C39.3958 24.3229 38.9583 23.8646 38.625 23.4062C38.2917 22.9271 38.125 22.2604 38.125 21.4062C38.125 21.0938 38.2188 20.6979 38.4062 20.2188C38.5938 19.7188 38.875 19.25 39.25 18.8125C39.625 18.3542 40.0833 17.9583 40.625 17.625C41.1875 17.2917 41.8333 17.125 42.5625 17.125C42.9375 17.125 43.3229 17.2083 43.7188 17.375C44.1146 17.5417 44.5 17.7708 44.875 18.0625C45.25 18.3333 45.6042 18.6458 45.9375 19C46.2708 19.3333 46.5729 19.6771 46.8438 20.0312C47.8229 21.3021 48.5729 22.8646 49.0938 24.7188C49.6354 26.5521 49.9062 28.6354 49.9062 30.9688C49.9062 32.3854 49.7188 33.8958 49.3438 35.5C48.9688 37.0833 48.4062 38.6667 47.6562 40.25C46.9271 41.8125 46.0104 43.3229 44.9062 44.7812C43.8229 46.2188 42.5521 47.4896 41.0938 48.5938C39.6562 49.6979 38.0417 50.5729 36.25 51.2188C34.4583 51.8854 32.5 52.2188 30.375 52.2188Z" fill="#FCA95C"/>
</svg>
