<svg width="25" height="25" viewBox="0 0 25 25" fill="none" xmlns="http://www.w3.org/2000/svg">
    <path fill-rule="evenodd" clip-rule="evenodd" d="M23.9904 4.13431C24.0631 4.20688 24.1209 4.29309 24.1603 4.388C24.1996 4.48292 24.2199 4.58467 24.2199 4.68743C24.2199 4.79019 24.1996 4.89195 24.1603 4.98686C24.1209 5.08177 24.0631 5.16799 23.9904 5.24056L13.0529 16.1781C12.9803 16.2508 12.8941 16.3085 12.7992 16.3479C12.7043 16.3873 12.6025 16.4076 12.4998 16.4076C12.397 16.4076 12.2953 16.3873 12.2003 16.3479C12.1054 16.3085 12.0192 16.2508 11.9466 16.1781L7.25914 11.4906C7.1865 11.4179 7.12888 11.3317 7.08957 11.2368C7.05026 11.1419 7.03003 11.0402 7.03003 10.9374C7.03003 10.8347 7.05026 10.733 7.08957 10.6381C7.12888 10.5432 7.1865 10.4569 7.25914 10.3843C7.33178 10.3117 7.41801 10.254 7.51292 10.2147C7.60782 10.1754 7.70954 10.1552 7.81227 10.1552C7.91499 10.1552 8.01671 10.1754 8.11162 10.2147C8.20652 10.254 8.29275 10.3117 8.36539 10.3843L12.4998 14.5202L22.8841 4.13431C22.9567 4.06155 23.0429 4.00383 23.1378 3.96444C23.2328 3.92506 23.3345 3.90479 23.4373 3.90479C23.54 3.90479 23.6418 3.92506 23.7367 3.96444C23.8316 4.00383 23.9178 4.06155 23.9904 4.13431Z" fill="#1B998B"/>
    <path fill-rule="evenodd" clip-rule="evenodd" d="M12.5 3.90623C10.8003 3.90623 9.13882 4.41024 7.72558 5.35453C6.31235 6.29883 5.21087 7.64099 4.56042 9.21129C3.90998 10.7816 3.7398 12.5095 4.07139 14.1765C4.40298 15.8436 5.22146 17.3748 6.42332 18.5767C7.62517 19.7785 9.15643 20.597 10.8235 20.9286C12.4905 21.2602 14.2184 21.09 15.7887 20.4396C17.359 19.7891 18.7012 18.6876 19.6455 17.2744C20.5898 15.8612 21.0938 14.1997 21.0938 12.5C21.0938 12.2928 21.1761 12.0941 21.3226 11.9475C21.4691 11.801 21.6678 11.7187 21.875 11.7187C22.0822 11.7187 22.2809 11.801 22.4274 11.9475C22.574 12.0941 22.6563 12.2928 22.6563 12.5C22.656 14.7357 21.918 16.9088 20.5568 18.6823C19.1956 20.4558 17.2873 21.7307 15.1277 22.3091C12.9681 22.8875 10.6781 22.7372 8.61263 21.8815C6.5472 21.0258 4.82183 19.5125 3.70412 17.5762C2.5864 15.64 2.13879 13.3891 2.43072 11.1725C2.72264 8.95599 3.73777 6.8977 5.31869 5.31689C6.89961 3.73607 8.95796 2.72107 11.1745 2.42929C13.3911 2.13751 15.642 2.58526 17.5781 3.7031C17.6715 3.75194 17.754 3.81916 17.8207 3.90072C17.8874 3.98228 17.937 4.07649 17.9663 4.17768C17.9957 4.27888 18.0043 4.38496 17.9916 4.48956C17.9789 4.59416 17.9451 4.6951 17.8924 4.78633C17.8397 4.87755 17.769 4.95716 17.6847 5.02038C17.6004 5.08359 17.5042 5.1291 17.4019 5.15417C17.2995 5.17924 17.1932 5.18335 17.0892 5.16625C16.9852 5.14914 16.8858 5.11119 16.7969 5.05466C15.491 4.29949 14.0085 3.90327 12.5 3.90623Z" fill="#1B998B"/>
</svg>
