<svg class="decks-icon" width="18" height="18" viewBox="0 0 18 18" fill="none" xmlns="http://www.w3.org/2000/svg">
    <path fill-rule="evenodd" clip-rule="evenodd" d="M3.57441 10.4634L0.296385 12.2112C0.206842 12.259 0.131973 12.3303 0.0797726 12.4173C0.0275722 12.5044 0 12.604 0 12.7056C0 12.8071 0.0275722 12.9067 0.0797726 12.9938C0.131973 13.0809 0.206842 13.1521 0.296385 13.2L8.70445 17.6843C8.78555 17.7274 8.87603 17.75 8.96791 17.75C9.05979 17.75 9.15026 17.7274 9.23136 17.6843L17.6394 13.2C17.729 13.1521 17.8038 13.0809 17.856 12.9938C17.9082 12.9067 17.9358 12.8071 17.9358 12.7056C17.9358 12.604 17.9082 12.5044 17.856 12.4173C17.8038 12.3303 17.729 12.259 17.6394 12.2112L14.3648 10.4634L13.1731 11.0991L16.1865 12.7056L8.96903 16.5542L1.75154 12.7056L4.76499 11.0991L3.57329 10.4634H3.57441Z" fill="black"/>
    <path fill-rule="evenodd" clip-rule="evenodd" d="M3.57441 6.72641L0.296385 8.47417C0.206842 8.52201 0.131973 8.59327 0.0797726 8.68035C0.0275722 8.76742 0 8.86704 0 8.96856C0 9.07009 0.0275722 9.1697 0.0797726 9.25678C0.131973 9.34385 0.206842 9.41511 0.296385 9.46296L8.70445 13.9473C8.78555 13.9904 8.87603 14.013 8.96791 14.013C9.05979 14.013 9.15026 13.9904 9.23136 13.9473L17.6394 9.46296C17.729 9.41511 17.8038 9.34385 17.856 9.25678C17.9082 9.1697 17.9358 9.07009 17.9358 8.96856C17.9358 8.86704 17.9082 8.76742 17.856 8.68035C17.8038 8.59327 17.729 8.52201 17.6394 8.47417L14.3648 6.72641L13.1731 7.36206L16.1865 8.96856L8.96903 12.8172L1.75154 8.96856L4.76499 7.36206L3.57329 6.72641H3.57441Z" fill="black"/>
    <path fill-rule="evenodd" clip-rule="evenodd" d="M8.70445 0.06577C8.78555 0.022586 8.87603 0 8.96791 0C9.05979 0 9.15026 0.022586 9.23136 0.06577L17.6394 4.55008C17.729 4.59792 17.8038 4.66918 17.856 4.75626C17.9082 4.84333 17.9358 4.94295 17.9358 5.04447C17.9358 5.14599 17.9082 5.24561 17.856 5.33268C17.8038 5.41976 17.729 5.49102 17.6394 5.53886L9.23136 10.0232C9.15026 10.0664 9.05979 10.0889 8.96791 10.0889C8.87603 10.0889 8.78555 10.0664 8.70445 10.0232L0.296385 5.53886C0.206842 5.49102 0.131973 5.41976 0.0797726 5.33268C0.0275722 5.24561 0 5.14599 0 5.04447C0 4.94295 0.0275722 4.84333 0.0797726 4.75626C0.131973 4.66918 0.206842 4.59792 0.296385 4.55008L8.70445 0.06577ZM1.75154 5.04447L8.96791 8.89312L16.1854 5.04447L8.96791 1.19581L1.75042 5.04447H1.75154Z" fill="black"/>
</svg>
