<svg class="ok-bookmark-icon" width="15" height="20" viewBox="0 0 15 20" xmlns="http://www.w3.org/2000/svg">
    <path fill-rule="evenodd" clip-rule="evenodd" d="M2.49994 0C1.83692 0 1.20105 0.263386 0.732216 0.732216C0.263386 1.20105 1.67332e-07 1.83692 1.67332e-07 2.49994V19.3746C-7.92405e-05 19.4831 0.028105 19.5898 0.0817789 19.6841C0.135453 19.7784 0.212766 19.8572 0.306108 19.9125C0.39945 19.9679 0.505602 19.998 0.614117 19.9999C0.722632 20.0018 0.829768 19.9754 0.924979 19.9233L7.49983 16.3359L14.0747 19.9233C14.1699 19.9754 14.277 20.0018 14.3855 19.9999C14.4941 19.998 14.6002 19.9679 14.6936 19.9125C14.7869 19.8572 14.8642 19.7784 14.9179 19.6841C14.9716 19.5898 14.9997 19.4831 14.9997 19.3746V2.49994C14.9997 1.83692 14.7363 1.20105 14.2674 0.732216C13.7986 0.263386 13.1627 0 12.4997 0L2.49994 0ZM11.0672 7.31733C11.1846 7.19998 11.2505 7.04081 11.2505 6.87484C11.2505 6.70888 11.1846 6.54971 11.0672 6.43235C10.9499 6.315 10.7907 6.24907 10.6248 6.24907C10.4588 6.24907 10.2996 6.315 10.1823 6.43235L6.87484 9.74103L5.44238 8.30731C5.38427 8.2492 5.31528 8.20311 5.23936 8.17166C5.16344 8.14021 5.08206 8.12403 4.99989 8.12403C4.91771 8.12403 4.83634 8.14021 4.76041 8.17166C4.68449 8.20311 4.61551 8.2492 4.5574 8.30731C4.49929 8.36542 4.45319 8.4344 4.42175 8.51033C4.3903 8.58625 4.37411 8.66762 4.37411 8.7498C4.37411 8.83198 4.3903 8.91335 4.42175 8.98927C4.45319 9.0652 4.49929 9.13418 4.5574 9.19229L6.43235 11.0672C6.49041 11.1255 6.55938 11.1716 6.63531 11.2031C6.71124 11.2346 6.79264 11.2509 6.87484 11.2509C6.95705 11.2509 7.03845 11.2346 7.11438 11.2031C7.19031 11.1716 7.25928 11.1255 7.31733 11.0672L11.0672 7.31733Z"/>
</svg>
