<svg class="glasses-icon" width="19" height="7" viewBox="0 0 19 7" fill="none" xmlns="http://www.w3.org/2000/svg">
    <path fill-rule="evenodd" clip-rule="evenodd" d="M4.66079 1.16731C4.04273 1.16731 3.44998 1.41284 3.01295 1.84987C2.57592 2.2869 2.33039 2.87965 2.33039 3.49771C2.33039 4.11577 2.57592 4.70851 3.01295 5.14554C3.44998 5.58258 4.04273 5.8281 4.66079 5.8281C5.27885 5.8281 5.87159 5.58258 6.30863 5.14554C6.74566 4.70851 6.99118 4.11577 6.99118 3.49771C6.99118 2.87965 6.74566 2.2869 6.30863 1.84987C5.87159 1.41284 5.27885 1.16731 4.66079 1.16731V1.16731ZM7.71943 1.80468C7.36861 1.16994 6.82906 0.66003 6.17553 0.345608C5.52199 0.031185 4.78685 -0.0721837 4.07195 0.0498252C3.35705 0.171834 2.6978 0.513179 2.18555 1.02656C1.6733 1.53994 1.3334 2.19994 1.21297 2.91511H0.582599C0.428084 2.91511 0.279898 2.97649 0.170639 3.08575C0.0613807 3.19501 0 3.34319 0 3.49771C0 3.65222 0.0613807 3.80041 0.170639 3.90967C0.279898 4.01893 0.428084 4.08031 0.582599 4.08031H1.21297C1.35756 4.94596 1.8225 5.72555 2.51541 6.2642C3.20832 6.80285 4.0785 7.06114 4.95307 6.98775C5.82765 6.91437 6.64262 6.51469 7.23608 5.8681C7.82954 5.22152 8.15806 4.37535 8.15638 3.49771C8.15638 3.18868 8.27914 2.89231 8.49766 2.67379C8.71617 2.45527 9.01255 2.33251 9.32158 2.33251C9.63061 2.33251 9.92698 2.45527 10.1455 2.67379C10.364 2.89231 10.4868 3.18868 10.4868 3.49771C10.4851 4.37535 10.8136 5.22152 11.4071 5.8681C12.0005 6.51469 12.8155 6.91437 13.6901 6.98775C14.5647 7.06114 15.4348 6.80285 16.1277 6.2642C16.8207 5.72555 17.2856 4.94596 17.4302 4.08031H18.0606C18.2151 4.08031 18.3633 4.01893 18.4725 3.90967C18.5818 3.80041 18.6432 3.65222 18.6432 3.49771C18.6432 3.34319 18.5818 3.19501 18.4725 3.08575C18.3633 2.97649 18.2151 2.91511 18.0606 2.91511H17.4302C17.3097 2.19994 16.9699 1.53994 16.4576 1.02656C15.9454 0.513179 15.2861 0.171834 14.5712 0.0498252C13.8563 -0.0721837 13.1212 0.031185 12.4676 0.345608C11.8141 0.66003 11.2745 1.16994 10.9237 1.80468C10.4913 1.39448 9.91763 1.16628 9.32158 1.16731C8.70169 1.16731 8.13774 1.40967 7.71943 1.80468ZM16.3128 3.49771C16.3128 2.87965 16.0672 2.2869 15.6302 1.84987C15.1932 1.41284 14.6004 1.16731 13.9824 1.16731C13.3643 1.16731 12.7716 1.41284 12.3345 1.84987C11.8975 2.2869 11.652 2.87965 11.652 3.49771C11.652 4.11577 11.8975 4.70851 12.3345 5.14554C12.7716 5.58258 13.3643 5.8281 13.9824 5.8281C14.6004 5.8281 15.1932 5.58258 15.6302 5.14554C16.0672 4.70851 16.3128 4.11577 16.3128 3.49771Z" fill="#1C2540"/>
</svg>
