<svg width="561" height="500" viewBox="0 0 561 500" fill="none" xmlns="http://www.w3.org/2000/svg">
    <g clip-path="url(#clip0)">
        <g opacity="0.7">
            <rect x="14" y="45" width="140" height="140" rx="20" fill="#F2F7F9"/>
            <rect x="72" y="65" width="24" height="11" rx="5" fill="#BFD4E4"/>
            <rect x="32" y="84" width="105" height="11" rx="5" fill="#BFD4E4"/>
            <rect x="420" y="46" width="140" height="140" rx="20" fill="#F2F7F9"/>
            <rect x="478" y="66" width="24" height="11" rx="5" fill="#BFD4E4"/>
            <rect x="438" y="85" width="105" height="11" rx="5" fill="#BFD4E4"/>
            <rect x="91.25" y="103.25" width="164.5" height="164.5" rx="19.75" fill="#F2F7F9" stroke="#BFD4E4" stroke-width="0.5"/>
            <rect x="156" y="122" width="35" height="11" rx="5" fill="#BFD4E4"/>
            <rect x="116" y="144" width="115" height="11" rx="5" fill="#BFD4E4"/>
            <rect x="319.25" y="102.25" width="164.5" height="164.5" rx="19.75" fill="#F2F7F9" stroke="#BFD4E4" stroke-width="0.5"/>
            <rect x="384" y="121" width="35" height="11" rx="5" fill="#BFD4E4"/>
            <rect x="344" y="143" width="115" height="11" rx="5" fill="#BFD4E4"/>
        </g>
        <rect x="190" y="149" width="195" height="195" rx="20" fill="#F2F7F9"/>
        <rect x="251" y="168" width="73" height="11" rx="5" fill="#FCA95C"/>
        <rect x="210" y="189" width="155" height="11" rx="5" fill="#BFD4E4"/>
        <rect x="210" y="227" width="63" height="11" rx="5" fill="#BFD4E4"/>
        <rect x="341" y="221" width="22" height="22" rx="11" fill="#FCA95C"/>
        <path d="M350.591 236.045C350.353 236.046 350.121 235.969 349.931 235.826L349.919 235.817L347.433 233.915C347.2 233.737 347.048 233.474 347.01 233.183C346.971 232.893 347.05 232.599 347.228 232.367C347.406 232.134 347.67 231.982 347.96 231.943C348.251 231.905 348.544 231.984 348.777 232.162L350.387 233.397L354.192 228.432C354.281 228.317 354.391 228.221 354.516 228.148C354.642 228.076 354.78 228.029 354.924 228.01C355.068 227.991 355.214 228 355.354 228.037C355.494 228.075 355.626 228.14 355.741 228.228L355.741 228.228L355.717 228.261L355.742 228.228C355.974 228.407 356.126 228.67 356.164 228.96C356.202 229.251 356.124 229.544 355.946 229.777L351.47 235.613C351.367 235.748 351.234 235.857 351.081 235.931C350.929 236.006 350.761 236.045 350.592 236.044L350.591 236.045Z" fill="white"/>
        <rect x="210" y="252" width="63" height="11" rx="5" fill="#BFD4E4"/>
        <rect x="341" y="246" width="22" height="22" rx="11" fill="#FCA95C"/>
        <path d="M350.591 261.045C350.353 261.046 350.121 260.969 349.931 260.826L349.919 260.817L347.433 258.915C347.2 258.737 347.048 258.474 347.01 258.183C346.971 257.893 347.05 257.599 347.228 257.367C347.406 257.134 347.67 256.982 347.96 256.943C348.251 256.905 348.544 256.984 348.777 257.162L350.387 258.397L354.192 253.432C354.281 253.317 354.391 253.221 354.516 253.148C354.642 253.076 354.78 253.029 354.924 253.01C355.068 252.991 355.214 253 355.354 253.037C355.494 253.075 355.626 253.14 355.741 253.228L355.741 253.228L355.717 253.261L355.742 253.228C355.974 253.407 356.126 253.67 356.164 253.96C356.202 254.251 356.124 254.544 355.946 254.777L351.47 260.613C351.367 260.748 351.234 260.857 351.081 260.931C350.929 261.006 350.761 261.045 350.592 261.044L350.591 261.045Z" fill="white"/>
        <rect x="210" y="277" width="63" height="11" rx="5" fill="#BFD4E4"/>
        <rect x="341" y="271" width="22" height="22" rx="11" fill="#FCA95C"/>
        <path d="M350.591 286.045C350.353 286.046 350.121 285.969 349.931 285.826L349.919 285.817L347.433 283.915C347.2 283.737 347.048 283.474 347.01 283.183C346.971 282.893 347.05 282.599 347.228 282.367C347.406 282.134 347.67 281.982 347.96 281.943C348.251 281.905 348.544 281.984 348.777 282.162L350.387 283.397L354.192 278.432C354.281 278.317 354.391 278.221 354.516 278.148C354.642 278.076 354.78 278.029 354.924 278.01C355.068 277.991 355.214 278 355.354 278.037C355.494 278.075 355.626 278.14 355.741 278.228L355.741 278.228L355.717 278.261L355.742 278.228C355.974 278.407 356.126 278.67 356.164 278.96C356.202 279.251 356.124 279.544 355.946 279.777L351.47 285.613C351.367 285.748 351.234 285.857 351.081 285.931C350.929 286.006 350.761 286.045 350.592 286.044L350.591 286.045Z" fill="white"/>
        <path d="M287.23 136.885C276.071 136.694 270.999 128.227 271 120.441C271.001 112.654 276.072 104.189 287.207 104H287.231C298.367 104.19 303.438 112.657 303.438 120.443C303.437 128.23 298.365 136.696 287.23 136.885ZM287.219 105.417C277.05 105.595 272.418 113.328 272.417 120.441C272.417 127.556 277.052 135.294 287.231 135.467C297.384 135.295 302.02 127.559 302.021 120.443C302.021 113.331 297.389 105.597 287.219 105.417Z" fill="#FCA95C"/>
        <path d="M290.909 121.335C293.754 126.276 285.946 128.206 282.959 125.23L283.707 123.631C288.564 127.826 292.843 120.56 285.425 121.25V119.498C292.218 120.046 288.402 113.209 283.877 117.254L283.146 115.655C286.834 111.828 295.113 116.456 289.268 120.281C289.92 120.433 290.5 120.806 290.909 121.335Z" fill="#FCA95C"/>
        <path d="M382.442 91.2794C379.19 91.2793 376.011 90.315 373.307 88.5082C370.603 86.7015 368.496 84.1336 367.252 81.1291C366.007 78.1247 365.682 74.8187 366.316 71.6292C366.95 68.4398 368.516 65.51 370.816 63.2106C373.115 60.9111 376.045 59.3451 379.235 58.7107C382.424 58.0763 385.73 58.4019 388.734 59.6464C391.739 60.8909 394.307 62.9983 396.113 65.7022C397.92 68.4062 398.884 71.5851 398.884 74.8371C398.88 79.1964 397.146 83.3757 394.063 86.4581C390.981 89.5406 386.801 91.2745 382.442 91.2794ZM382.442 59.8119C379.47 59.812 376.565 60.6932 374.095 62.3442C371.624 63.9952 369.698 66.3418 368.561 69.0873C367.424 71.8328 367.126 74.8538 367.706 77.7684C368.286 80.683 369.717 83.3602 371.818 85.4615C373.919 87.5628 376.596 88.9938 379.511 89.5735C382.426 90.1532 385.447 89.8557 388.192 88.7185C390.938 87.5812 393.284 85.6554 394.935 83.1846C396.586 80.7137 397.467 77.8088 397.467 74.8371C397.463 70.8535 395.878 67.0344 393.062 64.2176C390.245 61.4008 386.426 59.8164 382.442 59.8119Z" fill="#F2F7F9" fill-opacity="0.7"/>
        <path d="M387.008 78.5274H385.29V80.8912H383.148V78.5274H377.876V76.8947L383.539 68.7831H385.29V76.81H387.008V78.5274ZM383.148 76.81V72.2011L379.951 76.81H383.148Z" fill="#F2F7F9" fill-opacity="0.7"/>
        <path d="M485.615 33.8846C482.363 33.8845 479.184 32.9202 476.48 31.1135C473.776 29.3067 471.669 26.7388 470.424 23.7344C469.18 20.7299 468.854 17.4239 469.489 14.2345C470.123 11.045 471.689 8.11526 473.989 5.81578C476.288 3.5163 479.218 1.95034 482.407 1.31593C485.597 0.681513 488.903 1.00714 491.907 2.25162C494.912 3.4961 497.48 5.60355 499.286 8.30747C501.093 11.0114 502.057 14.1903 502.057 17.4423C502.052 21.8016 500.318 25.9809 497.236 29.0633C494.154 32.1458 489.974 33.8796 485.615 33.8846ZM485.615 2.41717C482.643 2.4172 479.738 3.29844 477.267 4.94944C474.797 6.60045 472.871 8.94706 471.734 11.6925C470.597 14.438 470.299 17.4591 470.879 20.3737C471.458 23.2882 472.89 25.9654 474.991 28.0667C477.092 30.168 479.769 31.599 482.684 32.1787C485.598 32.7585 488.62 32.4609 491.365 31.3237C494.11 30.1864 496.457 28.2606 498.108 25.7898C499.759 23.3189 500.64 20.414 500.64 17.4423C500.636 13.4587 499.051 9.63963 496.234 6.82284C493.418 4.00606 489.598 2.42163 485.615 2.41717Z" fill="#F2F7F9" fill-opacity="0.7"/>
        <path d="M488.064 16.1754C488.634 16.49 489.1 16.9624 489.407 17.5358C489.734 18.1566 489.897 18.8498 489.884 19.5509C489.898 20.2877 489.71 21.0144 489.339 21.6513C488.968 22.2656 488.424 22.7565 487.775 23.0626C487.036 23.4099 486.227 23.5816 485.411 23.5643C484.647 23.5636 483.888 23.4343 483.166 23.1816C482.496 22.9651 481.878 22.6152 481.347 22.153L482.078 20.5542C483.028 21.3387 484.213 21.7819 485.445 21.8129C486.078 21.8563 486.703 21.6519 487.188 21.2431C487.58 20.7953 487.795 20.2195 487.792 19.6243C487.789 19.0291 487.568 18.4556 487.171 18.0119C486.949 17.8061 486.688 17.6466 486.403 17.543C486.118 17.4393 485.816 17.3935 485.513 17.4082C485.052 17.4052 484.595 17.4949 484.17 17.6719C483.75 17.8476 483.373 18.1114 483.064 18.4455H481.738V11.3202H489.322V13.0207H483.881V16.3197C484.524 15.8912 485.284 15.6715 486.057 15.6907C486.757 15.676 487.448 15.843 488.064 16.1754Z" fill="#F2F7F9" fill-opacity="0.7"/>
        <path d="M84.4422 32.8846C81.1902 32.8846 78.0113 31.9202 75.3074 30.1135C72.6035 28.3068 70.496 25.7389 69.2516 22.7344C68.0071 19.73 67.6815 16.424 68.3159 13.2345C68.9504 10.045 70.5164 7.1153 72.8159 4.81581C75.1154 2.51633 78.0451 0.950359 81.2346 0.315936C84.4241 -0.318486 87.7301 0.00712624 90.7345 1.25161C93.7389 2.49609 96.3069 4.60354 98.1136 7.30746C99.9203 10.0114 100.885 13.1903 100.885 16.4423C100.88 20.8016 99.1457 24.9808 96.0633 28.0633C92.9808 31.1458 88.8015 32.8796 84.4422 32.8846ZM84.4422 1.41717C81.4705 1.41718 78.5656 2.29841 76.0947 3.9494C73.6239 5.60039 71.6981 7.947 70.5609 10.6925C69.4237 13.438 69.1261 16.459 69.7059 19.3736C70.2856 22.2882 71.7167 24.9654 73.818 27.0667C75.9193 29.168 78.5965 30.599 81.5111 31.1787C84.4257 31.7585 87.4467 31.4609 90.1922 30.3237C92.9377 29.1865 95.2843 27.2607 96.9352 24.7898C98.5862 22.3189 99.4674 19.414 99.4674 16.4423C99.4629 12.4587 97.8785 8.63965 95.0617 5.82287C92.2449 3.00608 88.4258 1.42165 84.4422 1.41717Z" fill="#F2F7F9" fill-opacity="0.7"/>
        <path d="M82.8834 22.4442C82.5294 22.4448 82.1848 22.3303 81.9016 22.118L81.8841 22.1048L78.1864 19.2762C78.0152 19.1449 77.8715 18.9812 77.7635 18.7944C77.6555 18.6075 77.5854 18.4013 77.5571 18.1873C77.5289 17.9734 77.543 17.756 77.5988 17.5475C77.6545 17.3391 77.7508 17.1436 77.8821 16.9724C78.0134 16.8011 78.1771 16.6574 78.364 16.5494C78.5508 16.4415 78.7571 16.3713 78.971 16.3431C79.1849 16.3148 79.4023 16.329 79.6108 16.3847C79.8192 16.4405 80.0147 16.5368 80.1859 16.6681L82.581 18.5047L88.2406 11.1211C88.3718 10.9499 88.5355 10.8063 88.7223 10.6983C88.909 10.5904 89.1152 10.5203 89.3291 10.492C89.5429 10.4638 89.7602 10.478 89.9686 10.5337C90.177 10.5894 90.3723 10.6857 90.5435 10.8169L90.544 10.8173L90.5088 10.8661L90.5449 10.8173C90.8903 11.0827 91.1162 11.4743 91.1732 11.9061C91.2301 12.3379 91.1135 12.7747 90.8487 13.1206L84.1918 21.8015C84.0378 22.0015 83.8398 22.1633 83.6131 22.2745C83.3865 22.3856 83.1372 22.443 82.8848 22.4423L82.8834 22.4442Z" fill="#F2F7F9" fill-opacity="0.7"/>
        <path d="M190.442 90.8846C187.19 90.8846 184.011 89.9202 181.307 88.1135C178.603 86.3068 176.496 83.7389 175.252 80.7344C174.007 77.73 173.682 74.424 174.316 71.2345C174.95 68.045 176.516 65.1153 178.816 62.8158C181.115 60.5163 184.045 58.9504 187.235 58.3159C190.424 57.6815 193.73 58.0071 196.735 59.2516C199.739 60.4961 202.307 62.6035 204.114 65.3075C205.92 68.0114 206.885 71.1903 206.885 74.4423C206.88 78.8016 205.146 82.9808 202.063 86.0633C198.981 89.1458 194.801 90.8796 190.442 90.8846ZM190.442 59.4172C187.471 59.4172 184.566 60.2984 182.095 61.9494C179.624 63.6004 177.698 65.947 176.561 68.6925C175.424 71.438 175.126 74.459 175.706 77.3736C176.286 80.2882 177.717 82.9654 179.818 85.0667C181.919 87.168 184.596 88.599 187.511 89.1787C190.426 89.7585 193.447 89.4609 196.192 88.3237C198.938 87.1865 201.284 85.2607 202.935 82.7898C204.586 80.3189 205.467 77.414 205.467 74.4423C205.463 70.4587 203.878 66.6397 201.062 63.8229C198.245 61.0061 194.426 59.4216 190.442 59.4172Z" fill="#F2F7F9" fill-opacity="0.7"/>
        <path d="M188.883 80.4442C188.529 80.4448 188.185 80.3303 187.902 80.118L187.884 80.1048L184.186 77.2762C184.015 77.1449 183.871 76.9812 183.763 76.7944C183.656 76.6075 183.585 76.4013 183.557 76.1873C183.529 75.9734 183.543 75.756 183.599 75.5475C183.655 75.3391 183.751 75.1436 183.882 74.9724C184.013 74.8011 184.177 74.6574 184.364 74.5494C184.551 74.4415 184.757 74.3713 184.971 74.3431C185.185 74.3148 185.402 74.329 185.611 74.3847C185.819 74.4405 186.015 74.5368 186.186 74.6681L188.581 76.5047L194.241 69.1211C194.372 68.9499 194.536 68.8063 194.722 68.6983C194.909 68.5904 195.115 68.5203 195.329 68.492C195.543 68.4638 195.76 68.478 195.969 68.5337C196.177 68.5894 196.372 68.6857 196.543 68.8169L196.544 68.8173L196.509 68.8661L196.545 68.8173C196.89 69.0827 197.116 69.4743 197.173 69.9061C197.23 70.3379 197.113 70.7747 196.849 71.1206L190.192 79.8015C190.038 80.0015 189.84 80.1633 189.613 80.2745C189.386 80.3856 189.137 80.443 188.885 80.4423L188.883 80.4442Z" fill="#F2F7F9" fill-opacity="0.7"/>
        <path d="M260 16.5823C260 17.1446 260.02 17.1647 261.426 17.2851C267.871 17.9277 274.177 23.3293 278.494 31.8835C279.538 33.992 280.763 37.6667 281.225 40.0964C281.546 41.7631 281.586 43.2088 281.586 51.3414C281.586 61.8434 281.566 62.1044 280.261 63.4096C279.317 64.3534 277.932 64.7952 275.924 64.7952H274.458V65.3976V66H285.201H295.944V65.4177V64.8554L294.096 64.755C291.104 64.5944 289.779 63.7912 289.157 61.7831C288.855 60.8193 288.815 59.6345 288.815 51.9438C288.815 43.6707 288.835 43.1084 289.257 41.2008C291.145 32.7068 296.647 22.9076 301.004 20.257C302.209 19.5341 303.996 19.0723 304.819 19.2731C306.044 19.5944 306.386 20.5382 305.884 22.2249C305.442 23.6707 305.582 24.5944 306.406 25.5382C308.173 27.5462 311.446 27.1044 312.631 24.6948C313.293 23.3695 313.313 20.8996 312.671 19.6948C310.663 15.9398 304.699 14.8755 300.181 17.4659C298.835 18.2289 297.209 19.5944 295.944 20.9598C292.269 24.9558 288.695 32.2048 287.55 37.8876L287.209 39.5944L287.048 38.6908C285.161 28.5301 281.104 22.4859 273.755 18.8514C270.301 17.1446 265.161 16 260.984 16C260.04 16 260 16.0201 260 16.5823Z" fill="#FCA95C"/>
        <path d="M105.007 369.063C104.577 368.115 104.36 367.083 104.372 366.042C104.384 365 104.624 363.974 105.075 363.035C105.526 362.096 106.178 361.267 106.984 360.608C107.79 359.948 108.731 359.473 109.741 359.216L111.889 333.986L122.219 342.136L118.596 364.845C118.914 366.57 118.59 368.351 117.683 369.852C116.776 371.354 115.35 372.47 113.675 372.99C112 373.51 110.193 373.397 108.595 372.674C106.997 371.95 105.721 370.665 105.007 369.063H105.007Z" fill="#FFB8B8"/>
        <path d="M111.651 356.568C110.908 356.47 110.223 356.112 109.717 355.559C109.211 355.005 108.916 354.291 108.885 353.542L107.689 324.911C107.259 314.62 109.354 304.38 113.79 295.084L124.396 272.86C125.106 271.523 126.125 270.376 127.368 269.512C128.611 268.648 130.043 268.093 131.543 267.894C133 267.688 134.484 267.838 135.87 268.33C137.256 268.823 138.503 269.642 139.504 270.72C140.012 271.263 140.468 271.851 140.867 272.479C141.667 273.777 142.13 275.254 142.214 276.777C142.299 278.299 142.002 279.819 141.35 281.197L125.087 325.625L123.836 354.569C123.817 355.007 123.707 355.437 123.515 355.831C123.322 356.226 123.05 356.576 122.715 356.86C122.381 357.145 121.991 357.357 121.571 357.484C121.151 357.61 120.709 357.649 120.273 357.597L111.693 356.574L111.651 356.568Z" fill="#FCA95C"/>
        <path d="M81.2244 481.665L89.1789 485.157L106.431 456.136L94.6916 450.984L81.2244 481.665Z" fill="#FFB8B8"/>
        <path d="M80.3353 478.177L96.0004 485.054L96.001 485.054C97.312 485.629 98.4968 486.457 99.4878 487.491C100.479 488.524 101.256 489.743 101.777 491.076C102.297 492.41 102.549 493.834 102.519 495.265C102.489 496.697 102.177 498.108 101.602 499.419L101.459 499.743L75.8108 488.485L80.3353 478.177Z" fill="#2F2E41"/>
        <path d="M188.016 491.322H196.703L200.836 457.815L188.015 457.816L188.016 491.322Z" fill="#FFB8B8"/>
        <path d="M185.8 488.486L202.908 488.486H202.909C204.34 488.486 205.758 488.768 207.081 489.315C208.404 489.863 209.605 490.666 210.618 491.679C211.63 492.691 212.433 493.893 212.981 495.216C213.529 496.539 213.811 497.956 213.811 499.388V499.742L185.801 499.743L185.8 488.486Z" fill="#2F2E41"/>
        <path d="M100.519 481.796C100.185 481.796 99.8527 481.743 99.5348 481.64L84.8051 476.906C84.0096 476.647 83.3472 476.086 82.9597 475.345C82.5721 474.603 82.4902 473.739 82.7315 472.938L131.578 317.394L168.165 310.22L168.294 310.429C192.482 349.789 200.556 409.915 205.678 473.62C205.741 474.452 205.477 475.276 204.943 475.916C204.408 476.557 203.645 476.964 202.816 477.051L186.712 478.662C185.961 478.74 185.206 478.548 184.584 478.12C183.962 477.691 183.513 477.055 183.318 476.325L153.833 372.017C153.775 371.804 153.652 371.615 153.482 371.475C153.312 371.335 153.102 371.251 152.882 371.236C152.662 371.22 152.443 371.273 152.255 371.388C152.066 371.502 151.918 371.673 151.831 371.875L103.439 479.868C103.194 480.44 102.787 480.927 102.268 481.27C101.749 481.613 101.141 481.796 100.519 481.796Z" fill="#575A89"/>
        <path d="M150.481 255.11C160.093 255.11 167.885 247.318 167.885 237.707C167.885 228.095 160.093 220.303 150.481 220.303C140.869 220.303 133.078 228.095 133.078 237.707C133.078 247.318 140.869 255.11 150.481 255.11Z" fill="#FFB8B8"/>
        <path d="M128.465 322L128.346 321.751C128.265 321.581 120.247 304.571 120.993 284.951C121.24 278.511 123.939 272.409 128.537 267.893C133.135 263.377 139.285 260.789 145.728 260.659C151.666 260.542 157.455 262.525 162.075 266.258C166.695 269.991 169.849 275.235 170.983 281.065C173.217 292.472 173.161 303.276 170.817 313.176L170.764 313.397L170.542 313.442L128.465 322Z" fill="#FCA95C"/>
        <path d="M217.196 346.551C216.166 346.399 215.181 346.023 214.312 345.449C213.443 344.875 212.71 344.117 212.165 343.229C211.62 342.341 211.277 341.345 211.159 340.31C211.041 339.275 211.151 338.227 211.482 337.239L191.436 321.769L203.882 317.498L221.01 332.844C222.632 333.51 223.954 334.748 224.725 336.323C225.495 337.899 225.661 339.702 225.191 341.392C224.721 343.081 223.648 344.54 222.174 345.491C220.701 346.442 218.929 346.819 217.196 346.551H217.196Z" fill="#FFB8B8"/>
        <path d="M168.004 312.446L167.958 312.371L146.826 278.148C146.087 276.827 145.674 275.349 145.621 273.836C145.568 272.323 145.877 270.82 146.522 269.45C147.138 268.115 148.068 266.948 149.233 266.049C150.397 265.15 151.762 264.546 153.21 264.289C153.941 264.156 154.682 264.091 155.425 264.096C156.95 264.126 158.443 264.537 159.769 265.29C161.094 266.044 162.211 267.117 163.017 268.411L191.556 306.145L215.209 322.873C215.568 323.126 215.87 323.451 216.097 323.827C216.324 324.202 216.471 324.621 216.529 325.056C216.587 325.491 216.554 325.934 216.433 326.356C216.312 326.777 216.105 327.17 215.825 327.508L210.319 334.166C209.837 334.752 209.162 335.146 208.416 335.278C207.669 335.41 206.9 335.27 206.248 334.884L168.004 312.446Z" fill="#FCA95C"/>
        <path d="M147.369 236.627C148.652 234.517 151.482 233.921 153.94 234.161C156.397 234.402 158.787 235.266 161.256 235.247C168.113 235.194 173.405 226.837 170.522 220.616C168.158 215.514 162.254 213.274 156.913 211.515C145.714 207.829 132.851 204.287 122.689 210.264C119.45 212.225 116.794 215.016 114.995 218.347C113.196 221.678 112.318 225.429 112.453 229.212C112.682 233.917 114.484 238.749 112.96 243.206C111.202 248.347 105.629 251.105 100.361 252.44C91.1281 254.779 81.393 254.402 72.102 256.5C62.811 258.598 53.2903 264.169 50.7858 273.359C49.1408 279.395 50.8573 285.893 53.7 291.466C56.6003 297.152 60.6308 302.187 65.5447 306.261C70.4585 310.335 76.1524 313.363 82.2774 315.159C88.4025 316.956 94.8298 317.483 101.166 316.709C107.502 315.935 113.613 313.875 119.125 310.657C130.357 304.098 138.467 293.013 143.301 280.938C146.042 273.895 147.972 266.562 149.053 259.081C150.136 252.079 149.217 245.002 147.256 238.193C147.163 237.939 147.125 237.668 147.145 237.398C147.164 237.128 147.241 236.865 147.369 236.627Z" fill="#FDE0C6"/>
        <path d="M270.677 500H0.708579C0.520652 500 0.340422 499.925 0.207537 499.792C0.0746531 499.66 0 499.479 0 499.291C0 499.104 0.0746531 498.923 0.207537 498.79C0.340422 498.658 0.520652 498.583 0.708579 498.583H270.677C270.865 498.583 271.045 498.658 271.178 498.79C271.311 498.923 271.386 499.104 271.386 499.291C271.386 499.479 271.311 499.66 271.178 499.792C271.045 499.925 270.865 500 270.677 500Z" fill="white"/>
    </g>
    <defs>
        <clipPath id="clip0">
            <rect width="560.384" height="500" fill="white"/>
        </clipPath>
    </defs>
</svg>
