<svg class="chevron-right" width="25" height="25" viewBox="0 0 25 25" xmlns="http://www.w3.org/2000/svg">
    <path fill-rule="evenodd" clip-rule="evenodd" d="M7.25943 2.57193C7.332 2.49917 7.41821 2.44145 7.51313 2.40207C7.60804 2.36268 7.70979 2.34241 7.81255 2.34241C7.91531 2.34241 8.01707 2.36268 8.11198 2.40207C8.2069 2.44145 8.29311 2.49917 8.36568 2.57193L17.7407 11.9469C17.8134 12.0195 17.8712 12.1057 17.9105 12.2006C17.9499 12.2955 17.9702 12.3973 17.9702 12.5001C17.9702 12.6028 17.9499 12.7046 17.9105 12.7995C17.8712 12.8944 17.8134 12.9806 17.7407 13.0532L8.36568 22.4282C8.21898 22.5749 8.02002 22.6573 7.81255 22.6573C7.60509 22.6573 7.40613 22.5749 7.25943 22.4282C7.11273 22.2815 7.03032 22.0825 7.03032 21.8751C7.03032 21.6676 7.11273 21.4686 7.25943 21.3219L16.0829 12.5001L7.25943 3.67818C7.18667 3.60561 7.12895 3.5194 7.08956 3.42448C7.05018 3.32957 7.02991 3.22782 7.02991 3.12505C7.02991 3.02229 7.05018 2.92054 7.08956 2.82563C7.12895 2.73071 7.18667 2.6445 7.25943 2.57193Z"/>
</svg>
