<svg width="24" height="24" viewBox="0 0 24 24" fill="none" xmlns="http://www.w3.org/2000/svg">
<path d="M10.8711 5.56451C10.8711 4.74451 11.5511 4.06451 12.3711 4.06451C13.1911 4.06451 13.8711 4.74451 13.8711 5.56451V14.5645C13.8711 15.3845 13.1911 16.0645 12.3711 16.0645C11.5511 16.0645 10.8711 15.3845 10.8711 14.5645V11.0645H6.87109V14.5645C6.87109 15.3845 6.19109 16.0645 5.37109 16.0645C4.55109 16.0645 3.87109 15.3845 3.87109 14.5645V5.56451C3.87109 4.74451 4.55109 4.06451 5.37109 4.06451C6.19109 4.06451 6.87109 4.74451 6.87109 5.56451V8.06451H10.8711V5.56451Z" />
<path d="M20.0002 18.9677C20.0002 19.5177 19.5502 19.9677 19.0002 19.9677C18.4502 19.9677 18.0002 19.5177 18.0002 18.9677V11.9677H17.0002C16.4502 11.9677 16.0002 11.5177 16.0002 10.9677C16.0002 10.4177 16.4502 9.96774 17.0002 9.96774H19.0002C19.5502 9.96774 20.0002 10.4177 20.0002 10.9677V18.9677Z"/>
</svg>
