<svg width="24" height="24" viewBox="0 0 24 24" fill="none" xmlns="http://www.w3.org/2000/svg">
<path d="M10.8711 5.56451C10.8711 4.74451 11.5511 4.06451 12.3711 4.06451C13.1911 4.06451 13.8711 4.74451 13.8711 5.56451V14.5645C13.8711 15.3845 13.1911 16.0645 12.3711 16.0645C11.5511 16.0645 10.8711 15.3845 10.8711 14.5645V11.0645H6.87109V14.5645C6.87109 15.3845 6.19109 16.0645 5.37109 16.0645C4.55109 16.0645 3.87109 15.3845 3.87109 14.5645V5.56451C3.87109 4.74451 4.55109 4.06451 5.37109 4.06451C6.19109 4.06451 6.87109 4.74451 6.87109 5.56451V8.06451H10.8711V5.56451Z"/>
<path d="M17.9679 17.8387H20.9679C21.5179 17.8387 21.9679 18.2887 21.9679 18.8387C21.9679 19.3887 21.5179 19.8387 20.9679 19.8387H16.9679C16.4179 19.8387 15.9679 19.3887 15.9679 18.8387V15.8387C15.9679 14.7387 16.8679 13.8387 17.9679 13.8387H19.9679V11.8387H16.9679C16.4179 11.8387 15.9679 11.3887 15.9679 10.8387C15.9679 10.2887 16.4179 9.83871 16.9679 9.83871H19.9679C21.0679 9.83871 21.9679 10.7387 21.9679 11.8387V13.8387C21.9679 14.9387 21.0679 15.8387 19.9679 15.8387H17.9679V17.8387Z"/>
</svg>
