<svg width="24" height="24" viewBox="0 0 24 24" fill="none" xmlns="http://www.w3.org/2000/svg">
<path d="M5.83775 14.0791C5.51424 14.0791 5.25235 13.9867 5.05208 13.8018C4.85951 13.6093 4.76323 13.3551 4.76323 13.0393V7.59733H3.13411C2.79519 7.59733 2.541 7.52801 2.37154 7.38936C2.20978 7.24301 2.12891 7.02348 2.12891 6.73078C2.12891 6.43808 2.20978 6.2224 2.37154 6.08375C2.541 5.94511 2.79519 5.87578 3.13411 5.87578H8.5414C8.88031 5.87578 9.13065 5.94511 9.29241 6.08375C9.46187 6.2224 9.5466 6.43808 9.5466 6.73078C9.5466 7.02348 9.46187 7.24301 9.29241 7.38936C9.13065 7.52801 8.88031 7.59733 8.5414 7.59733H6.91228V13.0393C6.91228 13.3551 6.81214 13.6093 6.61187 13.8018C6.4193 13.9867 6.16126 14.0791 5.83775 14.0791Z" />
<path d="M8.96312 18.1134C8.64731 18.1134 8.40467 18.0287 8.23521 17.8592C8.06575 17.6898 7.98102 17.4471 7.98102 17.1313V10.9499C7.98102 10.6341 8.06575 10.3915 8.23521 10.222C8.40467 10.0526 8.64731 9.96784 8.96312 9.96784H12.9608C13.292 9.96784 13.5424 10.0372 13.7118 10.1758C13.8813 10.3145 13.966 10.5147 13.966 10.7766C13.966 11.3312 13.6309 11.6085 12.9608 11.6085H10.0492V13.1567H12.7297C13.3999 13.1567 13.7349 13.4302 13.7349 13.9771C13.7349 14.239 13.6502 14.4392 13.4807 14.5779C13.3113 14.7165 13.0609 14.7859 12.7297 14.7859H10.0492V16.4728H12.9608C13.6309 16.4728 13.966 16.7501 13.966 17.3046C13.966 17.5665 13.8813 17.7668 13.7118 17.9055C13.5424 18.0441 13.292 18.1134 12.9608 18.1134H8.96312Z" />
<path d="M21.6283 12.4847C21.7977 12.6773 21.8825 12.8891 21.8825 13.1202C21.8825 13.3821 21.7785 13.6131 21.5705 13.8134C21.3702 14.006 21.143 14.1023 20.8888 14.1023C20.6192 14.1023 20.3843 13.9867 20.184 13.7556L18.1967 11.3755L16.1748 13.7556C15.9745 13.9867 15.7434 14.1023 15.4815 14.1023C15.2273 14.1023 14.9962 14.0021 14.7883 13.8018C14.588 13.6016 14.4879 13.3705 14.4879 13.1086C14.4879 12.8852 14.5687 12.6773 14.7305 12.4847L16.9489 9.91969L14.7883 7.41247C14.6188 7.2122 14.5341 7.00423 14.5341 6.78855C14.5341 6.52666 14.6342 6.29943 14.8345 6.10686C15.0425 5.90659 15.2774 5.80646 15.5393 5.80646C15.8089 5.80646 16.0438 5.922 16.2441 6.15308L18.1967 8.46389L20.1378 6.15308C20.3227 5.922 20.5499 5.80646 20.8195 5.80646C21.0814 5.80646 21.3125 5.90659 21.5127 6.10686C21.7207 6.29943 21.8247 6.52666 21.8247 6.78855C21.8247 7.01193 21.7438 7.2199 21.582 7.41247L19.4214 9.91969L21.6283 12.4847Z" />
</svg>
