<svg width="64" height="64" viewBox="0 0 64 64" fill="none" xmlns="http://www.w3.org/2000/svg">
    <rect width="64" height="64" rx="20" fill="white"/>
    <path d="M30.7812 49.0938C29.9688 49.0938 29.1667 49.0104 28.375 48.8438C27.6042 48.6979 26.8542 48.4375 26.125 48.0625C25.4167 47.7083 24.7604 47.2396 24.1562 46.6562C23.5521 46.0729 23.0208 45.3438 22.5625 44.4688C21.9583 43.2812 21.5521 42.0521 21.3438 40.7812C21.1562 39.4896 21.0625 38.1875 21.0625 36.875C21.0625 36.1042 21.125 35.2083 21.25 34.1875C21.3958 33.1667 21.5417 32.1562 21.6875 31.1562C21.8542 30.1354 22 29.1875 22.125 28.3125C22.25 27.4167 22.3125 26.7188 22.3125 26.2188C22.3125 25.6146 22.2083 25.0833 22 24.625C21.8125 24.1458 21.4896 23.9062 21.0312 23.9062C20.4479 23.9062 19.8854 24.0208 19.3438 24.25C18.8021 24.4792 18.2604 24.7292 17.7188 25C17.4896 25.125 17.2396 25.2604 16.9688 25.4062C16.7188 25.5521 16.4688 25.6875 16.2188 25.8125C15.9688 25.9375 15.7292 26.0521 15.5 26.1562C15.2917 26.2396 15.0938 26.2812 14.9062 26.2812C14.5312 26.2812 14.1667 26.2083 13.8125 26.0625C13.4583 25.8958 13.1458 25.6771 12.875 25.4062C12.6042 25.1146 12.3854 24.7917 12.2188 24.4375C12.0729 24.0625 12 23.6562 12 23.2188C12 22.9062 12.1875 22.5625 12.5625 22.1875C12.9583 21.7917 13.4792 21.3958 14.125 21C14.7708 20.5833 15.5104 20.1875 16.3438 19.8125C17.1979 19.4375 18.0729 19.1042 18.9688 18.8125C19.8854 18.5 20.8021 18.2604 21.7188 18.0938C22.6562 17.9062 23.5208 17.8125 24.3125 17.8125C25.3958 17.8125 26.2917 17.9375 27 18.1875C27.7292 18.4375 28.3021 18.8229 28.7188 19.3438C29.1562 19.8438 29.4583 20.4792 29.625 21.25C29.8125 22.0208 29.9062 22.9271 29.9062 23.9688C29.9062 24.5938 29.8229 25.4583 29.6562 26.5625C29.4896 27.6458 29.3021 28.8021 29.0938 30.0312C28.9062 31.2604 28.7292 32.4583 28.5625 33.625C28.3958 34.7917 28.3125 35.7604 28.3125 36.5312C28.3125 38.7188 28.6875 40.3333 29.4375 41.375C30.2083 42.3958 31.1562 42.9062 32.2812 42.9062C33.4896 42.9062 34.7083 42.6458 35.9375 42.125C37.1875 41.6042 38.3125 40.8438 39.3125 39.8438C40.0208 39.1562 40.625 38.3958 41.125 37.5625C41.6458 36.7292 42.0729 35.8646 42.4062 34.9688C42.7396 34.0729 42.9896 33.1562 43.1562 32.2188C43.3229 31.2812 43.4062 30.3542 43.4062 29.4375C43.4062 27.5208 43.1354 25.9479 42.5938 24.7188C42.0521 23.4896 41.3021 22.4688 40.3438 21.6562C39.8021 21.1979 39.3646 20.7396 39.0312 20.2812C38.6979 19.8021 38.5312 19.1354 38.5312 18.2812C38.5312 17.9688 38.625 17.5729 38.8125 17.0938C39 16.5938 39.2812 16.125 39.6562 15.6875C40.0312 15.2292 40.4896 14.8333 41.0312 14.5C41.5938 14.1667 42.2396 14 42.9688 14C43.3438 14 43.7292 14.0833 44.125 14.25C44.5208 14.4167 44.9062 14.6458 45.2812 14.9375C45.6562 15.2083 46.0104 15.5208 46.3438 15.875C46.6771 16.2083 46.9792 16.5521 47.25 16.9062C48.2292 18.1771 48.9792 19.7396 49.5 21.5938C50.0417 23.4271 50.3125 25.5104 50.3125 27.8438C50.3125 29.2604 50.125 30.7708 49.75 32.375C49.375 33.9583 48.8125 35.5417 48.0625 37.125C47.3333 38.6875 46.4167 40.1979 45.3125 41.6562C44.2292 43.0938 42.9583 44.3646 41.5 45.4688C40.0625 46.5729 38.4479 47.4479 36.6562 48.0938C34.8646 48.7604 32.9062 49.0938 30.7812 49.0938Z" fill="#1C2540"/>
    <path d="M42.5938 24.7188C42.0521 23.4896 41.3021 22.4688 40.3438 21.6562C39.8021 21.1979 39.3646 20.7396 39.0312 20.2812C38.6979 19.8021 38.5312 19.1354 38.5312 18.2812C38.5312 17.9688 38.625 17.5729 38.8125 17.0938C39 16.5938 39.2812 16.125 39.6562 15.6875C40.0312 15.2292 40.4896 14.8333 41.0312 14.5C41.5938 14.1667 42.2396 14 42.9688 14C43.3438 14 43.7292 14.0833 44.125 14.25C44.5208 14.4167 44.9062 14.6458 45.2812 14.9375C45.6562 15.2083 46.0104 15.5208 46.3438 15.875C46.6771 16.2083 46.9792 16.5521 47.25 16.9062C48.2292 18.1771 48.9792 19.7396 49.5 21.5938C50.0417 23.4271 50.3125 25.5104 50.3125 27.8438C50.3125 29.2604 50.125 30.7708 49.75 32.375C49.375 33.9583 48.8125 35.5417 48.0625 37.125C47.3333 38.6875 46.4167 40.1979 45.3125 41.6562C45.3125 41.6562 47.4766 35.372 46.5 31.5C45.7526 28.5366 42.5938 24.7188 42.5938 24.7188Z" fill="#FCA95C"/>
</svg>
