<svg class="chevron-left" width="25" height="25" viewBox="0 0 25 25" xmlns="http://www.w3.org/2000/svg">
    <path fill-rule="evenodd" clip-rule="evenodd" d="M17.7407 2.57193C17.8134 2.6445 17.8712 2.73071 17.9105 2.82563C17.9499 2.92054 17.9702 3.02229 17.9702 3.12505C17.9702 3.22782 17.9499 3.32957 17.9105 3.42448C17.8712 3.5194 17.8134 3.60561 17.7407 3.67818L8.91724 12.5001L17.7407 21.3219C17.8874 21.4686 17.9698 21.6676 17.9698 21.8751C17.9698 22.0825 17.8874 22.2815 17.7407 22.4282C17.594 22.5749 17.395 22.6573 17.1876 22.6573C16.9801 22.6573 16.7811 22.5749 16.6344 22.4282L7.25943 13.0532C7.18667 12.9806 7.12895 12.8944 7.08956 12.7995C7.05018 12.7046 7.02991 12.6028 7.02991 12.5001C7.02991 12.3973 7.05018 12.2955 7.08956 12.2006C7.12895 12.1057 7.18667 12.0195 7.25943 11.9469L16.6344 2.57193C16.707 2.49917 16.7932 2.44145 16.8881 2.40207C16.983 2.36268 17.0848 2.34241 17.1876 2.34241C17.2903 2.34241 17.3921 2.36268 17.487 2.40207C17.5819 2.44145 17.6681 2.49917 17.7407 2.57193Z"/>
</svg>
