<svg class="google-icon" width="28" height="28" viewBox="0 0 28 28" fill="none" xmlns="http://www.w3.org/2000/svg">
    <g clip-path="url(#clip0)">
        <path d="M27.3721 14.3565C27.3721 13.4318 27.2971 12.5021 27.1372 11.5924H14.3065V16.8307H21.654C21.3491 18.5201 20.3694 20.0146 18.9349 20.9643V24.3632H23.3185C25.8926 21.994 27.3721 18.4951 27.3721 14.3565Z" fill="#4285F4"/>
        <path d="M14.3067 27.6471C17.9755 27.6471 21.0694 26.4425 23.3237 24.3632L18.9401 20.9643C17.7205 21.794 16.1461 22.2639 14.3117 22.2639C10.7629 22.2639 7.75388 19.8697 6.67424 16.6507H2.15076V20.1546C4.45998 24.748 9.16341 27.6471 14.3067 27.6471Z" fill="#34A853"/>
        <path d="M6.66893 16.6507C6.09912 14.9613 6.09912 13.1319 6.66893 11.4425V7.93866H2.15045C0.221092 11.7824 0.221092 16.3109 2.15045 20.1546L6.66893 16.6507Z" fill="#FBBC04"/>
        <path d="M14.3067 5.82437C16.246 5.79438 18.1204 6.52413 19.5249 7.86368L23.4086 3.97999C20.9494 1.67076 17.6855 0.401184 14.3067 0.441171C9.1634 0.441171 4.45998 3.3402 2.15076 7.93866L6.66924 11.4425C7.74387 8.21857 10.7579 5.82437 14.3067 5.82437Z" fill="#EA4335"/>
    </g>
    <defs>
        <clipPath id="clip0">
            <rect width="26.6661" height="27.2059" fill="white" transform="translate(0.706116 0.44117)"/>
        </clipPath>
    </defs>
</svg>
