<svg width="25" height="25" viewBox="0 0 25 25" fill="none" xmlns="http://www.w3.org/2000/svg">
    <path d="M15.5731 8.72738L17.1388 8.76488H17.147C17.2016 8.76491 17.2554 8.75183 17.3039 8.72675C17.3525 8.70167 17.3943 8.66532 17.4259 8.62074L18.2477 7.46098C18.3001 7.387 18.321 7.29524 18.3057 7.20588C18.2905 7.11652 18.2404 7.03686 18.1665 6.98442L16.0462 5.48227C15.9722 5.4299 15.8805 5.40903 15.7912 5.42427C15.7018 5.43951 15.6222 5.48959 15.5698 5.56352L14.7481 6.72328C14.7157 6.769 14.6951 6.82198 14.688 6.87756C14.6808 6.93315 14.6875 6.98962 14.7073 7.04203L15.2618 8.50688C15.2859 8.57043 15.3284 8.62536 15.3838 8.66464C15.4393 8.70392 15.5052 8.72577 15.5731 8.72738ZM15.93 6.23774L17.4925 7.34477L16.9727 8.07719L15.8204 8.04946L15.4102 6.97016L15.93 6.23774Z" fill="black"/>
    <path d="M21.3832 13.3885H20.6606L18.549 11.0286C18.5059 10.9803 18.45 10.9454 18.3877 10.9278C18.3255 10.9101 18.2595 10.9105 18.1975 10.9289L16.342 11.4825C16.2624 11.506 16.1942 11.5579 16.1502 11.6284L15.0461 13.3885H13.7891L13.4303 13.1096L15.4924 10.1995L17.8875 10.2569H17.8957C17.9504 10.2569 18.0042 10.2437 18.0527 10.2186C18.1013 10.1935 18.1431 10.1571 18.1746 10.1125L20.3016 7.11078C20.354 7.03683 20.3748 6.9451 20.3596 6.85577C20.3443 6.76645 20.2943 6.68682 20.2203 6.63441L15.6957 3.42836C15.6591 3.4024 15.6178 3.38391 15.574 3.37395C15.5302 3.36398 15.4849 3.36273 15.4407 3.37028C15.3965 3.37783 15.3542 3.39401 15.3162 3.41792C15.2782 3.44183 15.2453 3.47298 15.2194 3.50961L13.0922 6.51137C13.0598 6.55705 13.0391 6.61 13.032 6.66555C13.0249 6.7211 13.0316 6.77754 13.0514 6.82992L13.8996 9.07035L11.6471 12.2493H10.5125L9.30705 11.1946C9.24478 11.1401 9.16482 11.11 9.08205 11.11H7.2592C7.17993 11.11 7.10315 11.1377 7.04202 11.1881L4.36956 13.3885H3.61682C3.52617 13.3885 3.43923 13.4245 3.37513 13.4886C3.31104 13.5527 3.27502 13.6397 3.27502 13.7303V15.5444C3.27502 15.635 3.31104 15.722 3.37513 15.7861C3.43923 15.8502 3.52617 15.8862 3.61682 15.8862H4.19358L4.72268 19.7784C4.79433 20.2917 5.04877 20.762 5.43927 21.1028C5.82978 21.4437 6.33013 21.6322 6.84846 21.6338H18.1516C18.6699 21.6322 19.1703 21.4437 19.5608 21.1028C19.9513 20.762 20.2057 20.2917 20.2774 19.7784L20.8065 15.8862H21.3832C21.4739 15.8862 21.5608 15.8502 21.6249 15.7861C21.689 15.722 21.725 15.635 21.725 15.5444V13.7305C21.725 13.6856 21.7162 13.6411 21.6991 13.5996C21.6819 13.5582 21.6567 13.5205 21.625 13.4887C21.5932 13.4569 21.5555 13.4317 21.5141 13.4146C21.4726 13.3974 21.4281 13.3885 21.3832 13.3885V13.3885ZM16.6602 12.1006L18.1836 11.6459L19.7426 13.3885H15.8522L16.6602 12.1006ZM15.5795 4.18363L19.5463 6.99457L17.7219 9.56898L14.7922 9.49867L13.7553 6.75785L15.5795 4.18363ZM14.2348 9.9559C14.2589 10.0195 14.3014 10.0744 14.3569 10.1137C14.4124 10.153 14.4783 10.1749 14.5463 10.1766L14.6688 10.1795L12.8906 12.6895L12.4278 12.3299L14.1912 9.84105L14.2348 9.9559ZM7.38284 11.7936H8.95471L10.1602 12.8483C10.2224 12.9029 10.3024 12.9329 10.3852 12.9329H12.0899L12.6758 13.3885H5.44495L7.38284 11.7936ZM19.601 19.6862C19.5523 20.0361 19.379 20.3567 19.1129 20.5891C18.8469 20.8215 18.5058 20.9501 18.1526 20.9512H6.84846C6.49518 20.9501 6.15417 20.8215 5.88808 20.5891C5.622 20.3567 5.4487 20.0361 5.40002 19.6862L4.88284 15.8862H20.1172L19.601 19.6862ZM21.0424 15.2026H3.95862V14.0721H21.0414L21.0424 15.2026Z" fill="black"/>
</svg>
