<svg width="16" height="16" viewBox="0 0 16 16" fill="none" xmlns="http://www.w3.org/2000/svg">
    <path d="M0.5 9C0.5 8.46957 0.710714 7.96086 1.08579 7.58579C1.46086 7.21071 1.96957 7 2.5 7H9.5C10.0304 7 10.5391 7.21071 10.9142 7.58579C11.2893 7.96086 11.5 8.46957 11.5 9V14C11.5 14.5304 11.2893 15.0391 10.9142 15.4142C10.5391 15.7893 10.0304 16 9.5 16H2.5C1.96957 16 1.46086 15.7893 1.08579 15.4142C0.710714 15.0391 0.5 14.5304 0.5 14V9Z" fill="#1C2540" fill-opacity="0.7"/>
    <path fill-rule="evenodd" clip-rule="evenodd" d="M8.5 4C8.5 3.54037 8.59053 3.08525 8.76642 2.66061C8.94231 2.23597 9.20012 1.85013 9.52513 1.52513C9.85013 1.20012 10.236 0.942313 10.6606 0.766422C11.0852 0.59053 11.5404 0.5 12 0.5C12.4596 0.5 12.9148 0.59053 13.3394 0.766422C13.764 0.942313 14.1499 1.20012 14.4749 1.52513C14.7999 1.85013 15.0577 2.23597 15.2336 2.66061C15.4095 3.08525 15.5 3.54037 15.5 4V7H14.5V4C14.5 3.33696 14.2366 2.70107 13.7678 2.23223C13.2989 1.76339 12.663 1.5 12 1.5C11.337 1.5 10.7011 1.76339 10.2322 2.23223C9.76339 2.70107 9.5 3.33696 9.5 4V7H8.5V4Z" fill="#1C2540" fill-opacity="0.7"/>
</svg>
