<svg width="23" height="57" viewBox="0 0 23 57" fill="none" xmlns="http://www.w3.org/2000/svg">
    <rect x="2" y="1" width="18" height="38" rx="9" stroke="#FCA95C" stroke-width="2"/>
    <rect x="10" y="6" width="2" height="5" rx="1" fill="#FCA95C"/>
    <path fill-rule="evenodd" clip-rule="evenodd" d="M0.251754 45.2518C0.331355 45.172 0.425917 45.1086 0.530025 45.0654C0.634133 45.0222 0.745741 45 0.858456 45C0.971171 45 1.08278 45.0222 1.18689 45.0654C1.291 45.1086 1.38556 45.172 1.46516 45.2518L11.1415 54.9299L20.8179 45.2518C20.8976 45.1721 20.9922 45.1089 21.0963 45.0658C21.2004 45.0226 21.312 45.0004 21.4246 45.0004C21.5373 45.0004 21.6489 45.0226 21.753 45.0658C21.8571 45.1089 21.9517 45.1721 22.0313 45.2518C22.111 45.3314 22.1742 45.426 22.2173 45.5301C22.2604 45.6342 22.2826 45.7458 22.2826 45.8585C22.2826 45.9711 22.2604 46.0827 22.2173 46.1868C22.1742 46.2909 22.111 46.3855 22.0313 46.4652L11.7482 56.7482C11.6686 56.828 11.5741 56.8914 11.47 56.9346C11.3659 56.9778 11.2543 57 11.1415 57C11.0288 57 10.9172 56.9778 10.8131 56.9346C10.709 56.8914 10.6144 56.828 10.5348 56.7482L0.251754 46.4652C0.171951 46.3856 0.108637 46.291 0.065437 46.1869C0.0222369 46.0828 0 45.9712 0 45.8585C0 45.7457 0.0222369 45.6341 0.065437 45.53C0.108637 45.4259 0.171951 45.3314 0.251754 45.2518Z" fill="#FCA95C"/>
</svg>
