<svg viewBox="0 0 9000 1400" fill="none" xmlns="http://www.w3.org/2000/svg">
<path d="M0 1279.56L215 1214.24C430 1148.02 860 1017.38 1288 912.692C1717 808.001 2143 731.048 2572 682.729C3000 635.305 3430 617.409 3858 763.261C4287 910.008 4713 1219.61 5142 1339.51C5570 1458.52 6000 1386.93 6428 1254.5C6857 1121.18 7283 927.904 7712 850.056C8140 772.209 8570 811.58 8785 830.371L9000 850.056V0H8785C8570 0 8140 0 7712 0C7283 0 6857 0 6428 0C6000 0 5570 0 5142 0C4713 0 4287 0 3858 0C3430 0 3000 0 2572 0C2143 0 1717 0 1288 0C860 0 430 0 215 0H0V1279.56Z" fill="#0066FF"/>
</svg>
